<svg xmlns="http://www.w3.org/2000/svg" xmlns:xlink="http://www.w3.org/1999/xlink" fill="none" version="1.1" width="168.32904052734375" height="164.9349365234375" viewBox="0 0 168.32904052734375 164.9349365234375"><defs><filter id="master_svg0_35_08" filterUnits="objectBoundingBox" color-interpolation-filters="sRGB" x="-0.4299853039822547" y="-0.5826844207636934" width="1.8599706079645095" height="2.553825122036516"><feFlood flood-opacity="0" result="BackgroundImageFix"/><feColorMatrix in="SourceAlpha" type="matrix" values="0 0 0 0 0 0 0 0 0 0 0 0 0 0 0 0 0 0 127 0"/><feOffset dy="11" dx="0"/><feGaussianBlur stdDeviation="11"/><feColorMatrix type="matrix" values="0 0 0 0 0.3960784375667572 0 0 0 0 0.47843137383461 0 0 0 0 0.5764706134796143 0 0 0 0.27000001072883606 0"/><feBlend mode="normal" in2="BackgroundImageFix" result="effect1_dropShadow"/><feBlend mode="normal" in="SourceGraphic" in2="effect1_dropShadow" result="shape"/></filter><linearGradient x1="0.4996841251850128" y1="-0.02316455729305744" x2="0.4996841251850128" y2="1.0107594728469849" id="master_svg1__054548"><stop offset="0%" stop-color="#FDFEFF" stop-opacity="1"/><stop offset="99.6399998664856%" stop-color="#ECF0F5" stop-opacity="1"/></linearGradient></defs><g><g><path d="M150.99366968536376,73.83308047485352Q150.99366968536376,75.45738047485352,150.91366968536377,77.07968047485352Q150.83266968536378,78.70208047485352,150.67166968536378,80.31858047485352Q150.51066968536378,81.93498047485352,150.26966968536377,83.54178047485351Q150.02866968536378,85.14848047485351,149.70766968536378,86.74158047485352Q149.38666968536376,88.33468047485351,148.98766968536376,89.91028047485352Q148.58866968536378,91.48588047485352,148.11166968536378,93.04028047485352Q147.63466968536378,94.59468047485352,147.08066968536377,96.12398047485351Q146.52666968536377,97.65338047485352,145.89866968536376,99.15408047485352Q145.26966968536377,100.65468047485352,144.56666968536376,102.12308047485351Q143.86466968536376,103.59138047485351,143.0896696853638,105.02388047485351Q142.31466968536375,106.45648047485352,141.46966968536378,107.85008047485351Q140.6256696853638,109.24308047485351,139.71266968536378,110.59308047485352Q138.79966968536377,111.94408047485352,137.82066968536378,113.24908047485351Q136.84166968536377,114.55308047485352,135.79866968536376,115.80908047485352Q134.75666968536376,117.06408047485351,133.65266968536378,118.26808047485352Q132.54866968536376,119.47108047485352,131.38666968536376,120.62008047485351Q130.22466968536378,121.76908047485351,129.00766968536377,122.85908047485351Q127.78966968536378,123.95008047485352,126.51966968536377,124.98108047485351Q125.24866968536377,126.01108047485351,123.92966968536376,126.97908047485352Q122.60966968536377,127.94608047485352,121.24266968536377,128.8490804748535Q119.87666968536377,129.7510804748535,118.46666968536377,130.58608047485353Q117.05746968536377,131.4210804748535,115.60816968536378,132.18708047485353Q114.15886968536377,132.95308047485352,112.67326968536376,133.6470804748535Q111.18766968536377,134.3420804748535,109.66946968536377,134.9630804748535Q108.15126968536377,135.5850804748535,106.60396968536377,136.13208047485352Q105.05666968536377,136.67908047485352,103.48406968536376,137.15108047485353Q101.91146968536377,137.6220804748535,100.31746968536378,138.01708047485351Q98.72336968536376,138.41208047485352,97.11156968536378,138.7290804748535Q95.49986968536376,139.0450804748535,93.87426968536377,139.2840804748535Q92.24866968536377,139.5220804748535,90.61326968536378,139.6810804748535Q88.97786968536377,139.84108047485353,87.33646968536377,139.9200804748535Q85.69516968536377,140.00008047485352,84.05186968536377,140.00008047485352Q82.40846968536377,140.00008047485352,80.76716968536377,139.9200804748535Q79.12576968536376,139.84108047485353,77.49036968536376,139.6810804748535Q75.85486968536377,139.5220804748535,74.22936968536376,139.2840804748535Q72.60376968536377,139.0450804748535,70.99206968536376,138.7290804748535Q69.38026968536377,138.41208047485352,67.78616968536377,138.01708047485351Q66.19206968536378,137.6220804748535,64.61956968536377,137.15108047485353Q63.04696968536377,136.67908047485352,61.49966968536377,136.13208047485352Q59.95236968536377,135.5850804748535,58.43416968536377,134.9630804748535Q56.91586968536377,134.3420804748535,55.43036968536377,133.6470804748535Q53.94476968536377,132.95308047485352,52.49546968536377,132.18708047485353Q51.04616968536377,131.4210804748535,49.63666968536377,130.58608047485353Q48.22716968536377,129.7510804748535,46.86076968536377,128.8490804748535Q45.494369685363765,127.94608047485352,44.174469685363775,126.97908047485352Q42.85446968536377,126.01108047485351,41.58416968536377,124.98108047485351Q40.31386968536377,123.95008047485352,39.09616968536377,122.85908047485351Q37.87856968536377,121.76908047485351,36.716569685363766,120.62008047485351Q35.554569685363774,119.47208047485351,34.45096968536377,118.26808047485352Q33.34736968536377,117.06408047485351,32.30486968536377,115.80908047485352Q31.26226968536377,114.55308047485352,30.28336968536377,113.24908047485351Q29.30446968536377,111.94408047485352,28.39146968536377,110.59308047485352Q27.47846968536377,109.24308047485351,26.63361968536377,107.85008047485351Q25.78877968536377,106.45638047485352,25.01410968536377,105.02388047485351Q24.23944968536377,103.59138047485351,23.53682968536377,102.12308047485351Q22.83421968536377,100.65468047485352,22.205339685363768,99.15408047485352Q21.57645968536377,97.65338047485352,21.02283968536377,96.12398047485351Q20.46920968536377,94.59468047485352,19.99217968536377,93.04028047485352Q19.51513968536377,91.48588047485352,19.11583968536377,89.91028047485352Q18.71653968536377,88.33468047485351,18.39593968536377,86.74158047485352Q18.07534468536377,85.14848047485351,17.834217685363768,83.54178047485351Q17.59308968536377,81.93498047485352,17.432014685363768,80.31858047485352Q17.270939685363768,78.70208047485352,17.190304485363768,77.07968047485352Q17.10966968536377,75.45738047485352,17.10966968536377,73.83308047485352Q17.10966968536377,72.20878047485351,17.190304485363768,70.58638047485351Q17.270939685363768,68.96408047485352,17.432014685363768,67.34758047485352Q17.59308968536377,65.73108047485351,17.834217685363768,64.12428047485352Q18.07534468536377,62.51758047485352,18.39593968536377,60.92448047485352Q18.71653968536377,59.33138047485352,19.11583968536377,57.755780474853516Q19.51513968536377,56.180180474853515,19.99217968536377,54.625780474853514Q20.46920968536377,53.07138047485351,21.02283968536377,51.54208047485351Q21.57645968536377,50.01268047485352,22.205339685363768,48.51208047485351Q22.83421968536377,47.01138047485352,23.53682968536377,45.542980474853515Q24.23944968536377,44.074680474853515,25.01410968536377,42.64218047485352Q25.78877968536377,41.20968047485351,26.63361968536377,39.81638047485352Q27.47846968536377,38.42318047485352,28.39146968536377,37.07268047485351Q29.30446968536377,35.72208047485351,30.28336968536377,34.417380474853516Q31.26226968536377,33.112780474853515,32.30486968536377,31.857180474853514Q33.34736968536377,30.601580474853517,34.45096968536377,29.397980474853515Q35.554569685363774,28.194480474853517,36.716569685363766,27.045980474853515Q37.87856968536377,25.897380474853517,39.09616968536377,24.806580474853515Q40.31386968536377,23.715780474853517,41.58416968536377,22.685280474853514Q42.85446968536377,21.654880474853513,44.174469685363775,20.687280474853516Q45.494369685363765,19.719680474853515,46.86076968536377,18.817180474853515Q48.22716968536377,17.914780474853515,49.63666968536377,17.079740474853516Q51.04616968536377,16.244680474853517,52.49546968536377,15.478990474853514Q53.94476968536377,14.713300474853515,55.43036968536377,14.018820474853516Q56.91586968536377,13.324330474853515,58.43416968536377,12.702740474853517Q59.95236968536377,12.081140474853516,61.49966968536377,11.533930474853516Q63.04696968536377,10.986720474853517,64.61956968536377,10.515210474853516Q66.19206968536378,10.043700474853516,67.78616968536377,9.649020474853515Q69.38026968536377,9.254350474853515,70.99206968536376,8.937460474853516Q72.60376968536377,8.620573474853515,74.22936968536376,8.382237474853516Q75.85496968536377,8.143902474853515,77.49036968536376,7.9846924748535155Q79.12576968536376,7.825482474853516,80.76716968536377,7.745781474853516Q82.40846968536377,7.666080474853516,84.05186968536377,7.666080474853516Q85.69516968536377,7.666080474853516,87.33646968536377,7.745781474853516Q88.97786968536377,7.825482474853516,90.61326968536378,7.9846924748535155Q92.24866968536377,8.143902474853515,93.87426968536377,8.382237474853516Q95.49986968536376,8.620573474853515,97.11156968536378,8.937460474853516Q98.72336968536376,9.254350474853515,100.31746968536378,9.649020474853515Q101.91146968536377,10.043700474853516,103.48406968536376,10.515210474853516Q105.05666968536377,10.986720474853517,106.60396968536377,11.533930474853516Q108.15126968536377,12.081140474853516,109.66946968536377,12.702740474853517Q111.18766968536377,13.324330474853515,112.67326968536376,14.018820474853516Q114.15886968536377,14.713300474853515,115.60816968536378,15.478990474853514Q117.05746968536377,16.244680474853517,118.46666968536377,17.079740474853516Q119.87666968536377,17.914780474853515,121.24266968536377,18.817180474853515Q122.60966968536377,19.719680474853515,123.92966968536376,20.687280474853516Q125.24866968536377,21.654880474853513,126.51966968536377,22.685280474853514Q127.78966968536378,23.715780474853517,129.00766968536377,24.806580474853515Q130.22466968536378,25.897380474853517,131.38666968536376,27.045980474853515Q132.54866968536376,28.194480474853517,133.65266968536378,29.397980474853515Q134.75666968536376,30.601580474853517,135.79866968536376,31.857180474853514Q136.84166968536377,33.112780474853515,137.82066968536378,34.417380474853516Q138.79966968536377,35.72208047485351,139.71266968536378,37.07268047485351Q140.6256696853638,38.42318047485352,141.46966968536378,39.81638047485352Q142.31466968536375,41.20968047485351,143.0896696853638,42.64218047485352Q143.86466968536376,44.074680474853515,144.56666968536376,45.542980474853515Q145.26966968536377,47.01138047485352,145.89866968536376,48.51208047485351Q146.52666968536377,50.01268047485352,147.08066968536377,51.54208047485351Q147.63466968536378,53.07138047485351,148.11166968536378,54.625780474853514Q148.58866968536378,56.180180474853515,148.98766968536376,57.755780474853516Q149.38666968536376,59.33138047485352,149.70766968536378,60.92448047485352Q150.02866968536378,62.51758047485352,150.26966968536377,64.12438047485352Q150.51066968536378,65.73108047485351,150.67166968536378,67.34758047485352Q150.83266968536378,68.96408047485352,150.91366968536377,70.58638047485351Q150.99366968536376,72.20878047485351,150.99366968536376,73.83308047485352Z" fill="#EAEEF9" fill-opacity="1"/></g><g><path d="M135.3289771118164,65.1976843597412L135.3289771118164,105.68288435974121C135.3289771118164,114.09398435974121,128.4544771118164,120.93498435974121,119.88957711181641,120.93498435974121L48.43947711181641,120.93498435974121C39.9872071118164,120.93498435974121,33.1126741118164,114.20608435974121,32.999977111816406,105.79508435974121C32.999977111816406,105.68288435974121,32.999977111816406,105.68288435974121,32.999977111816406,105.57078435974121L32.999977111816406,65.1976843597412C32.999977111816406,65.0855843597412,32.999977111816406,65.0855843597412,32.999977111816406,64.9733843597412C32.999977111816406,64.7490843597412,32.999977111816406,64.5247843597412,33.1126741118164,64.3004843597412C33.22537111181641,63.964084359741214,33.33806911181641,63.73978435974121,33.45076611181641,63.403284359741214L52.60927711181641,26.95543435974121C53.285477111816405,25.497516359741212,54.750577111816405,24.71248435974121,56.328277111816405,24.71248435974121L111.8880771118164,24.71248435974121C113.46577711181641,24.71248435974121,114.81817711181641,25.497516359741212,115.60707711181641,26.95543435974121L134.76597711181643,63.403284359741214C134.8779771118164,63.62758435974121,134.9909771118164,63.964084359741214,135.1039771118164,64.3004843597412C135.3289771118164,64.5247843597412,135.3289771118164,64.8612843597412,135.3289771118164,65.1976843597412Z" fill="#D5DDEA" fill-opacity="1"/></g><g filter="url(#master_svg0_35_08)"><path d="M135.3289771118164,65.1976932211914L135.3289771118164,109.83231422119141C135.3289771118164,116.0004142211914,130.37037711181642,120.9349142211914,124.0593771118164,120.9349142211914L44.26967711181641,120.9349142211914C38.07134711181641,120.9349142211914,32.999977111816406,116.0004142211914,32.999977111816406,109.83231422119141L32.999977111816406,64.9733982211914C32.999977111816406,64.7491042211914,32.999977111816406,64.5248092211914,33.1126741118164,64.3005142211914L58.8076771118164,64.3005142211914C62.6393771118164,64.3005142211914,65.7948771118164,67.3284942211914,65.7948771118164,71.25365422119141C65.7948771118164,73.1601542211914,66.5837771118164,74.9545142211914,67.8233771118164,76.18811422119141C69.17577711181642,77.53391422119141,70.75357711181641,78.20681422119141,72.7820771118164,78.20681422119141L95.6596771118164,78.20681422119141C99.4913771118164,78.20681422119141,102.64687711181641,75.1788142211914,102.64687711181641,71.25365422119141C102.64687711181641,69.3471442211914,103.4357771118164,67.5527842211914,104.6753771118164,66.3191642211914C106.0277771118164,64.9733982211914,107.6055771118164,64.3005142211914,109.5213771118164,64.3005142211914L135.1039771118164,64.3005142211914C135.3289771118164,64.5248092211914,135.3289771118164,64.86125122119141,135.3289771118164,65.1976932211914Z" fill="url(#master_svg1__054548)" fill-opacity="1"/></g><g><path d="M149.28323343261718,42.207480686035154C151.8346934326172,42.207480686035154,153.9038134326172,40.14396068603516,153.9038134326172,37.609430686035154C153.9038134326172,35.07490068603516,151.8346934326172,33.011390686035156,149.28323343261718,33.011390686035156C146.7306334326172,33.011390686035156,144.6626434326172,35.07490068603516,144.6626434326172,37.609430686035154C144.6626434326172,40.14396068603516,146.7306334326172,42.207480686035154,149.28323343261718,42.207480686035154Z" fill="#EAEEF9" fill-opacity="1"/></g><g><path d="M144.66263059570312,27.291871475219725C146.40493059570312,27.291871475219725,147.81815059570312,25.890031475219725,147.81815059570312,24.151751475219726C147.81815059570312,22.413461475219727,146.40493059570312,21.011621475219727,144.66263059570312,21.011621475219727C142.91921059570313,21.011621475219727,141.50711059570312,22.413461475219727,141.50711059570312,24.151751475219726C141.50711059570312,25.890031475219725,142.91921059570313,27.291871475219725,144.66263059570312,27.291871475219725Z" fill="#EAEEF9" fill-opacity="1"/></g><g><path d="M16.86398652984619,37.60942976379395C18.60628652984619,37.60942976379395,20.01950652984619,36.20758976379395,20.01950652984619,34.469309763793945C20.01950652984619,32.731019763793945,18.60628652984619,31.329179763793945,16.86398652984619,31.329179763793945C15.120566529846192,31.329179763793945,13.708466529846191,32.731019763793945,13.708466529846191,34.469309763793945C13.708466529846191,36.20758976379395,15.120566529846192,37.60942976379395,16.86398652984619,37.60942976379395Z" fill="#EAEEF9" fill-opacity="1"/></g><g><path d="M15.62430859375,100.86055251708984Q15.62430859375,101.00371251708984,15.61730859375,101.14670251708985Q15.61020859375,101.28969251708985,15.59610859375,101.43216251708985Q15.58200859375,101.57463251708984,15.56090859375,101.71624251708984Q15.53980859375,101.85785251708984,15.51170859375,101.99825251708984Q15.48360859375,102.13866251708984,15.44870859375,102.27753251708984Q15.41370859375,102.41640251708985,15.37200859375,102.55340251708985Q15.33020859375,102.69039251708985,15.28170859375,102.82518251708984Q15.23330859375,102.95997251708984,15.17820859375,103.09223251708984Q15.12320859375,103.22450251708985,15.06170859375,103.35391251708984Q15.00020859375,103.48333251708985,14.93230859375,103.60958251708985Q14.86450859375,103.73584251708985,14.79060859375,103.85863251708984Q14.71660859375,103.98142251708984,14.63670859375,104.10045251708985Q14.55680859375,104.21948251708984,14.47110859375,104.33447251708985Q14.38540859375,104.44946251708984,14.29410859375,104.56012251708984Q14.20280859375,104.67079251708984,14.10620859375,104.77686251708984Q14.00960859375,104.88293251708984,13.90790859375,104.98416251708984Q13.80615859375,105.08539251708984,13.69956859375,105.18149251708985Q13.59297859375,105.27769251708985,13.48176859375,105.36849251708985Q13.37055859375,105.45929251708985,13.25500859375,105.54459251708984Q13.13945859375,105.62989251708984,13.01984859375,105.70939251708984Q12.90022859375,105.78889251708985,12.77683859375,105.86249251708985Q12.65343859375,105.93609251708985,12.52656859375,106.00359251708984Q12.39969859375,106.07109251708984,12.26964859375,106.13229251708984Q12.13959859375,106.19349251708985,12.00668859375,106.24829251708985Q11.87377859375,106.30309251708985,11.738328593750001,106.35129251708985Q11.60286859375,106.39959251708984,11.465208593749999,106.44109251708984Q11.327538593749999,106.48269251708984,11.18798859375,106.51749251708985Q11.04843859375,106.55219251708985,10.90733859375,106.58019251708984Q10.76624859375,106.60809251708984,10.623938593750001,106.62909251708984Q10.481638593749999,106.65009251708985,10.338468593750001,106.66409251708984Q10.19529859375,106.67819251708984,10.05160859375,106.68519251708985Q9.90792859375,106.69219251708984,9.76406859375,106.69219251708984Q9.62019859375,106.69219251708984,9.47651859375,106.68519251708985Q9.332828593750001,106.67819251708984,9.18965859375,106.66409251708984Q9.04648859375,106.65009251708985,8.90418859375,106.62909251708984Q8.76187859375,106.60809251708984,8.62078859375,106.58019251708984Q8.47968859375,106.55219251708985,8.34013859375,106.51749251708985Q8.20058859375,106.48269251708984,8.06291859375,106.44109251708984Q7.92525859375,106.39959251708984,7.78979859375,106.35129251708985Q7.65434859375,106.30309251708985,7.52143859375,106.24829251708985Q7.388528593749999,106.19349251708985,7.2584785937500005,106.13229251708984Q7.12842859375,106.07109251708984,7.00155859375,106.00359251708984Q6.87468859375,105.93609251708985,6.75128859375,105.86249251708985Q6.62789859375,105.78889251708985,6.50827859375,105.70939251708984Q6.388668593749999,105.62989251708984,6.2731185937500005,105.54459251708984Q6.15755859375,105.45929251708985,6.04635859375,105.36849251708985Q5.93514859375,105.27769251708985,5.8285585937499995,105.18149251708985Q5.72195859375,105.08539251708984,5.62023859375,104.98416251708984Q5.51850859375,104.88293251708984,5.42189859375,104.77686251708984Q5.32528859375,104.67079251708984,5.23402859375,104.56012251708984Q5.14275859375,104.44946251708984,5.05705859375,104.33447251708985Q4.97136859375,104.21949251708985,4.89143959375,104.10045251708985Q4.81151459375,103.98142251708984,4.73755559375,103.85863251708984Q4.66359559375,103.73584251708985,4.59577959375,103.60958251708985Q4.52796459375,103.48333251708985,4.46645559375,103.35391251708984Q4.40494759375,103.22450251708985,4.34989359375,103.09223251708984Q4.29484059375,102.95997251708984,4.24637559375,102.82518251708984Q4.19790959375,102.69039251708985,4.15614959375,102.55340251708985Q4.11438859375,102.41640251708985,4.07943259375,102.27753251708984Q4.04447759375,102.13866251708984,4.01641159375,101.99825251708984Q3.98834579375,101.85785251708984,3.96723699375,101.71624251708984Q3.94612819375,101.57463251708984,3.93202729375,101.43216251708985Q3.91792649375,101.28969251708985,3.91086752375,101.14670251708985Q3.90380859375,101.00371251708984,3.90380859375,100.86055251708984Q3.90380859375,100.71739251708985,3.91086752375,100.57441251708984Q3.91792649375,100.43142251708984,3.93202729375,100.28895251708984Q3.94612819375,100.14648251708985,3.96723699375,100.00487251708984Q3.98834579375,99.86326251708985,4.01641159375,99.72285251708985Q4.04447759375,99.58244251708985,4.07943259375,99.44358251708985Q4.11438859375,99.30471251708984,4.15614959375,99.16771251708984Q4.19790959375,99.03072251708984,4.24637559375,98.89593251708985Q4.29484059375,98.76113251708985,4.34989359375,98.62887251708985Q4.40494759375,98.49661251708984,4.46645559375,98.36720251708985Q4.52796459375,98.23778251708984,4.59577959375,98.11153251708984Q4.66359559375,97.98527251708984,4.73755559375,97.86248251708984Q4.81151459375,97.73969251708985,4.89143959375,97.62065251708984Q4.97136859375,97.50162251708984,5.05705859375,97.38664251708984Q5.14275859375,97.27165251708985,5.23402859375,97.16099251708984Q5.32528859375,97.05032251708984,5.42189859375,96.94425251708985Q5.51850859375,96.83817251708984,5.62023859375,96.73694251708984Q5.72195859375,96.63572251708985,5.8285585937499995,96.53958251708984Q5.93514859375,96.44344251708985,6.04635859375,96.35262251708984Q6.15755859375,96.26180251708985,6.2731185937500005,96.17652251708985Q6.388668593749999,96.09124251708984,6.50827859375,96.01170451708984Q6.62789859375,95.93216951708985,6.75128859375,95.85857151708984Q6.87468859375,95.78497251708984,7.00155859375,95.71748751708985Q7.12842859375,95.65000351708984,7.2584785937500005,95.58879451708984Q7.388528593749999,95.52758651708984,7.52143859375,95.47280151708985Q7.65434859375,95.41801651708984,7.78979859375,95.36978751708985Q7.92525859375,95.32155851708984,8.06291859375,95.28000151708984Q8.20058859375,95.23844551708984,8.34013859375,95.20366051708984Q8.47968859375,95.16887551708984,8.62078859375,95.14094651708984Q8.76187859375,95.11301731708984,8.90418859375,95.09201141708985Q9.04648859375,95.07100561708984,9.18965859375,95.05697361708984Q9.332828593750001,95.04294151708984,9.47651859375,95.03591700708985Q9.62019859375,95.02889251708984,9.76406859375,95.02889251708984Q9.90792859375,95.02889251708984,10.05160859375,95.03591700708985Q10.19529859375,95.04294151708984,10.338468593750001,95.05697361708984Q10.481638593749999,95.07100561708984,10.623938593750001,95.09201141708985Q10.76624859375,95.11301731708984,10.90733859375,95.14094651708984Q11.04843859375,95.16887551708984,11.18798859375,95.20366051708984Q11.327538593749999,95.23844551708984,11.465208593749999,95.28000151708984Q11.60286859375,95.32155851708984,11.73831859375,95.36978751708985Q11.87377859375,95.41801651708984,12.00668859375,95.47280151708985Q12.13959859375,95.52758651708984,12.26964859375,95.58879451708984Q12.39968859375,95.65000351708984,12.52656859375,95.71748751708985Q12.65343859375,95.78497251708984,12.77683859375,95.85857151708984Q12.90022859375,95.93216951708985,13.01984859375,96.01170451708984Q13.13945859375,96.09124251708984,13.25500859375,96.17652251708985Q13.37055859375,96.26180251708985,13.48176859375,96.35262251708984Q13.59297859375,96.44344251708985,13.69956859375,96.53958251708984Q13.80615859375,96.63572251708985,13.90790859375,96.73694251708984Q14.00960859375,96.83817251708984,14.10620859375,96.94425251708985Q14.20280859375,97.05032251708984,14.29410859375,97.16099251708984Q14.38540859375,97.27165251708985,14.47110859375,97.38664251708984Q14.55680859375,97.50162251708984,14.63670859375,97.62065251708984Q14.71660859375,97.73969251708985,14.79060859375,97.86248251708984Q14.86450859375,97.98527251708984,14.93230859375,98.11153251708984Q15.00020859375,98.23778251708984,15.06170859375,98.36720251708985Q15.12320859375,98.49661251708984,15.17820859375,98.62887251708985Q15.23330859375,98.76113251708985,15.28170859375,98.89593251708985Q15.33020859375,99.03072251708984,15.37200859375,99.16771251708984Q15.41370859375,99.30471251708984,15.44870859375,99.44357251708985Q15.48360859375,99.58244251708985,15.51170859375,99.72285251708985Q15.53980859375,99.86326251708985,15.56090859375,100.00487251708984Q15.58200859375,100.14648251708985,15.59610859375,100.28895251708984Q15.61020859375,100.43142251708984,15.61730859375,100.57441251708984Q15.62430859375,100.71739251708985,15.62430859375,100.86055251708984Z" fill="#EAEEF9" fill-opacity="1"/></g><g><path d="M113.55775206298829,13.286752305603027L113.35705206298829,11.128574605603028L111.36565206298829,11.313730005603027L111.56635206298827,13.471902305603027L113.55775206298829,13.286752305603027ZM114.28415206298828,21.34235230560303L113.93305206298828,17.29545230560303L111.94055206298827,17.468332305603028L112.29165206298828,21.515252305603028L114.28415206298828,21.34235230560303ZM114.58675206298828,29.588352305603028Q114.63085206298828,27.723952305603028,114.54785206298828,25.62465230560303L112.54945206298828,25.70365230560303Q112.62995206298828,27.739852305603026,112.58735206298829,29.541152305603028L114.58675206298828,29.588352305603028ZM113.77625206298828,37.82325230560303Q114.13765206298828,35.629452305603024,114.33415206298828,33.66535230560302L112.34405206298828,33.466352305603024Q112.15395206298828,35.36715230560303,111.80285206298828,37.49815230560303L113.77625206298828,37.82325230560303ZM92.87925206298829,37.31145230560303Q90.61483206298828,36.633152305603026,88.33036206298829,37.08515230560303L88.71850206298828,39.04705230560303Q90.51626206298828,38.69145230560303,92.30544206298828,39.22735230560303L92.87925206298829,37.31145230560303ZM84.22976206298829,39.291952305603026Q82.67703867298827,40.944552305603025,82.04428306298828,43.280152305603025L83.97469206298828,43.80315230560303Q84.47678206298828,41.94985230560303,85.68736206298829,40.66135230560303L84.22976206298829,39.291952305603026ZM99.31465206298827,43.32815230560303Q98.40035206298828,41.18825230560303,96.76745206298828,39.65065230560303L95.39645206298829,41.106752305603024Q96.72525206298828,42.358052305603024,97.47555206298829,44.11395230560303L99.31465206298827,43.32815230560303ZM112.21115206298828,45.549452305603026Q112.66815206298828,43.56425230560303,113.01835206298828,41.86935230560303L111.05965206298828,41.464652305603025Q110.71825206298828,43.11715230560303,110.27305206298828,45.053452305603024L110.15095206298828,45.417352305603025L112.04715206298829,46.053452305603024L112.20025206298828,45.596952305603025L112.21115206298828,45.549452305603026ZM81.94669406298829,48.28845230560303Q82.29002906298828,50.18995230560303,83.13880406298829,51.955452305603025L84.94133206298828,51.08895230560303Q84.20450206298828,49.556252305603024,83.91042206298827,47.908352305603024L83.90522206298829,47.879252305603025L83.89831206298828,47.85045230560303Q83.84900206298828,47.64515230560303,83.81085206298827,47.43505230560303L81.84304606298828,47.792552305603024Q81.88853206298828,48.04295230560303,81.94669406298829,48.28845230560303ZM100.32345206298828,49.20665230560303Q100.35995206298828,48.415652305603025,100.31135206298828,47.63495230560303L98.31525206298828,47.759152305603024Q98.35705206298829,48.43185230560303,98.32565206298828,49.11455230560303Q98.27055206298829,50.313352305603026,98.01835206298828,51.565052305603025L99.97885206298828,51.960152305603025Q100.26145206298828,50.55815230560303,100.32345206298828,49.20665230560303ZM108.61175206298827,53.813952305603024Q109.71045206298828,52.254252305603025,110.64325206298828,49.973252305603026L108.79215206298828,49.21625230560303Q107.94495206298828,51.28755230560303,106.97665206298828,52.66215230560303L108.61175206298827,53.813952305603024ZM85.60235206298827,55.58205230560303Q87.11993206298828,57.22935230560303,89.02567206298828,58.33225230560303L90.02744206298829,56.601252305603026Q88.38487206298828,55.650652305603025,87.07332206298828,54.22695230560303L85.60235206298827,55.58205230560303ZM97.39555206298829,58.78265230560303Q98.13775206298828,57.449452305603025,98.70575206298828,56.07965230560303L96.85835206298827,55.313552305603025Q96.25455206298828,56.76955230560303,95.43505206298828,58.184952305603026Q94.46935206298828,58.13855230560303,93.54525206298828,57.94535230560303L93.13585206298828,59.903052305603026Q95.24685206298828,60.34445230560303,97.52305206298828,60.128852305603026L97.39555206298829,58.78265230560303ZM101.77945206298828,59.129652305603024Q103.90425206298828,58.31435230560303,105.60985206298828,56.98515230560303L104.38045206298828,55.40765230560303Q102.90975206298828,56.55375230560303,101.06295206298827,57.26245230560303L101.77945206298828,59.129652305603024ZM92.19096206298828,66.74025230560304Q93.70965206298828,64.80715230560303,94.64205206298828,63.42045230560303L92.98235206298828,62.304552305603025Q92.09129206298829,63.62985230560303,90.61828206298829,65.50465230560303L92.19096206298828,66.74025230560304ZM87.29576206298827,73.14545230560303Q88.48819206298828,71.49365230560304,89.70495206298828,69.91075230560303L88.11929206298828,68.69185230560302Q86.88416206298828,70.29865230560303,85.67414206298828,71.97485230560304L87.29576206298827,73.14545230560303ZM83.75390206298829,78.25175230560303L84.97939206298828,76.44255230560303L83.32352406298828,75.32095230560303L82.09803806298828,77.13005230560303L83.75390206298829,78.25175230560303Z" fill-rule="evenodd" fill="#ABB5CC" fill-opacity="1"/></g><g><path d="M120.98608051757813,5.266126858835221C120.39780051757812,7.4081368588352206,118.04581051757812,8.181956858835221,115.69382051757813,6.82497685883522C113.14573051757813,5.65863685883522,111.38202051757813,4.682956858835221,111.77308021757813,2.74280685883522C112.36135951757812,0.8026578588352203,114.71335051757812,0.6120068588352203,117.45753051757812,0.4213564588352203C120.78998051757813,0.028840858835220362,121.37826051757813,3.1353268588352203,120.98608051757813,5.266126858835221Z" fill="#DAE2EB" fill-opacity="1"/></g><g><path d="M101.97293009326172,7.2062729573059086C102.95339809326173,8.955772957305907,105.69757809326171,10.122112957305909,107.65737809326171,8.372612957305908C109.81327809326172,6.4324629573059084,111.57700809326172,5.075472957305909,110.59764809326172,3.1353229573059083C109.61717809326171,1.3858279573059082,108.04956809326171,1.9689940573059082,104.71710809326171,2.361509957305908C101.97293009326172,2.944672957305908,100.79637109326171,5.2661229573059085,101.97293009326172,7.2062729573059086Z" fill="#DAE2EB" fill-opacity="1"/></g><g><path d="M110.59764124511719,0.0288431C111.96917124511718,-0.161807,113.34182124511719,0.61201,113.73400124511718,1.77834C113.93010124511719,2.15964,114.12619124511718,2.74281,114.12619124511718,3.13533C114.5172512451172,5.84929,113.53791124511719,8.18196,111.96917124511718,8.37261C110.20545124511719,8.76512,108.44174424511719,6.82498,108.24565124511719,4.30166C108.24565124511719,3.51663,108.24565124511719,3.13533,108.24565124511719,2.55216C108.44174424511719,1.19518,109.22499024511718,0.219494,110.59764124511719,0.0288431C110.79373124511719,0.0288431,110.59764124511719,0.0288431,110.59764124511719,0.0288431Z" fill="#989FB0" fill-opacity="1"/></g><g><path d="M71.30575950195312,94.31115947753906C72.73363950195312,94.31115947753906,73.89103950195313,93.15603947753907,73.89103950195313,91.73176947753906C73.89103950195313,90.31870947753906,72.73363950195312,89.16358947753906,71.30575950195312,89.16358947753906C69.87788950195312,89.16358947753906,68.72048950195312,90.31870947753906,68.72048950195312,91.73176947753906C68.72048950195312,93.15603947753907,69.87788950195312,94.31115947753906,71.30575950195312,94.31115947753906Z" fill="#989FB0" fill-opacity="1"/></g><g><path d="M97.0221367602539,94.31115947753906C98.4500167602539,94.31115947753906,99.60741676025391,93.15603947753907,99.60741676025391,91.73176947753906C99.60741676025391,90.31870947753906,98.4500167602539,89.16358947753906,97.0221367602539,89.16358947753906C95.5942667602539,89.16358947753906,94.4368667602539,90.31870947753906,94.4368667602539,91.73176947753906C94.4368667602539,93.15603947753907,95.5942667602539,94.31115947753906,97.0221367602539,94.31115947753906Z" fill="#989FB0" fill-opacity="1"/></g><g><path d="M88.35685555419921,111.21176375488281L80.25054555419922,111.21176375488281C78.99283555419922,111.21176375488281,77.94475555419922,110.16879375488281,77.94475555419922,108.91274375488281C77.94475555419922,107.65669375488281,78.99283555419922,106.61372375488281,80.25054555419922,106.61372375488281L88.28695555419922,106.61372375488281C89.54465555419922,106.61372375488281,90.59275555419921,107.65669375488281,90.59275555419921,108.91274375488281C90.66265555419922,110.16879375488281,89.61455555419921,111.21176375488281,88.35685555419921,111.21176375488281Z" fill="#989FB0" fill-opacity="1"/></g></g></svg>