<svg xmlns="http://www.w3.org/2000/svg" xmlns:xlink="http://www.w3.org/1999/xlink" fill="none" version="1.1" width="173.24346923828125" height="186.0003662109375" viewBox="0 0 173.24346923828125 186.0003662109375"><defs><filter id="master_svg0_35_318" filterUnits="objectBoundingBox" color-interpolation-filters="sRGB" x="-0.46795133837324504" y="-0.2749991432852414" width="1.93590267674649" height="1.7333310487606437"><feFlood flood-opacity="0" result="BackgroundImageFix"/><feColorMatrix in="SourceAlpha" type="matrix" values="0 0 0 0 0 0 0 0 0 0 0 0 0 0 0 0 0 0 127 0"/><feOffset dy="11" dx="0"/><feGaussianBlur stdDeviation="11"/><feColorMatrix type="matrix" values="0 0 0 0 0.3960784375667572 0 0 0 0 0.47843137383461 0 0 0 0 0.5764706134796143 0 0 0 0.27000001072883606 0"/><feBlend mode="normal" in2="BackgroundImageFix" result="effect1_dropShadow"/><feBlend mode="normal" in="SourceGraphic" in2="effect1_dropShadow" result="shape"/></filter><linearGradient x1="0.4996841251850128" y1="-0.02316455729305744" x2="0.4996841251850128" y2="1.0107594728469849" id="master_svg1__054548"><stop offset="0%" stop-color="#FDFEFF" stop-opacity="1"/><stop offset="99.6399998664856%" stop-color="#ECF0F5" stop-opacity="1"/></linearGradient></defs><g><g><path d="M93.36283883361817,152.4634453468323C130.54903883361817,152.4634453468323,160.69603883361816,122.39844534683228,160.69603883361816,85.18024534683228C160.69603883361816,47.961145346832275,130.41603883361816,17.895445346832275,93.36283883361817,17.895445346832275C56.17703883361816,17.895445346832275,26.030038833618164,47.961145346832275,26.030038833618164,85.18024534683228C26.030038833618164,122.39844534683228,56.17703883361816,152.4634453468323,93.36283883361817,152.4634453468323Z" fill="#EAEEF9" fill-opacity="1"/></g><g><path d="M161.75806569824218,35.64212910400391Q161.75806569824218,35.77543910400391,161.7515656982422,35.90858910400391Q161.7449656982422,36.041729104003906,161.7318656982422,36.1743991040039Q161.71876569824218,36.307059104003905,161.69916569824218,36.438929104003904Q161.6795656982422,36.57078910400391,161.6534656982422,36.701539104003906Q161.6273656982422,36.832289104003905,161.5948656982422,36.96159910400391Q161.5624656982422,37.090909104003906,161.52366569824218,37.218479104003904Q161.48486569824217,37.34604910400391,161.43976569824218,37.47155910400391Q161.3947656982422,37.5970791040039,161.34356569824217,37.72023910400391Q161.29246569824218,37.84339910400391,161.2352656982422,37.9639091040039Q161.1781656982422,38.084419104003906,161.11516569824218,38.201979104003904Q161.0521656982422,38.319549104003904,160.98336569824218,38.43388910400391Q160.91466569824217,38.54822910400391,160.8404256982422,38.65907910400391Q160.7661656982422,38.769919104003904,160.68653569824218,38.876989104003904Q160.6069056982422,38.98406910400391,160.52211569824217,39.08710910400391Q160.43731569824217,39.190159104003904,160.3475456982422,39.28893910400391Q160.2577756982422,39.3877091040039,160.16326569824218,39.481979104003905Q160.0687456982422,39.5762391040039,159.9697056982422,39.665759104003904Q159.8706556982422,39.75528910400391,159.7673356982422,39.83985910400391Q159.6640056982422,39.9244191040039,159.5566356982422,40.00383910400391Q159.4492756982422,40.083249104003905,159.33813569824218,40.15730910400391Q159.22699569824218,40.2313691040039,159.1123456982422,40.2998691040039Q158.99769569824218,40.36846910400391,158.8798056982422,40.4312691040039Q158.76192569824218,40.49416910400391,158.6410856982422,40.55106910400391Q158.52025569824218,40.6080691040039,158.39675569824217,40.65916910400391Q158.2732656982422,40.71016910400391,158.14740569824218,40.75506910400391Q158.0215556982422,40.79996910400391,157.89363569824218,40.838669104003905Q157.7657256982422,40.877369104003904,157.6360656982422,40.90976910400391Q157.5064056982422,40.94216910400391,157.3753056982422,40.968169104003906Q157.24420569824218,40.99416910400391,157.1119756982422,41.01366910400391Q156.9797556982422,41.03326910400391,156.84673569824218,41.04636910400391Q156.7137056982422,41.059369104003906,156.5801956982422,41.065969104003905Q156.4466956982422,41.07246910400391,156.3130256982422,41.07246910400391Q156.17935569824218,41.07246910400391,156.04584569824218,41.065969104003905Q155.91233569824217,41.059369104003906,155.7793156982422,41.04636910400391Q155.6462856982422,41.03326910400391,155.51406569824218,41.01366910400391Q155.3818456982422,40.99416910400391,155.25074569824218,40.968169104003906Q155.11964569824218,40.94216910400391,154.98998569824218,40.90976910400391Q154.86031569824218,40.877369104003904,154.7324056982422,40.838669104003905Q154.60449569824218,40.79996910400391,154.4786356982422,40.75506910400391Q154.3527856982422,40.71016910400391,154.2292856982422,40.65916910400391Q154.1057956982422,40.6080691040039,153.98496569824218,40.55106910400391Q153.8641256982422,40.49416910400391,153.74624569824218,40.4312691040039Q153.6283556982422,40.36846910400391,153.51370569824218,40.2998691040039Q153.3990556982422,40.2313691040039,153.2879156982422,40.15730910400391Q153.17676569824218,40.083249104003905,153.06940569824218,40.00383910400391Q152.96204569824218,39.9244191040039,152.85871569824218,39.83985910400391Q152.75538569824218,39.75528910400391,152.65634569824218,39.665759104003904Q152.55730569824217,39.5762391040039,152.4627856982422,39.48196910400391Q152.3682656982422,39.3877091040039,152.27850569824218,39.28893910400391Q152.1887356982422,39.190159104003904,152.1039356982422,39.08710910400391Q152.0191356982422,38.98406910400391,151.9395156982422,38.876989104003904Q151.85988569824218,38.769919104003904,151.78562369824218,38.65907910400391Q151.71136069824217,38.54822910400391,151.6426416982422,38.43388910400391Q151.5739226982422,38.319549104003904,151.51091169824218,38.201979104003904Q151.4479006982422,38.084419104003906,151.3907496982422,37.9639091040039Q151.33359869824218,37.84339910400391,151.28244569824219,37.72023910400391Q151.23129369824218,37.5970791040039,151.1862616982422,37.47155910400391Q151.1412296982422,37.34604910400391,151.1024276982422,37.218479104003904Q151.0636256982422,37.090909104003906,151.0311476982422,36.96159910400391Q150.9986686982422,36.832289104003905,150.9725906982422,36.701539104003906Q150.94651349824218,36.57078910400391,150.92690019824218,36.438929104003904Q150.9072869982422,36.307059104003905,150.8941850982422,36.1743991040039Q150.88108329824217,36.041729104003906,150.8745245082422,35.90858910400391Q150.8679656982422,35.77543910400391,150.8679656982422,35.64212910400391Q150.8679656982422,35.508819104003905,150.8745245082422,35.37567910400391Q150.88108329824217,35.24252910400391,150.8941850982422,35.1098591040039Q150.9072869982422,34.97719910400391,150.92690019824218,34.84532910400391Q150.94651349824218,34.713469104003906,150.9725906982422,34.58271910400391Q150.9986686982422,34.45196910400391,151.0311476982422,34.322659104003904Q151.0636256982422,34.19334910400391,151.1024276982422,34.06577910400391Q151.1412296982422,33.9382091040039,151.1862616982422,33.812699104003904Q151.23129369824218,33.6871791040039,151.28244569824219,33.564019104003904Q151.33359869824218,33.440859104003906,151.3907496982422,33.32034910400391Q151.4479006982422,33.19983910400391,151.51091169824218,33.08227910400391Q151.5739226982422,32.96470910400391,151.6426416982422,32.8503691040039Q151.71136069824217,32.736029104003904,151.78562369824218,32.625179104003905Q151.85988569824218,32.51433910400391,151.9395156982422,32.40726910400391Q152.0191356982422,32.300189104003906,152.1039356982422,32.197149104003906Q152.1887356982422,32.09409910400391,152.27850569824218,31.995319104003904Q152.3682656982422,31.896549104003906,152.4627856982422,31.802289104003908Q152.55730569824217,31.708019104003906,152.65634569824218,31.618499104003906Q152.75538569824218,31.528969104003906,152.85871569824218,31.444409104003906Q152.96204569824218,31.359839104003907,153.06940569824218,31.280419104003908Q153.17676569824218,31.201012104003905,153.2879156982422,31.126950104003907Q153.3990556982422,31.052888104003905,153.51370569824218,30.984354104003906Q153.6283556982422,30.915820104003906,153.74624569824218,30.852979104003907Q153.8641256982422,30.790138104003905,153.98496569824218,30.733142104003907Q154.1057956982422,30.676145104003908,154.2292856982422,30.625131104003906Q154.3527856982422,30.574116104003906,154.4786356982422,30.529206104003908Q154.60449569824218,30.484296104003906,154.7324056982422,30.445598104003906Q154.86031569824218,30.406901104003907,154.98998569824218,30.374510104003907Q155.11964569824218,30.342119104003906,155.25074569824218,30.316112104003906Q155.3818456982422,30.290104904003908,155.51406569824218,30.270544504003905Q155.6462856982422,30.250984204003906,155.7793156982422,30.237917804003906Q155.91233569824217,30.224851304003906,156.04584569824218,30.218310214003907Q156.17935569824218,30.211769104003906,156.3130256982422,30.211769104003906Q156.4466956982422,30.211769104003906,156.5801956982422,30.218310214003907Q156.7137056982422,30.224851304003906,156.84673569824218,30.237917804003906Q156.9797556982422,30.250984204003906,157.1119756982422,30.270544504003905Q157.24420569824218,30.290104904003908,157.3753056982422,30.316112104003906Q157.5064056982422,30.342119104003906,157.6360656982422,30.374510104003907Q157.7657256982422,30.406901104003907,157.89364569824218,30.445598104003906Q158.0215556982422,30.484296104003906,158.14740569824218,30.529206104003908Q158.2732656982422,30.574116104003906,158.39675569824217,30.625131104003906Q158.52025569824218,30.676145104003908,158.6410856982422,30.733142104003907Q158.76192569824218,30.790138104003905,158.8798056982422,30.852979104003907Q158.99769569824218,30.915820104003906,159.1123456982422,30.984354104003906Q159.22699569824218,31.052888104003905,159.33813569824218,31.126950104003907Q159.4492756982422,31.201012104003905,159.5566456982422,31.280419104003908Q159.6640056982422,31.359839104003907,159.7673356982422,31.444409104003906Q159.8706556982422,31.528969104003906,159.9697056982422,31.618499104003906Q160.0687456982422,31.708019104003906,160.16326569824218,31.802289104003908Q160.2577756982422,31.896549104003906,160.3475456982422,31.995319104003904Q160.43731569824217,32.09409910400391,160.52211569824217,32.197149104003906Q160.6069056982422,32.300189104003906,160.68653569824218,32.40726910400391Q160.7661656982422,32.51433910400391,160.8404256982422,32.625179104003905Q160.91466569824217,32.73601910400391,160.98336569824218,32.8503691040039Q161.0521656982422,32.96470910400391,161.11516569824218,33.08227910400391Q161.1781656982422,33.19983910400391,161.2352656982422,33.32034910400391Q161.29246569824218,33.440859104003906,161.34356569824217,33.564019104003904Q161.3947656982422,33.6871791040039,161.43976569824218,33.812699104003904Q161.48486569824217,33.9382091040039,161.52366569824218,34.06577910400391Q161.5624656982422,34.19334910400391,161.5948656982422,34.322659104003904Q161.6273656982422,34.45196910400391,161.6534656982422,34.58271910400391Q161.6795656982422,34.713469104003906,161.69916569824218,34.84532910400391Q161.71876569824218,34.97719910400391,161.7318656982422,35.1098591040039Q161.7449656982422,35.24252910400391,161.7515656982422,35.37567910400391Q161.75806569824218,35.508819104003905,161.75806569824218,35.64212910400391Z" fill="#EAEEF9" fill-opacity="1"/></g><g><path d="M167.99998569335938,16.172300375976562Q167.99998569335938,16.354490375976564,167.98208569335938,16.535800375976564Q167.96417569335938,16.717110375976564,167.92853569335938,16.895800375976563Q167.89289569335938,17.074490375976563,167.83986569335937,17.248830375976564Q167.78683569335936,17.42317037597656,167.71692569335937,17.591490375976562Q167.64701569335938,17.759820375976563,167.5609056933594,17.920490375976563Q167.47478569335937,18.081170375976562,167.37329569335938,18.23265037597656Q167.27180569335937,18.384140375976564,167.15591569335936,18.52497037597656Q167.04001569335938,18.665800375976563,166.91084569335936,18.794630375976563Q166.78166569335937,18.92346037597656,166.64045569335937,19.039040375976562Q166.49923569335937,19.154620375976563,166.3473456933594,19.25584037597656Q166.19544569335937,19.357050375976563,166.03433569335937,19.442940375976562Q165.8732256933594,19.52882037597656,165.7044456933594,19.59854037597656Q165.53567569335937,19.668260375976562,165.36085569335938,19.721150375976563Q165.18604569335938,19.77404037597656,165.00686569335937,19.809580375976562Q164.82769569335937,19.845120375976563,164.64589569335936,19.862980375976562Q164.46409569335938,19.88084037597656,164.28141569335938,19.88084037597656Q164.09872569335937,19.88084037597656,163.9169256933594,19.862980375976562Q163.73512569335938,19.845120375976563,163.55595569335938,19.809580375976562Q163.37678569335938,19.77404037597656,163.20196569335937,19.721150375976563Q163.0271456933594,19.668260375976562,162.85837569335936,19.59854037597656Q162.68959569335937,19.52882037597656,162.52848569335939,19.442940375976562Q162.36737569335938,19.357050375976563,162.21548569335937,19.25584037597656Q162.06358569335939,19.154620375976563,161.92237569335938,19.039040375976562Q161.78115569335938,18.92346037597656,161.65198569335936,18.794630375976563Q161.52280569335937,18.665800375976563,161.40691369335937,18.52497037597656Q161.29102169335937,18.384140375976564,161.18952869335936,18.23265037597656Q161.0880356933594,18.081170375976562,161.00192069335938,17.920490375976563Q160.91580469335938,17.759820375976563,160.84589569335938,17.591490375976562Q160.7759856933594,17.42317037597656,160.72295669335938,17.248830375976564Q160.66992669335937,17.074490375976563,160.63428709335938,16.895800375976563Q160.59864759335937,16.717110375976564,160.58074169335939,16.535800375976564Q160.56283569335938,16.354490375976564,160.56283569335938,16.172300375976562Q160.56283569335938,15.990110375976563,160.58074169335939,15.808800375976563Q160.59864759335937,15.627490375976564,160.63428709335938,15.448800375976562Q160.66992669335937,15.270110375976563,160.72295669335938,15.095770375976564Q160.7759856933594,14.921420375976563,160.84589569335938,14.753100375976562Q160.91580469335938,14.584780375976562,161.00192069335938,14.424110375976563Q161.0880356933594,14.263430375976563,161.18952869335936,14.111940375976562Q161.29102169335937,13.960460375976563,161.40691369335937,13.819630375976562Q161.52280569335937,13.678790375976563,161.65198569335936,13.549970375976562Q161.78115569335938,13.421139375976562,161.92237569335938,13.305559375976562Q162.06358569335939,13.189980375976562,162.21548569335937,13.088761375976562Q162.36737569335938,12.987543375976562,162.52848569335939,12.901660375976563Q162.68959569335937,12.815776375976563,162.85837569335936,12.746056375976563Q163.0271456933594,12.676335375976562,163.20196569335937,12.623448375976562Q163.37678569335938,12.570562375976563,163.55595569335938,12.535018875976563Q163.73512569335938,12.499475675976562,163.9169256933594,12.481617975976562Q164.09872569335937,12.463760375976562,164.28141569335938,12.463760375976562Q164.46409569335938,12.463760375976562,164.64589569335936,12.481617975976562Q164.82769569335937,12.499475675976562,165.00686569335937,12.535018875976563Q165.18604569335938,12.570562375976563,165.36085569335938,12.623448375976562Q165.53567569335937,12.676335375976562,165.7044456933594,12.746056375976563Q165.8732256933594,12.815776375976563,166.03433569335937,12.901660375976563Q166.19544569335937,12.987543375976562,166.3473456933594,13.088761375976562Q166.49923569335937,13.189980375976562,166.64045569335937,13.305559375976562Q166.78166569335937,13.421139375976562,166.91084569335936,13.549970375976562Q167.04001569335938,13.678790375976563,167.15591569335936,13.819630375976562Q167.27180569335937,13.960460375976563,167.37329569335938,14.111940375976562Q167.47478569335937,14.263430375976563,167.5609056933594,14.424110375976563Q167.64701569335938,14.584780375976562,167.71692569335937,14.753100375976562Q167.78683569335936,14.921420375976563,167.83986569335937,15.095770375976564Q167.89289569335938,15.270110375976563,167.92853569335938,15.448800375976562Q167.96417569335938,15.627490375976564,167.98208569335938,15.808800375976563Q167.99998569335938,15.990110375976563,167.99998569335938,16.172300375976562Z" fill="#EAEEF9" fill-opacity="1"/></g><g><path d="M33.334382055664065,37.23150447753906Q33.334382055664065,37.41369447753906,33.31648205566406,37.595004477539064Q33.29857205566406,37.77631447753906,33.262932055664066,37.95500447753906Q33.227292055664066,38.133694477539066,33.17426205566406,38.30803447753906Q33.121232055664066,38.48237447753906,33.05132205566406,38.65069447753906Q32.981412055664066,38.81902447753906,32.89530205566406,38.97969447753906Q32.80918205566406,39.14037447753906,32.70769205566406,39.29185447753906Q32.60620205566406,39.443344477539064,32.49031205566406,39.584174477539065Q32.37441205566406,39.72500447753906,32.245242055664065,39.85383447753906Q32.11606205566406,39.98266447753906,31.974852055664062,40.09824447753906Q31.83363205566406,40.21382447753906,31.681742055664063,40.31504447753906Q31.529842055664062,40.41625447753906,31.36873205566406,40.50214447753906Q31.20762205566406,40.588024477539065,31.038842055664063,40.65774447753906Q30.87007205566406,40.727464477539066,30.695252055664064,40.78035447753906Q30.520442055664063,40.83324447753906,30.34126205566406,40.868784477539066Q30.16209205566406,40.90432447753906,29.980292055664062,40.92218447753906Q29.798492055664063,40.94004447753906,29.615812055664062,40.94004447753906Q29.433122055664064,40.94004447753906,29.251322055664062,40.92218447753906Q29.069522055664063,40.90432447753906,28.890352055664064,40.868784477539066Q28.71118205566406,40.83324447753906,28.536362055664064,40.78035447753906Q28.361542055664064,40.727464477539066,28.19277205566406,40.65774447753906Q28.023992055664063,40.588024477539065,27.862882055664063,40.50214447753906Q27.701772055664062,40.41625447753906,27.549882055664064,40.31504447753906Q27.397982055664063,40.21382447753906,27.25677205566406,40.09824447753906Q27.11555205566406,39.98266447753906,26.986382055664063,39.85383447753906Q26.85720205566406,39.72500447753906,26.741310055664062,39.584174477539065Q26.625418055664063,39.443344477539064,26.523925055664062,39.29185447753906Q26.422432055664064,39.14037447753906,26.33631705566406,38.97969447753906Q26.250201055664064,38.81902447753906,26.18029205566406,38.65069447753906Q26.11038205566406,38.48237447753906,26.057353055664063,38.30803447753906Q26.004323055664063,38.133694477539066,25.968683455664063,37.95500447753906Q25.93304395566406,37.77631447753906,25.915138055664062,37.595004477539064Q25.897232055664062,37.41369447753906,25.897232055664062,37.23150447753906Q25.897232055664062,37.04931447753906,25.915138055664062,36.86800447753906Q25.93304395566406,36.68669447753906,25.968683455664063,36.50800447753906Q26.004323055664063,36.329314477539064,26.057353055664063,36.154974477539064Q26.11038205566406,35.98062447753906,26.18029205566406,35.812304477539065Q26.250201055664064,35.643984477539064,26.33631705566406,35.48331447753906Q26.422432055664064,35.32263447753906,26.523925055664062,35.17114447753906Q26.625418055664063,35.01966447753906,26.741310055664062,34.878834477539066Q26.85720205566406,34.73799447753906,26.986382055664063,34.609174477539064Q27.11555205566406,34.480343477539066,27.25677205566406,34.364763477539064Q27.397982055664063,34.24918447753906,27.549882055664064,34.14796547753906Q27.701772055664062,34.046747477539064,27.862882055664063,33.96086447753906Q28.023992055664063,33.87498047753906,28.19277205566406,33.805260477539065Q28.361542055664064,33.735539477539064,28.536362055664064,33.682652477539065Q28.71118205566406,33.629766477539064,28.890352055664064,33.59422297753906Q29.069522055664063,33.55867977753906,29.251322055664062,33.54082207753906Q29.433122055664064,33.52296447753906,29.615812055664062,33.52296447753906Q29.798492055664063,33.52296447753906,29.980292055664062,33.54082207753906Q30.16209205566406,33.55867977753906,30.34126205566406,33.59422297753906Q30.520442055664063,33.629766477539064,30.695252055664064,33.682652477539065Q30.87007205566406,33.735539477539064,31.038842055664063,33.805260477539065Q31.20762205566406,33.87498047753906,31.36873205566406,33.96086447753906Q31.529842055664062,34.046747477539064,31.681742055664063,34.14796547753906Q31.83363205566406,34.24918447753906,31.974852055664062,34.364763477539064Q32.11606205566406,34.480343477539066,32.245242055664065,34.609174477539064Q32.37441205566406,34.73799447753906,32.49031205566406,34.878834477539066Q32.60620205566406,35.01966447753906,32.70769205566406,35.17114447753906Q32.80918205566406,35.32263447753906,32.89530205566406,35.48331447753906Q32.981412055664066,35.643984477539064,33.05132205566406,35.812304477539065Q33.121232055664066,35.98062447753906,33.17426205566406,36.154974477539064Q33.227292055664066,36.329314477539064,33.262932055664066,36.50800447753906Q33.29857205566406,36.68669447753906,33.31648205566406,36.86800447753906Q33.334382055664065,37.04931447753906,33.334382055664065,37.23150447753906Z" fill="#EAEEF9" fill-opacity="1"/></g><g><path d="M13.8119,105.57723140625001Q13.8119,105.74630140625,13.8035,105.91517140625Q13.7952,106.08404140625,13.7786,106.25230140625Q13.762,106.42056140625,13.7371,106.58780140625Q13.7122,106.75504140625,13.6792,106.92087140625Q13.6461,107.08669140625,13.6049,107.25070140625Q13.5637,107.41471140625,13.5145,107.57650140625Q13.4653,107.73829140625,13.4082,107.89748140625Q13.351,108.05667140625,13.2862,108.21288140625Q13.2213,108.36908140625,13.1488,108.52192140625Q13.0763,108.67476140625,12.9964,108.82384140625Q12.9165,108.97294140625,12.8293,109.11804140625Q12.7422,109.26304140625,12.648,109.40364140625Q12.5538,109.54414140625,12.4528,109.67994140625Q12.3518,109.81574140625,12.2443,109.94644140625Q12.1367,110.07714140625,12.0229,110.20244140625Q11.909,110.32774140625,11.7892,110.44724140625Q11.6693,110.56684140625,11.5437,110.68034140625Q11.4181,110.79394140625,11.287,110.90114140625Q11.156,111.00844140625,11.0198,111.10914140625Q10.8836,111.20984140625,10.7427,111.30384140625Q10.6017,111.39774140625,10.4563,111.48464140625Q10.3109,111.57154140625,10.1614,111.65124140625Q10.0118,111.73094140625,9.85859,111.80324140625Q9.70534,111.87554140625,9.54871,111.94024140625Q9.39208,112.00494140625,9.23246,112.06194140625Q9.07284,112.11884140625,8.91061,112.16794140625Q8.74838,112.21704140625,8.58393,112.25814140625Q8.41948,112.29914140625,8.25321,112.33214140625Q8.08693,112.36514140625,7.91924,112.38994140625Q7.75154,112.41474140625,7.58283,112.43134140625Q7.41411,112.44794140625,7.24479,112.45624140625Q7.07546,112.46454140624999,6.90593,112.46454140624999Q6.7364,112.46454140624999,6.56707,112.45624140625Q6.39774,112.44794140625,6.22903,112.43134140625Q6.06031,112.41474140625,5.89262,112.38994140625Q5.72492,112.36514140625,5.55865,112.33214140625Q5.39237,112.29914140625,5.22792,112.25814140625Q5.06347,112.21704140625,4.90124,112.16794140625Q4.73901,112.11884140625,4.57939,112.06194140625Q4.41977,112.00494140625,4.26314,111.94024140625Q4.10652,111.87554140625,3.95326,111.80324140625Q3.80001,111.73094140625,3.6505,111.65124140625Q3.50098,111.57154140625,3.35557,111.48464140625Q3.21016,111.39774140625,3.0692,111.30384140625Q2.92824,111.20984140625,2.79207,111.10914140625Q2.6559,111.00844140625,2.52485,110.90114140625Q2.3938,110.79394140625,2.26819,110.68034140625Q2.14258,110.56684140625,2.0227,110.44724140625Q1.90282,110.32774140625,1.78897,110.20244140625Q1.67512,110.07714140625,1.56757,109.94644140625Q1.46002,109.81574140625,1.35903,109.67994140625Q1.25805,109.54414140625,1.16386,109.40364140625Q1.06967,109.26304140625,0.982516,109.11804140625Q0.89536,108.97294140625,0.815443,108.82384140625Q0.735527,108.67476140625,0.663043,108.52192140625Q0.590559,108.36908140625,0.525682,108.21288140625Q0.460806,108.05667140625,0.403692,107.89748140625Q0.346579,107.73829140625,0.297367,107.57650140625Q0.248155,107.41471140625,0.206962,107.25070140625Q0.165769,107.08669140625,0.132695,106.92087140625Q0.0996216,106.75504140625,0.0747462,106.58780140625Q0.0498709,106.42056140625,0.0332539,106.25230140625Q0.016637,106.08404140625,0.00831849,105.91517140625Q0,105.74630140625,0,105.57723140625001Q0,105.40815140625,0.00831849,105.23928140625Q0.016637,105.07041140625,0.0332539,104.90215140625Q0.0498709,104.73389140625,0.0747462,104.56665140625Q0.0996216,104.39941140625,0.132695,104.23358140625Q0.165769,104.06776140625,0.206962,103.90375140625Q0.248155,103.73975140625,0.297367,103.57795140625Q0.346579,103.41616140625,0.403692,103.25697140625Q0.460806,103.09778140625,0.525682,102.94158140625Q0.590559,102.78537140625,0.663043,102.63253140625Q0.735527,102.47969140625,0.815443,102.33058140625Q0.89536,102.18147140625,0.982516,102.03645140625Q1.06967,101.89143140625,1.16386,101.75085140625Q1.25805,101.61028140625,1.35903,101.47447140625Q1.46002,101.33867140625,1.56757,101.20798140625Q1.67512,101.07728140625,1.78897,100.95201140625Q1.90282,100.82673140625,2.0227,100.70718140625Q2.14258,100.58763140625,2.26819,100.47408140625Q2.3938,100.36054140625,2.52485,100.25328140625Q2.6559,100.14602140625,2.79207,100.04531140625Q2.92824,99.94459140625,3.0692,99.85066140625Q3.21016,99.75672140625,3.35557,99.66980540625Q3.50098,99.58288440625,3.6505,99.50318340625Q3.80001,99.42348240625,3.95326,99.35119440625Q4.10652,99.27890640625,4.26314,99.21420440625Q4.41977,99.14950340625,4.57939,99.09254440625Q4.73901,99.03558540625,4.90124,98.98650540625Q5.06347,98.93742640625,5.22792,98.89634440625Q5.39237,98.85526340625,5.55865,98.82227840625Q5.72492,98.78929410625,5.89262,98.76448590625Q6.06031,98.73967760625,6.22903,98.72310560625Q6.39774,98.70653350625,6.56707,98.69823744625Q6.7364,98.68994140625,6.90593,98.68994140625Q7.07546,98.68994140625,7.24479,98.69823744625Q7.41411,98.70653350625,7.58283,98.72310560625Q7.75154,98.73967760625,7.91924,98.76448590625Q8.08693,98.78929410625,8.25321,98.82227840625Q8.41948,98.85526340625,8.58393,98.89634440625Q8.74838,98.93742640625,8.91061,98.98650540625Q9.07284,99.03558540625,9.23246,99.09254440625Q9.39208,99.14950340625,9.54871,99.21420440625Q9.70534,99.27890640625,9.85859,99.35119440625Q10.0118,99.42348240625,10.1614,99.50318340625Q10.3109,99.58288440625,10.4563,99.66980540625Q10.6017,99.75672140625,10.7427,99.85066140625Q10.8836,99.94459140625,11.0198,100.04531140625Q11.156,100.14602140625,11.287,100.25328140625Q11.4181,100.36054140625,11.5437,100.47408140625Q11.6693,100.58763140625,11.7892,100.70718140625Q11.909,100.82673140625,12.0229,100.95201140625Q12.1367,101.07728140625,12.2443,101.20798140625Q12.3518,101.33867140625,12.4528,101.47447140625Q12.5538,101.61028140625,12.648,101.75085140625Q12.7422,101.89143140625,12.8293,102.03645140625Q12.9165,102.18147140625,12.9964,102.33058140625Q13.0763,102.47969140625,13.1488,102.63253140625Q13.2213,102.78537140625,13.2862,102.94158140625Q13.351,103.09778140625,13.4082,103.25697140625Q13.4653,103.41616140625,13.5145,103.57795140625Q13.5637,103.73975140625,13.6049,103.90375140625Q13.6461,104.06776140625,13.6792,104.23358140625Q13.7122,104.39941140625,13.7371,104.56665140625Q13.762,104.73389140625,13.7786,104.90215140625Q13.7952,105.07041140625,13.8035,105.23928140625Q13.8119,105.40815140625,13.8119,105.57723140625001Z" fill="#EAEEF9" fill-opacity="1"/></g><g filter="url(#master_svg0_35_318)"><path d="M139.1809985107422,51.535903814697264L140.2434985107422,136.83500381469725C140.2434985107422,139.74900381469726,137.85299851074217,142.00000381469727,134.9311985107422,142.00000381469727L51.528848510742186,142.00000381469727C48.60710851074219,142.00000381469727,46.21659851074219,139.61600381469725,46.21659851074219,136.83500381469725L46.21659851074219,27.165473814697265C46.21659851074219,24.251613814697265,48.60710851074219,22.000003814697266,51.528848510742186,22.000003814697266L111.95569851074218,22.000003814697266L139.1809985107422,51.535903814697264Z" fill="url(#master_svg1__054548)" fill-opacity="1"/></g><g><path d="M86.85529776611328,124.91462056884765L70.52015776611329,124.91462056884765C69.85612276611329,124.91462056884765,69.32489776611328,124.25238056884766,69.32489776611328,123.45770056884766C69.32489776611328,122.66300956884766,69.85612276611329,122.00077056884766,70.52015776611329,122.00077056884766L86.85529776611328,122.00077056884766C87.51939776611329,122.00077056884766,88.05059776611328,122.66300956884766,88.05059776611328,123.45770056884766C88.05059776611328,124.38483056884766,87.51939776611329,124.91462056884765,86.85529776611328,124.91462056884765Z" fill="#D5DDEA" fill-opacity="1"/></g><g><path d="M77.55888117675781,124.91462056884765L59.76284117675781,124.91462056884765C59.09880617675781,124.91462056884765,58.56758117675781,124.25238056884766,58.56758117675781,123.45770056884766C58.56758117675781,122.66300956884766,59.09880617675781,122.00077056884766,59.76284117675781,122.00077056884766L77.55888117675781,122.00077056884766C78.22288117675781,122.00077056884766,78.75418117675781,122.66300956884766,78.75418117675781,123.45770056884766C78.75418117675781,124.38483056884766,78.22288117675781,124.91462056884765,77.55888117675781,124.91462056884765Z" fill="#D5DDEA" fill-opacity="1"/></g><g><path d="M100.26878117675781,39.88178086914063L60.294061176757815,39.88178086914063C59.36441917675781,39.88178086914063,58.56758117675781,39.08710086914063,58.56758117675781,38.159960869140626C58.56758117675781,37.23282786914063,59.36441917675781,36.438140869140625,60.294061176757815,36.438140869140625L100.26878117675781,36.438140869140625C101.1983811767578,36.438140869140625,101.99528117675781,37.23282786914063,101.99528117675781,38.159960869140626C101.99528117675781,39.08710086914063,101.1983811767578,39.88178086914063,100.26878117675781,39.88178086914063Z" fill="#D5DDEA" fill-opacity="1"/></g><g><path d="M75.69958117675782,49.41802430786133L60.294061176757815,49.41802430786133C59.36441917675781,49.41802430786133,58.56758117675781,48.62334430786133,58.56758117675781,47.69620430786133C58.56758117675781,46.76907130786133,59.36441917675781,45.97438430786133,60.294061176757815,45.97438430786133L75.56678117675781,45.97438430786133C76.49648117675781,45.97438430786133,77.29328117675782,46.76907130786133,77.29328117675782,47.69620430786133C77.29328117675782,48.62334430786133,76.49648117675781,49.41802430786133,75.69958117675782,49.41802430786133Z" fill="#D5DDEA" fill-opacity="1"/></g><g><path d="M111.95572662353516,22.000003814697266L111.95572662353516,45.57570381469726C111.95572662353516,48.88690381469726,114.87746662353516,51.535903814697264,118.19762662353516,51.535903814697264L139.18102662353516,51.535903814697264" fill="#D5DDEA" fill-opacity="1"/></g><g><path d="M127.31076787719726,101.98789978027344L81.23226787719727,101.98789978027344L76.15376787719727,101.98789978027344L60.793417877197264,101.98789978027344C60.17454487719726,101.98789978027344,59.555667877197266,102.61040478027344,59.555667877197266,103.48455978027344C59.555667877197266,104.22626978027344,60.051035877197265,104.96797978027344,60.793417877197264,104.96797978027344L76.15376787719727,104.96797978027344L81.23226787719727,104.96797978027344L127.31076787719726,104.96797978027344C127.92966787719726,104.96797978027344,128.54986787719727,104.34546978027343,128.54986787719727,103.48455978027344C128.42506787719725,102.61040478027344,127.92966787719726,101.98789978027344,127.31076787719726,101.98789978027344Z" fill="#D5DDEA" fill-opacity="1"/></g><g><path d="M127.18726787719727,91.21988677978516L110.09376787719727,91.21988677978516L104.27156787719727,91.21988677978516L60.793417877197264,91.21988677978516C60.17454487719726,91.21988677978516,59.555667877197266,91.84239177978516,59.555667877197266,92.70330677978515C59.555667877197266,93.44500677978516,60.051035877197265,94.18671677978516,60.793417877197264,94.18671677978516L104.27156787719727,94.18671677978516L110.09376787719727,94.18671677978516L127.18726787719727,94.18671677978516C127.80616787719727,94.18671677978516,128.42506787719725,93.57745677978515,128.42506787719725,92.70330677978515C128.30156787719727,91.84239177978516,127.80616787719727,91.21988677978516,127.18726787719727,91.21988677978516Z" fill="#D5DDEA" fill-opacity="1"/></g><g><path d="M127.55776787719726,80.33267974853516L123.09946787719727,80.33267974853516L118.63986787719728,80.33267974853516L60.793417877197264,80.33267974853516C60.17454487719726,80.33267974853516,59.555667877197266,80.94193974853516,59.555667877197266,81.81609974853515C59.555667877197266,82.55779974853516,60.051035877197265,83.29950974853516,60.793417877197264,83.29950974853516L118.63986787719728,83.29950974853516L123.59486787719726,83.29950974853516L127.43426787719727,83.29950974853516C128.05446787719728,83.29950974853516,128.67336787719728,82.67700974853516,128.67336787719728,81.81609974853515C128.79686787719726,81.07438774853516,128.17806787719726,80.33267974853516,127.55776787719726,80.33267974853516Z" fill="#D5DDEA" fill-opacity="1"/></g><g><path d="M79.00246787719726,126.01393925292969L60.793417877197264,126.01393925292969C60.17454487719726,126.01393925292969,59.555667877197266,125.39142925292968,59.555667877197266,124.51727925292968C59.555667877197266,123.77556725292969,60.051035877197265,123.03385925292969,60.793417877197264,123.03385925292969L79.00246787719726,123.03385925292969C79.62136787719726,123.03385925292969,80.24156787719727,123.65636425292969,80.24156787719727,124.51727925292968C80.24156787719727,125.51062925292969,79.62136787719726,126.01393925292969,79.00246787719726,126.01393925292969Z" fill="#E3EAF2" fill-opacity="1"/></g><g><path d="M128.05446787719728,69.55804443359375L113.56136787719726,69.55804443359375L109.96896787719726,69.55804443359375L60.793417877197264,69.55804443359375C60.17454487719726,69.55804443359375,59.555667877197266,70.17392643359375,59.555667877197266,71.04808443359374C59.555667877197266,71.78979443359376,60.051035877197265,72.53149443359375,60.793417877197264,72.53149443359375L109.96896787719726,72.53149443359375L113.56136787719726,72.53149443359375L127.92966787719726,72.53149443359375C128.79686787719726,72.53149443359375,129.29226787719728,71.90899443359375,129.29226787719728,71.04808443359374C129.29226787719728,70.30637443359375,128.79686787719726,69.55804443359375,128.05446787719728,69.55804443359375Z" fill="#D5DDEA" fill-opacity="1"/></g><g><path d="M32.55215897033691,132.5700843383789L61.78552897033691,132.5700843383789C64.8812289703369,132.5700843383789,67.48282897033691,129.9740843383789,67.35932897033692,126.8748843383789L67.35932897033692,86.26638433837891C67.35932897033692,75.1274743383789,58.19302897033691,65.9673843383789,47.04402897033691,65.9673843383789C35.89621897033692,65.9673843383789,26.729928970336914,75.00827433837891,26.729928970336914,86.26638433837891L26.729928970336914,126.7556843383789C26.729928970336914,129.9740843383789,29.331608970336916,132.5700843383789,32.55215897033691,132.5700843383789ZM55.963228970336914,121.06038433837891L38.374428970336915,121.06038433837891L38.374428970336915,86.26638433837891C38.374428970336915,81.44528433837891,42.33732897033691,77.48508433837891,47.16882897033692,77.48508433837891C51.999028970336916,77.48508433837891,55.963228970336914,81.44528433837891,55.963228970336914,86.26638433837891L55.963228970336914,121.06038433837891Z" fill-rule="evenodd" fill="#989FB0" fill-opacity="1"/></g><g><path d="M73.80048242797852,143.58972454833986L20.909022427978517,143.58972454833986C17.316612427978516,143.58972454833986,14.343082427978516,140.62292454833985,14.343082427978516,137.02032454833983L14.343082427978516,101.98789454833984C14.343082427978516,98.39855454833985,17.316612427978516,95.43172454833984,20.909022427978517,95.43172454833984L73.80048242797852,95.43172454833984C77.3915824279785,95.43172454833984,80.36508242797852,98.39855454833985,80.36508242797852,101.98789454833984L80.36508242797852,137.02032454833983C80.36508242797852,140.62292454833985,77.3915824279785,143.58972454833986,73.80048242797852,143.58972454833986Z" fill="#C2C8D6" fill-opacity="1"/></g><g><path d="M53.98180227050781,114.12011029541016C53.98180227050781,116.72933029541015,52.49440227050781,118.95444029541015,50.38937227050781,120.06704029541015L50.38937227050781,127.24564029541015C50.38937227050781,128.98074029541016,49.02678227050781,130.34494029541017,47.29233227050781,130.34494029541017C45.55788227050781,130.34494029541017,44.19528227050781,128.98074029541016,44.19528227050781,127.24564029541015L44.19528227050781,120.06704029541015C42.09030227050781,118.95444029541015,40.60420227050781,116.72933029541015,40.60420227050781,114.12011029541016C40.60420227050781,110.41157029541016,43.57641227050781,107.44474029541016,47.29233227050781,107.44474029541016C51.00820227050781,107.44474029541016,53.98180227050781,110.41157029541016,53.98180227050781,114.12011029541016Z" fill="#989FB0" fill-opacity="1"/></g></g></svg>