<svg xmlns="http://www.w3.org/2000/svg" xmlns:xlink="http://www.w3.org/1999/xlink" fill="none" version="1.1" width="400" height="220.9871826171875" viewBox="0 0 400 220.9871826171875"><defs><filter id="master_svg0_35_034" filterUnits="objectBoundingBox" color-interpolation-filters="sRGB" x="-0.7458787905320514" y="-0.8734900537821154" width="2.491757581064103" height="3.329306810085641"><feFlood flood-opacity="0" result="BackgroundImageFix"/><feColorMatrix in="SourceAlpha" type="matrix" values="0 0 0 0 0 0 0 0 0 0 0 0 0 0 0 0 0 0 127 0"/><feOffset dy="11" dx="0"/><feGaussianBlur stdDeviation="11"/><feColorMatrix type="matrix" values="0 0 0 0 0.3960784375667572 0 0 0 0 0.47843137383461 0 0 0 0 0.5764706134796143 0 0 0 0.27000001072883606 0"/><feBlend mode="normal" in2="BackgroundImageFix" result="effect1_dropShadow"/><feBlend mode="normal" in="SourceGraphic" in2="effect1_dropShadow" result="shape"/></filter><linearGradient x1="0.4996841251850128" y1="-0.02316455729305744" x2="0.4996841251850128" y2="1.0107594728469849" id="master_svg1__054548"><stop offset="0%" stop-color="#FDFEFF" stop-opacity="1"/><stop offset="99.6399998664856%" stop-color="#ECF0F5" stop-opacity="1"/></linearGradient><linearGradient x1="-0.053193528205156326" y1="-0.1076166108250618" x2="0.38986093991885723" y2="0.3796086611741911" id="master_svg2__055261"><stop offset="0%" stop-color="#BCCBE1" stop-opacity="1"/><stop offset="99.41999912261963%" stop-color="#FFFFFF" stop-opacity="0"/></linearGradient><linearGradient x1="-0.046832550317049026" y1="0.27057358622550964" x2="0.3454172018034965" y2="0.42523107081062694" id="master_svg3_3_81"><stop offset="0%" stop-color="#E2E8F0" stop-opacity="1"/><stop offset="99.41999912261963%" stop-color="#FFFFFF" stop-opacity="0"/></linearGradient><filter id="master_svg4_35_014" filterUnits="objectBoundingBox" color-interpolation-filters="sRGB" x="-0.9895355418132646" y="-1.15884789186384" width="2.979071083626529" height="4.09026104497024"><feFlood flood-opacity="0" result="BackgroundImageFix"/><feColorMatrix in="SourceAlpha" type="matrix" values="0 0 0 0 0 0 0 0 0 0 0 0 0 0 0 0 0 0 127 0"/><feOffset dy="11" dx="0"/><feGaussianBlur stdDeviation="11"/><feColorMatrix type="matrix" values="0 0 0 0 0.3960784375667572 0 0 0 0 0.47843137383461 0 0 0 0 0.5764706134796143 0 0 0 0.27000001072883606 0"/><feBlend mode="normal" in2="BackgroundImageFix" result="effect1_dropShadow"/><feBlend mode="normal" in="SourceGraphic" in2="effect1_dropShadow" result="shape"/></filter><linearGradient x1="0.4996841251850128" y1="-0.02316455729305744" x2="0.4996841251850128" y2="1.0107594728469849" id="master_svg5__054548"><stop offset="0%" stop-color="#FDFEFF" stop-opacity="1"/><stop offset="99.6399998664856%" stop-color="#ECF0F5" stop-opacity="1"/></linearGradient><linearGradient x1="-0.053230006247758865" y1="-0.10764110833406448" x2="0.38988113102819777" y2="0.37961370542858613" id="master_svg6_3_002"><stop offset="0%" stop-color="#BCCBE1" stop-opacity="1"/><stop offset="99.41999912261963%" stop-color="#FFFFFF" stop-opacity="0"/></linearGradient><linearGradient x1="-0.04682202637195587" y1="0.27055826783180237" x2="0.345406691681596" y2="0.42524338561749464" id="master_svg7__055265"><stop offset="0%" stop-color="#E2E8F0" stop-opacity="1"/><stop offset="99.41999912261963%" stop-color="#FFFFFF" stop-opacity="0"/></linearGradient></defs><g><g><path d="M179.82748997497558,89.16360045776368Q179.82748997497558,91.09420045776368,179.73348997497558,93.02240045776367Q179.63848997497558,94.95070045776367,179.4494899749756,96.87200045776368Q179.26148997497558,98.79330045776368,178.9784899749756,100.70300045776368Q178.69548997497557,102.61270045776367,178.32048997497557,104.50620045776367Q177.9444899749756,106.39970045776367,177.47648997497558,108.27240045776367Q177.0084899749756,110.14520045776368,176.4494899749756,111.99300045776367Q175.8904899749756,113.84000045776367,175.2414899749756,115.65800045776368Q174.5924899749756,117.47600045776367,173.8554899749756,119.25900045776368Q173.11848997497557,121.04300045776367,172.2954899749756,122.78800045776367Q171.47148997497558,124.53300045776368,170.56448997497557,126.23600045776367Q169.65648997497559,127.93900045776367,168.66648997497558,129.59400045776368Q167.6764899749756,131.2500004577637,166.60648997497557,132.85600045776368Q165.53648997497558,134.46100045776367,164.38848997497558,136.0120004577637Q163.2414899749756,137.56200045776367,162.01948997497558,139.05500045776367Q160.79848997497558,140.54700045776366,159.5044899749756,141.97700045776367Q158.2114899749756,143.40800045776368,156.8494899749756,144.77300045776366Q155.48748997497557,146.13800045776367,154.06048997497558,147.43500045776366Q152.6334899749756,148.73100045776368,151.1454899749756,149.95600045776368Q149.65648997497559,151.18100045776367,148.1094899749756,152.33100045776368Q146.5624899749756,153.48100045776368,144.9614899749756,154.55300045776366Q143.3604899749756,155.62600045776367,141.70848997497558,156.61800045776369Q140.0564899749756,157.61100045776368,138.35748997497558,158.52100045776368Q136.6594899749756,159.43100045776367,134.91848997497559,160.25700045776367Q133.17748997497557,161.08200045776368,131.39848997497558,161.82100045776366Q129.6184899749756,162.56000045776366,127.80548997497559,163.21000045776367Q125.99248997497558,163.86000045776368,124.14948997497558,164.42100045776368Q122.30628997497558,164.98100045776368,120.43818997497559,165.45000045776368Q118.56998997497558,165.91900045776367,116.68118997497558,166.29600045776368Q114.79228997497559,166.67300045776366,112.88718997497558,166.95600045776368Q110.98218997497558,167.23900045776367,109.06558997497558,167.42800045776366Q107.14898997497559,167.61800045776369,105.22548997497559,167.71200045776368Q103.30188997497558,167.80700045776368,101.37598997497558,167.80700045776368Q99.45018997497559,167.80700045776368,97.52658997497558,167.71200045776368Q95.60298997497559,167.61800045776369,93.68638997497558,167.42800045776366Q91.76978997497558,167.23900045776367,89.86478997497558,166.95600045776368Q87.95978997497559,166.67300045776366,86.07088997497559,166.29600045776368Q84.18198997497558,165.91900045776367,82.31388997497558,165.45000045776368Q80.44568997497558,164.98100045776368,78.6027899749756,164.42100045776368Q76.75978997497558,163.86000045776368,74.94648997497558,163.21000045776367Q73.13318997497558,162.56000045776366,71.35388997497559,161.82100045776366Q69.57468997497558,161.08200045776368,67.83368997497558,160.25700045776367Q66.09268997497558,159.43100045776367,64.39418997497559,158.52100045776368Q62.69578997497558,157.61100045776368,61.043889974975585,156.61800045776369Q59.39198997497559,155.62600045776367,57.790689974975585,154.55300045776366Q56.18938997497558,153.48100045776368,54.64248997497559,152.33100045776368Q53.09558997497558,151.18100045776367,51.60688997497559,149.95600045776368Q50.118189974975586,148.73100045776368,48.691189974975586,147.43500045776366Q47.26418997497559,146.13800045776367,45.90238997497559,144.77300045776366Q44.54058997497559,143.40800045776368,43.24728997497559,141.97700045776367Q41.95388997497558,140.54700045776366,40.73218997497558,139.05500045776367Q39.51038997497558,137.56200045776367,38.36318997497558,136.0120004577637Q37.21588997497558,134.46100045776367,36.145989974975585,132.85600045776368Q35.075989974975585,131.2500004577637,34.085889974975586,129.59400045776368Q33.09578997497559,127.93900045776367,32.18794997497559,126.23600045776367Q31.280099974975585,124.53300045776368,30.456679974975586,122.78800045776367Q29.633259974975587,121.04300045776367,28.896259974975585,119.25900045776368Q28.159259974975587,117.47600045776367,27.510449974975586,115.65800045776368Q26.861639974975585,113.84000045776367,26.302589974975586,111.99300045776367Q25.743529974975587,110.14520045776368,25.275579974975585,108.27240045776367Q24.807629974975587,106.39970045776367,24.431909974975586,104.50620045776367Q24.056189974975585,102.61270045776367,23.773608974975588,100.70300045776368Q23.491023974975587,98.79330045776368,23.302255974975587,96.87200045776368Q23.113486974975586,94.95070045776367,23.018988274975587,93.02240045776367Q22.924489974975586,91.09420045776368,22.924489974975586,89.16360045776368Q22.924489974975586,87.23300045776367,23.018988274975587,85.30470045776367Q23.113486974975586,83.37650045776367,23.302255974975587,81.45520045776367Q23.491023974975587,79.53390045776368,23.773608974975588,77.62420045776368Q24.056189974975585,75.71450045776368,24.431909974975586,73.82100045776367Q24.807629974975587,71.92750045776367,25.275579974975585,70.05480045776366Q25.743529974975587,68.18200045776368,26.302589974975586,66.33460045776367Q26.861639974975585,64.48710045776367,27.510449974975586,62.66940045776367Q28.159259974975587,60.85160045776367,28.896259974975585,59.068000457763674Q29.633259974975587,57.284400457763674,30.456679974975586,55.53910045776367Q31.280099974975585,53.79390045776367,32.18794997497559,52.09130045776367Q33.09578997497559,50.38860045776367,34.085889974975586,48.73270045776367Q35.075989974975585,47.076800457763675,36.145989974975585,45.47160045776367Q37.21588997497558,43.86630045776367,38.36318997497558,42.31570045776367Q39.51038997497558,40.765000457763676,40.73218997497558,39.27260045776367Q41.95388997497558,37.78030045776367,43.24728997497559,36.34980045776367Q44.54058997497559,34.91930045776367,45.90238997497559,33.55420045776367Q47.26418997497559,32.18900045776367,48.691189974975586,30.89250045776367Q50.118189974975586,29.596000457763672,51.60688997497559,28.37130045776367Q53.09558997497558,27.146500457763672,54.64248997497559,25.996500457763673Q56.18938997497558,24.84640045776367,57.790689974975585,23.77380045776367Q59.39198997497559,22.701300457763672,61.043889974975585,21.708700457763673Q62.69578997497558,20.71620045776367,64.39418997497559,19.80614045776367Q66.09268997497558,18.896060457763674,67.83368997497558,18.07063045776367Q69.57468997497558,17.24519045776367,71.35388997497559,16.506390457763672Q73.13318997497558,15.767580457763671,74.94648997497558,15.117180457763672Q76.75978997497558,14.466790457763672,78.6027899749756,13.906370457763671Q80.44568997497558,13.345940457763671,82.31388997497558,12.876850457763672Q84.18198997497558,12.407750457763672,86.07088997497559,12.031110457763672Q87.95978997497559,11.654470457763672,89.86478997497558,11.371198457763672Q91.76978997497558,11.087921457763672,93.68638997497558,10.898690457763673Q95.60298997497559,10.709459457763671,97.52658997497558,10.614730057763673Q99.45018997497559,10.520000457763672,101.37598997497558,10.520000457763672Q103.30188997497558,10.520000457763672,105.22548997497559,10.614730057763673Q107.14898997497559,10.709459457763671,109.06558997497558,10.898690457763673Q110.98218997497558,11.087921457763672,112.88718997497558,11.371198457763672Q114.79228997497559,11.654470457763672,116.68108997497559,12.031110457763672Q118.56998997497558,12.407750457763672,120.43818997497559,12.876850457763672Q122.30628997497558,13.345950457763673,124.14948997497558,13.906370457763671Q125.99248997497558,14.466790457763672,127.80548997497559,15.117180457763672Q129.6184899749756,15.767580457763671,131.39848997497558,16.506390457763672Q133.17748997497557,17.24519045776367,134.91848997497559,18.07063045776367Q136.6594899749756,18.896060457763674,138.35748997497558,19.80614045776367Q140.0564899749756,20.71620045776367,141.70848997497558,21.708700457763673Q143.3604899749756,22.701300457763672,144.9614899749756,23.77380045776367Q146.5624899749756,24.84640045776367,148.1094899749756,25.996500457763673Q149.65648997497559,27.146500457763672,151.1454899749756,28.37130045776367Q152.6334899749756,29.596000457763672,154.06048997497558,30.89250045776367Q155.48748997497557,32.18900045776367,156.8494899749756,33.55420045776367Q158.2114899749756,34.91930045776367,159.5044899749756,36.34980045776367Q160.79848997497558,37.78030045776367,162.01948997497558,39.27260045776367Q163.2414899749756,40.765000457763676,164.38848997497558,42.31570045776367Q165.53648997497558,43.86630045776367,166.60648997497557,45.471500457763675Q167.6764899749756,47.076800457763675,168.66648997497558,48.73270045776367Q169.65648997497559,50.38860045776367,170.56448997497557,52.09130045776367Q171.47148997497558,53.79390045776367,172.2954899749756,55.53910045776367Q173.11848997497557,57.284400457763674,173.8554899749756,59.068000457763674Q174.5924899749756,60.85160045776367,175.2414899749756,62.66940045776367Q175.8904899749756,64.48710045776367,176.4494899749756,66.33460045776367Q177.0084899749756,68.18200045776368,177.47648997497558,70.05480045776366Q177.9444899749756,71.92750045776367,178.32048997497557,73.82100045776367Q178.69548997497557,75.71450045776368,178.9784899749756,77.62420045776368Q179.26148997497558,79.53390045776368,179.4494899749756,81.45520045776367Q179.63848997497558,83.37650045776367,179.73348997497558,85.30470045776367Q179.82748997497558,87.23300045776367,179.82748997497558,89.16360045776368Z" fill="#EFF3FA" fill-opacity="1"/></g><g><path d="M388.07981592559815,175.468L15.690815925598145,175.468L73.66321592559814,97.4369L98.52351592559815,64.3446L120.22481592559815,87.9385L124.40181592559814,92.4318L171.06481592559814,27.679L191.03481592559814,0L206.62281592559813,22.7764L259.70481592559815,100.296L281.10081592559817,75.7836L292.0018159255981,63.2215L301.27381592559817,74.3539L388.07981592559815,175.468Z" fill="#D9E0EC" fill-opacity="1"/></g><g><path d="M98.52351592559815,64.34564971923828L97.50411592559814,175.4676497192383L15.690815925598145,175.4676497192383L73.66321592559814,97.43694971923827L98.52351592559815,64.34564971923828Z" fill="#E8EDF8" fill-opacity="1"/></g><g><path d="M191.03473857421875,0L187.67243857421875,163.825L124.40203857421875,92.4318L191.03473857421875,0Z" fill="#E8EDF8" fill-opacity="1"/></g><g><path d="M293.93780864257815,159.43284235839843L259.7051086425781,100.29644235839844L292.0020086425781,63.22154235839844L293.93780864257815,159.43284235839843Z" fill="#E8EDF8" fill-opacity="1"/></g><g><path d="M388.08,176.9676997607422L400,176.9676997607422L400,173.9677007607422L0,173.9677007607422L0,176.9676997607422L388.08,176.9676997607422Z" fill-rule="evenodd" fill="#CDD6E1" fill-opacity="1"/></g><g><path d="M236.1694172607422,193.51333879882813L210.2908172607422,193.51333879882813L210.2908172607422,190.51333979882813L236.1694172607422,190.51333979882813L236.1694172607422,193.51333879882813Z" fill-rule="evenodd" fill="#CDD6E1" fill-opacity="1"/></g><g><path d="M307.4887989746094,193.51333879882813L281.6101989746094,193.51333879882813L281.6101989746094,190.51333979882813L307.4887989746094,190.51333979882813L307.4887989746094,193.51333879882813Z" fill-rule="evenodd" fill="#CDD6E1" fill-opacity="1"/></g><g><path d="M271.3194098925781,193.51333879882813L265.8183898925781,193.51333879882813L265.8183898925781,190.51333979882813L271.3194098925781,190.51333979882813L271.3194098925781,193.51333879882813Z" fill-rule="evenodd" fill="#CDD6E1" fill-opacity="1"/></g><g><path d="M186.65305177001954,193.51333879882813L93.93775177001953,193.51333879882813L93.93775177001953,190.51333979882813L186.65305177001954,190.51333979882813L186.65305177001954,193.51333879882813Z" fill-rule="evenodd" fill="#CDD6E1" fill-opacity="1"/></g><g><path d="M66.5315852783203,193.51333879882813L54.81428527832031,193.51333879882813L54.81428527832031,190.51333979882813L66.5315852783203,190.51333979882813L66.5315852783203,193.51333879882813Z" fill-rule="evenodd" fill="#CDD6E1" fill-opacity="1"/></g><g><path d="M385.22657412109373,193.51333879882813L352.62347412109375,193.51333879882813L352.62347412109375,190.51333979882813L385.22657412109373,190.51333979882813L385.22657412109373,193.51333879882813Z" fill-rule="evenodd" fill="#CDD6E1" fill-opacity="1"/></g><g><path d="M37.086699618530275,193.51333879882813L5.399999618530273,193.51333879882813L5.399999618530273,190.51333979882813L37.086699618530275,190.51333979882813L37.086699618530275,193.51333879882813Z" fill-rule="evenodd" fill="#CDD6E1" fill-opacity="1"/></g><g><path d="M133.06236738586426,207.3010280078125L30.668367385864258,207.3010280078125L30.668367385864258,204.3010290078125L133.06236738586426,204.3010290078125L133.06236738586426,207.3010280078125Z" fill-rule="evenodd" fill="#CDD6E1" fill-opacity="1"/></g><g><path d="M265.81833452148436,207.3010280078125L193.58163452148438,207.3010280078125L193.58163452148438,204.3010290078125L265.81833452148436,204.3010290078125L265.81833452148436,207.3010280078125Z" fill-rule="evenodd" fill="#CDD6E1" fill-opacity="1"/></g><g><path d="M375.2428340332031,207.3010280078125L303.0061340332031,207.3010280078125L303.0061340332031,204.3010290078125L375.2428340332031,204.3010290078125L375.2428340332031,207.3010280078125Z" fill-rule="evenodd" fill="#CDD6E1" fill-opacity="1"/></g><g><path d="M179.2152619140625,207.3010280078125L163.4234619140625,207.3010280078125L163.4234619140625,204.3010290078125L179.2152619140625,204.3010290078125L179.2152619140625,207.3010280078125Z" fill-rule="evenodd" fill="#CDD6E1" fill-opacity="1"/></g><g><path d="M330.9223964355469,220.98720049316407L243.50509643554688,220.98720049316407L243.50509643554688,217.98720149316406L330.9223964355469,217.98720149316406L330.9223964355469,220.98720049316407Z" fill-rule="evenodd" fill="#CDD6E1" fill-opacity="1"/></g><g><path d="M210.29077412109376,220.98720049316407L152.62347412109375,220.98720049316407L152.62347412109375,217.98720149316406L210.29077412109376,217.98720149316406L210.29077412109376,220.98720049316407Z" fill-rule="evenodd" fill="#CDD6E1" fill-opacity="1"/></g><g><path d="M133.06221522216796,220.98720049316407L115.94591522216797,220.98720049316407L115.94591522216797,217.98720149316406L133.06221522216796,217.98720149316406L133.06221522216796,220.98720049316407Z" fill-rule="evenodd" fill="#CDD6E1" fill-opacity="1"/></g><g><path d="M89.86326293945312,220.98720049316407L52.063262939453125,220.98720049316407L52.063262939453125,217.98720149316406L89.86326293945312,217.98720149316406L89.86326293945312,220.98720049316407Z" fill-rule="evenodd" fill="#CDD6E1" fill-opacity="1"/></g><g><path d="M136.0163218383789,149.01435787353515C136.0163218383789,155.44925787353515,130.8204218383789,158.30875787353517,124.50412183837891,158.30875787353517C118.18674183837891,158.30875787353517,112.9908218383789,155.44925787353515,112.9908218383789,149.01435787353515C112.9908218383789,142.58055787353516,124.50412183837891,102.85025787353516,124.50412183837891,102.85025787353516C124.50412183837891,102.85025787353516,136.0163218383789,142.68205787353514,136.0163218383789,149.01435787353515Z" fill="#FFFFFF" fill-opacity="1"/></g><g><path d="M123.40204207373047,174.24209523925782L123.40204207373047,137.7794952392578L125.40203807373047,137.7794952392578L125.40203807373047,174.24209523925782L123.40204207373047,174.24209523925782Z" fill-rule="evenodd" fill="#B9C0D0" fill-opacity="1"/></g><g><path d="M129.24944857421875,141.07489124707033L125.07292257421875,144.8533482470703L123.73115457421875,143.37022824707032L127.90768857421875,139.5917652470703L129.24944857421875,141.07489124707033Z" fill-rule="evenodd" fill="#B9C0D0" fill-opacity="1"/></g><g><path d="M123.63662573486329,153.43739926269532L117.62539773486328,146.2876522626953L119.15623373486328,145.00058626269532L125.16745573486328,152.15032926269532L123.63662573486329,153.43739926269532Z" fill-rule="evenodd" fill="#B9C0D0" fill-opacity="1"/></g><g><path d="M239.53160961914062,146.1548399169922C239.53160961914062,153.3046399169922,233.72450961914063,156.4707399169922,226.6939096191406,156.4707399169922C219.56222961914062,156.4707399169922,213.85610961914062,153.3046399169922,213.85610961914062,146.1548399169922C213.85610961914062,139.0051399169922,226.6939096191406,94.78153991699219,226.6939096191406,94.78153991699219C226.6939096191406,94.78153991699219,239.53160961914062,139.1077399169922,239.53160961914062,146.1548399169922Z" fill="#FFFFFF" fill-opacity="1"/></g><g><path d="M225.6938740439453,174.24209687500002L225.6938740439453,133.591796875L227.6938700439453,133.591796875L227.6938700439453,174.24209687500002L225.6938740439453,174.24209687500002Z" fill-rule="evenodd" fill="#B9C0D0" fill-opacity="1"/></g><g><path d="M231.96175817382812,137.18256228417968L227.37706317382813,141.47179628417967L226.01069317382812,140.01130628417968L230.59538817382813,135.7220702841797L231.96175817382812,137.18256228417968Z" fill-rule="evenodd" fill="#B9C0D0" fill-opacity="1"/></g><g><path d="M225.92568086914062,151.08534906738282L219.20119586914063,143.01663506738282L220.73758586914062,141.7362030673828L227.46207086914063,149.8049190673828L225.92568086914062,151.08534906738282Z" fill-rule="evenodd" fill="#B9C0D0" fill-opacity="1"/></g><g><path d="M281.3040883300781,157.08304849853516C281.3040883300781,161.47484849853515,277.73878833007814,163.41534849853517,273.4591883300781,163.41534849853517C269.07857833007813,163.41534849853517,265.6142883300781,161.47484849853515,265.6142883300781,157.08304849853516C265.6142883300781,152.69124849853515,273.4591883300781,125.62564849853516,273.4591883300781,125.62564849853516C273.4591883300781,125.62564849853516,281.3040883300781,152.69124849853515,281.3040883300781,157.08304849853516Z" fill="#FFFFFF" fill-opacity="1"/></g><g><path d="M272.3571583457031,174.24207690429688L272.3571583457031,149.42257690429688L274.3571543457031,149.42257690429688L274.3571543457031,174.24207690429688L272.3571583457031,174.24207690429688Z" fill-rule="evenodd" fill="#B9C0D0" fill-opacity="1"/></g><g><path d="M276.8770172167969,151.90523466210936L274.0239542167969,154.45805366210936L272.69034021679687,152.96759366210938L275.54339721679685,150.41477266210939L276.8770172167969,151.90523466210936Z" fill-rule="evenodd" fill="#B9C0D0" fill-opacity="1"/></g><g><path d="M272.5881362109375,160.276205L268.5126272109375,155.373637L270.0506052109375,154.095113L274.1261162109375,158.997675L272.5881362109375,160.276205Z" fill-rule="evenodd" fill="#B9C0D0" fill-opacity="1"/></g><g><path d="M323.38266748046874,152.18048970947265C323.38266748046874,157.79798970947266,318.8999674804688,160.24918970947266,313.29586748046876,160.24918970947266C307.69283748046877,160.24918970947266,303.20916748046875,157.79798970947266,303.20916748046875,152.18048970947265C303.20916748046875,146.56308970947265,313.29586748046876,111.73538970947266,313.29586748046876,111.73538970947266C313.29586748046876,111.73538970947266,323.38266748046874,146.56308970947265,323.38266748046874,152.18048970947265Z" fill="#FFFFFF" fill-opacity="1"/></g><g><path d="M312.29590956640624,174.24204948730468L312.29590956640624,142.2738494873047L314.29590556640625,142.2738494873047L314.29590556640625,174.24204948730468L312.29590956640624,174.24204948730468Z" fill-rule="evenodd" fill="#B9C0D0" fill-opacity="1"/></g><g><path d="M317.53781895507814,145.2583438701172L313.97149195507814,148.52603187011718L312.6203659550781,147.0514318701172L316.1866889550781,143.7837398701172L317.53781895507814,145.2583438701172Z" fill-rule="evenodd" fill="#B9C0D0" fill-opacity="1"/></g><g><path d="M312.5289453222656,156.09091810058592L307.2309883222656,149.75861510058593L308.76492232226565,148.47524110058595L314.06288532226563,154.80754810058593L312.5289453222656,156.09091810058592Z" fill-rule="evenodd" fill="#B9C0D0" fill-opacity="1"/></g><g style="opacity:0.800000011920929;"><path d="M125.31838171386718,93.04514971923828L107.79488171386718,94.57744971923827L99.64388171386719,102.95184971923828L89.8632817138672,101.21534971923828L73.66326171386719,111.32714971923828L68.56938171386719,104.68824971923829L98.82858171386718,64.34564971923828L125.31838171386718,93.04514971923828Z" fill="#FFFFFF" fill-opacity="1"/></g><g style="opacity:0.6000000238418579;"><path d="M214.57037666015626,34.3169L206.31737666015624,32.479L197.86127666015625,36.4626L191.03467666015626,34.7262L184.51427666015624,46.3692L174.32547666015626,41.5692L162.91428666015625,46.3692L160.97857666015625,41.8759L191.03467666015626,0L214.57037666015626,34.3169Z" fill="#FFFFFF" fill-opacity="1"/></g><g style="opacity:0.6000000238418579;"><path d="M306.67343955078127,80.27794235839843L298.11523955078127,87.01844235839843L290.16833955078124,82.62774235839844L278.96119955078126,89.16414235839844L275.80303955078125,82.32104235839844L292.41013955078125,63.22154235839844L306.67343955078127,80.27794235839843Z" fill="#FFFFFF" fill-opacity="1"/></g><g><path d="M90.77959478222657,34.1128198034668C92.41021178222657,33.7046198034668,93.93776178222656,33.602059803466794,95.56837178222656,33.602059803466794C97.09694178222657,33.602059803466794,98.72653178222656,33.7046198034668,100.25510178222656,33.908719803466795C101.78365178222656,34.1128198034668,103.41325178222657,34.522059803466796,104.94185178222656,35.23692980346679C106.47045178222656,35.9517998034668,107.99795178222656,36.9733398034668,108.91535178222657,38.7097498034668L107.18365178222656,38.3005198034668L109.01735178222657,36.8707698034668C109.73065178222656,36.4625698034668,110.34185178222657,35.9517998034668,110.95305178222657,35.5425698034668C112.27755178222657,34.7261598034668,113.70405178222657,34.011289803466795,115.23265178222655,33.500519803466794C116.76025178222656,32.9897478034668,118.28875178222657,32.581542803466796,119.81735178222657,32.376414303466795C121.44695178222656,32.2748758034668,122.97555178222656,32.2748758034668,124.60515178222656,32.683080803466794C124.91125178222657,32.785644803466795,125.01325178222656,33.0923118034668,124.91125178222657,33.296414803466796C124.80915178222656,33.602059803466794,124.60515178222656,33.7046198034668,124.30005178222656,33.602059803466794L124.19795178222657,33.602059803466794C122.87345178222657,33.296414803466796,121.34495178222656,33.397949803466794,119.91835178222657,33.602059803466794C118.49285178222657,33.807179803466795,117.06635178222656,34.317949803466796,115.74185178222656,34.9302598034668C114.41735178222656,35.543589803466794,113.19485178222656,36.258469803466795,111.97145178222657,37.0748798034668C111.36025178222656,37.484109803466794,110.74895178222656,37.993849803466794,110.23975178222656,38.403079803466795L108.60915178222656,39.8328198034668C108.10005178222656,40.241029803466795,107.48875178222656,40.139489803466795,107.08165178222656,39.730259803466794L106.97955178222657,39.8328198034668L106.87755178222656,39.628719803466794C106.47045178222656,38.504619803466795,105.34895178222656,37.585649803466794,104.12655178222656,36.9733398034668C102.90405178222656,36.3599998034668,101.47755178222656,35.849239803466794,99.94898178222657,35.5425698034668C98.52347178222657,35.23692980346679,96.99490178222656,35.03281980346679,95.46633178222656,34.9302598034668C93.93776178222656,34.8276998034668,92.41021178222657,34.8276998034668,91.08571678222657,35.13435980346679L90.98367578222656,35.13435980346679C90.67755378222657,35.23692980346679,90.47449278222656,35.03281980346679,90.37245178222656,34.7261598034668C90.37245178222656,34.419489803466796,90.47449278222656,34.1128198034668,90.77959478222657,34.1128198034668Z" fill="#989FB0" fill-opacity="1"/></g><g><path d="M45.54285848461914,62.09847030517578C47.17347548461914,61.68924030517578,48.70102548461914,61.58770030517578,50.33163548461914,61.58770030517578C51.860205484619144,61.58770030517578,53.48979548461914,61.68924030517578,55.01836548461914,61.893340305175784C56.54691548461914,62.09847030517578,58.176515484619145,62.50667030517578,59.70511548461914,63.22154030517578C61.23371548461914,63.93642030517578,62.76121548461914,64.95795030517579,63.678615484619144,66.69436030517578L61.94691548461914,66.28513030517578L63.78061548461914,64.85539030517577C64.49391548461914,64.44718030517578,65.10511548461915,63.93642030517578,65.71631548461914,63.52821030517578C67.04081548461915,62.71077030517578,68.46731548461915,61.99590030517578,69.99491548461914,61.48513030517578C71.52351548461914,60.97436430517578,73.05201548461915,60.56615930517578,74.58061548461914,60.36205650517578C76.21021548461914,60.259492405175784,77.73881548461914,60.259492405175784,79.36841548461913,60.66769730517578C79.67451548461915,60.77026130517578,79.77651548461914,61.076928305175784,79.67451548461915,61.28103130517578C79.57241548461914,61.58770030517578,79.36841548461913,61.68924030517578,79.06331548461914,61.58770030517578L78.96121548461915,61.58770030517578C77.63671548461915,61.28103130517578,76.10821548461914,61.38257030517578,74.68161548461914,61.58770030517578C73.25611548461914,61.791800305175784,71.82961548461914,62.302570305175784,70.50511548461914,62.91488030517578C69.18061548461914,63.52821030517578,67.95811548461914,64.24308030517578,66.73471548461914,65.05949030517579C66.12351548461913,65.46872030517578,65.51221548461913,65.97949030517579,65.00301548461914,66.38770030517578L63.37241548461914,67.81744030517578C62.863315484619136,68.22565030517578,62.252015484619136,68.12411030517578,61.844915484619136,67.71488030517578L61.74281548461914,67.61334030517578L61.64081548461914,67.40924030517579C61.23371548461914,66.28513030517578,60.11221548461914,65.36616030517578,58.88981548461914,64.75385030517577C57.66731548461914,64.14052030517578,56.24081548461914,63.62975030517578,54.71224548461914,63.32308030517578C53.28673548461914,63.01744030517578,51.75816548461914,62.81334030517578,50.22959548461914,62.71077030517578C48.70102548461914,62.60821030517578,47.17347548461914,62.60821030517578,45.84898048461914,62.91488030517578L45.74693948461914,62.91488030517578C45.44081748461914,63.01744030517578,45.23775648461914,62.81334030517578,45.13571548461914,62.50667030517578C45.13571548461914,62.404110305175784,45.33877648461914,62.09847030517578,45.54285848461914,62.09847030517578Z" fill="#989FB0" fill-opacity="1"/></g><g><path d="M101.7836741694336,58.11486829589844C103.4132711694336,57.70666829589844,104.94184116943359,57.604108295898435,106.5714311694336,57.604108295898435C108.1000011694336,57.604108295898435,109.73061116943359,57.70666829589844,111.25816116943359,57.910768295898436C112.78671116943359,58.11486829589844,114.41731116943359,58.523078295898436,115.9449111694336,59.237948295898434C117.47351116943359,59.95281829589844,119.00201116943359,60.97435829589844,119.9184111694336,62.71076829589844L118.1867111694336,62.30256829589844L120.0204111694336,60.87281829589844C120.73371116943359,60.46358829589844,121.3449111694336,59.95281829589844,121.9561111694336,59.54461829589844C123.2806111694336,58.72717829589844,124.7071111694336,58.012308295898436,126.23571116943359,57.501538295898435C127.7643111694336,56.99179629589844,129.2918111694336,56.58256529589844,130.82041116943358,56.378462795898436C132.4510111694336,56.27692429589844,133.97861116943358,56.27692429589844,135.6092111694336,56.685129295898435C135.9143111694336,56.78666829589844,136.0163111694336,57.09333429589844,135.9143111694336,57.29743729589844C135.8133111694336,57.604108295898435,135.6092111694336,57.70666829589844,135.30311116943358,57.604108295898435L135.2020111694336,57.604108295898435C133.8765111694336,57.29743729589844,132.3490111694336,57.399998295898435,130.9224111694336,57.604108295898435C129.49591116943358,57.80820829589844,128.06941116943358,58.31897829589844,126.74491116943359,58.93230829589844C125.42041116943359,59.54461829589844,124.1979111694336,60.259488295898436,122.97551116943359,61.07692829589844C122.36431116943359,61.485128295898434,121.7531111694336,61.995898295898435,121.2428111694336,62.40410829589844L119.61331116943359,63.83486829589844C119.1041111694336,64.24307829589844,118.4928111694336,64.14051829589843,118.08471116943359,63.732308295898434L117.9826111694336,63.62974829589844L117.88061116943359,63.42563829589844C117.47351116943359,62.30256829589844,116.35311116943359,61.383588295898434,115.13061116943359,60.77025829589844C113.90711116943359,60.157948295898436,112.48161116943359,59.647178295898435,110.9530611694336,59.340518295898434C109.5265311694336,59.03384829589844,107.9979611694336,58.82974829589844,106.47041116943359,58.72717829589844C104.94184116943359,58.62563829589844,103.4132711694336,58.62563829589844,102.0887761694336,58.93230829589844L101.98673516943359,58.93230829589844C101.6816331694336,59.03384829589844,101.4775521694336,58.82974829589844,101.3755111694336,58.523078295898436C101.3755111694336,58.421538295898436,101.4775521694336,58.11486829589844,101.7836741694336,58.11486829589844Z" fill="#989FB0" fill-opacity="1"/></g><g filter="url(#master_svg0_35_034)"><path d="M265.61425886230467,59.511842272949224C265.61425886230467,65.38974227294922,260.8724588623047,70.14254227294921,254.95815886230469,70.14254227294921C254.85615886230468,70.14254227294921,253.98975886230468,70.14254227294921,247.61635886230468,70.14254227294921C243.18055886230468,70.14254227294921,236.0928588623047,70.14254227294921,224.7744588623047,70.14254227294921L219.3693588623047,70.14254227294921C212.28263886230468,70.29644227294922,206.6234588623047,64.62254227294922,206.6234588623047,57.77334227294922C206.6234588623047,50.87384227294922,212.33365886230467,45.14974227294922,219.5224588623047,45.50664227294922C225.69185886230468,26.18666227294922,253.9387588623047,28.89538227294922,256.3346588623047,48.88004227294922C261.6377588623047,49.54464227294922,265.61425886230467,54.04304227294922,265.61425886230467,59.511842272949224Z" fill="url(#master_svg1__054548)" fill-opacity="1"/></g><g><path d="M254.95813247070313,70.14260106811523C260.82143247070314,70.14260106811523,265.61423247070314,65.38970106811523,265.61423247070314,59.51180106811523C265.61423247070314,53.633851068115234,260.82143247070314,48.880001068115234,254.95813247070313,48.880001068115234C249.09489247070312,48.880001068115234,244.30203247070312,53.633851068115234,244.30203247070312,59.51180106811523C244.30203247070312,65.38970106811523,249.09489247070312,70.14260106811523,254.95813247070313,70.14260106811523Z" fill="url(#master_svg2__055261)" fill-opacity="1"/></g><g><path d="M237.5714025390625,70.24510350952148C248.0235025390625,70.24510350952148,256.5388025390625,61.76000350952148,256.5388025390625,51.282103509521484C256.5388025390625,40.80513350952148,248.0235025390625,32.320003509521484,237.5714025390625,32.320003509521484C227.1193925390625,32.320003509521484,218.6051025390625,40.80513350952148,218.6051025390625,51.282103509521484C218.6051025390625,61.76000350952148,227.0683625390625,70.24510350952148,237.5714025390625,70.24510350952148Z" fill="url(#master_svg3_3_81)" fill-opacity="1"/></g><g filter="url(#master_svg4_35_014)"><path d="M173.04488984375,78.21331470336914C173.04488984375,82.64411470336914,169.47138984375,86.22671470336914,165.01328984375,86.22671470336914C164.93568984375,86.22671470336914,164.28268984375,86.22671470336914,159.47858984375,86.22671470336914C156.13468984375,86.22671470336914,150.79288984375,86.22671470336914,142.26118984375,86.22671470336914L138.18774984375,86.22671470336914C132.84489984375,86.34261470336914,128.57958984375,82.06671470336914,128.57958984375,76.90361470336914C128.57958984375,71.70261470336914,132.88366984375,67.38769470336914,138.30305984375,67.65743470336915C142.95308984375,53.09436470336914,164.24388984375,55.13641470336914,166.05098984375002,70.20001470336913C170.04798984375,70.70051470336914,173.04488984375,74.09131470336914,173.04488984375,78.21331470336914Z" fill="url(#master_svg5__054548)" fill-opacity="1"/></g><g><path d="M165.01327133789061,86.22670457763672C169.43262133789062,86.22670457763672,173.04492133789063,82.64410457763672,173.04492133789063,78.21333457763672C173.04492133789063,73.78256457763672,169.43262133789062,70.20000457763672,165.01327133789061,70.20000457763672C160.59389133789062,70.20000457763672,156.98062133789062,73.78256457763672,156.98062133789062,78.21333457763672C156.98062133789062,82.64410457763672,160.59389133789062,86.22670457763672,165.01327133789061,86.22670457763672Z" fill="url(#master_svg6_3_002)" fill-opacity="1"/></g><g><path d="M151.90812131347656,86.30362657470704C159.78672131347656,86.30362657470704,166.20412131347655,79.90872657470703,166.20412131347655,72.01022657470703C166.20412131347655,64.11282657470703,159.78672131347656,57.71692657470703,151.90812131347656,57.71692657470703C144.02959131347657,57.71692657470703,137.61122131347656,64.11282657470703,137.61122131347656,72.01022657470703C137.61122131347656,79.90872657470703,143.99081131347657,86.30362657470704,151.90812131347656,86.30362657470704Z" fill="url(#master_svg7__055265)" fill-opacity="1"/></g></g></svg>