<svg xmlns="http://www.w3.org/2000/svg" xmlns:xlink="http://www.w3.org/1999/xlink" fill="none" version="1.1" width="202.59185791015625" height="182.9986572265625" viewBox="0 0 202.59185791015625 182.9986572265625"><defs><filter id="master_svg0_35_86" filterUnits="objectBoundingBox" color-interpolation-filters="sRGB" x="-0.42303695153503584" y="-0.28541809885706754" width="1.8460739030700717" height="1.7611149302855134"><feFlood flood-opacity="0" result="BackgroundImageFix"/><feColorMatrix in="SourceAlpha" type="matrix" values="0 0 0 0 0 0 0 0 0 0 0 0 0 0 0 0 0 0 127 0"/><feOffset dy="11" dx="0"/><feGaussianBlur stdDeviation="11"/><feColorMatrix type="matrix" values="0 0 0 0 0.3960784375667572 0 0 0 0 0.47843137383461 0 0 0 0 0.5764706134796143 0 0 0 0.27000001072883606 0"/><feBlend mode="normal" in2="BackgroundImageFix" result="effect1_dropShadow"/><feBlend mode="normal" in="SourceGraphic" in2="effect1_dropShadow" result="shape"/></filter><linearGradient x1="0.4996841251850128" y1="-0.02316455729305744" x2="0.4996841251850128" y2="1.0107594728469849" id="master_svg1__054548"><stop offset="0%" stop-color="#FDFEFF" stop-opacity="1"/><stop offset="99.6399998664856%" stop-color="#ECF0F5" stop-opacity="1"/></linearGradient><filter id="master_svg2_35_59" filterUnits="objectBoundingBox" color-interpolation-filters="sRGB" x="-0.4748294611612424" y="-0.28309309490916545" width="1.949658922322485" height="1.7549149197577745"><feFlood flood-opacity="0" result="BackgroundImageFix"/><feColorMatrix in="SourceAlpha" type="matrix" values="0 0 0 0 0 0 0 0 0 0 0 0 0 0 0 0 0 0 127 0"/><feOffset dy="11" dx="0"/><feGaussianBlur stdDeviation="11"/><feColorMatrix type="matrix" values="0 0 0 0 0.3960784375667572 0 0 0 0 0.47843137383461 0 0 0 0 0.5764706134796143 0 0 0 0.27000001072883606 0"/><feBlend mode="normal" in2="BackgroundImageFix" result="effect1_dropShadow"/><feBlend mode="normal" in="SourceGraphic" in2="effect1_dropShadow" result="shape"/></filter><linearGradient x1="0.4996841251850128" y1="-0.02316455729305744" x2="0.4996841251850128" y2="1.0107594728469849" id="master_svg3__054548"><stop offset="0%" stop-color="#FDFEFF" stop-opacity="1"/><stop offset="99.6399998664856%" stop-color="#ECF0F5" stop-opacity="1"/></linearGradient></defs><g><g><path d="M97.722290335083,142.96661403656006C134.243890335083,142.96661403656006,163.852890335083,113.21661403656006,163.852890335083,76.38901403656006C163.852890335083,39.56171403656006,134.113890335083,9.811614036560059,97.722290335083,9.811614036560059C61.20059033508301,9.811614036560059,31.591890335083008,39.56171403656006,31.591890335083008,76.38901403656006C31.591890335083008,113.21661403656006,61.20059033508301,142.96661403656006,97.722290335083,142.96661403656006Z" fill="#EAEEF9" fill-opacity="1"/></g><g><path d="M164.89627678222655,27.37337Q164.89627678222655,27.50528,164.88977678222656,27.63703Q164.88337678222655,27.76878,164.87047678222658,27.90006Q164.85757678222657,28.03133,164.83837678222656,28.16181Q164.81907678222657,28.29229,164.79347678222655,28.42167Q164.76787678222655,28.55104,164.73597678222657,28.679000000000002Q164.70407678222657,28.80695,164.66597678222655,28.93318Q164.62787678222656,29.05941,164.58357678222657,29.18361Q164.53937678222655,29.30781,164.48917678222656,29.42967Q164.43887678222657,29.55154,164.38277678222656,29.67079Q164.32667678222657,29.79003,164.26477678222656,29.90636Q164.20287678222655,30.0227,164.13538678222656,30.13584Q164.06789678222657,30.24898,163.99495678222655,30.35866Q163.92201678222656,30.468339999999998,163.84381678222655,30.574289999999998Q163.76560678222657,30.680239999999998,163.68232678222657,30.78221Q163.59904678222657,30.884169999999997,163.51087678222657,30.98191Q163.42271678222656,31.07965,163.32988678222657,31.172919999999998Q163.23705678222657,31.266199999999998,163.13977678222656,31.354779999999998Q163.04250678222655,31.44337,162.94102678222657,31.52705Q162.83954678222656,31.61073,162.73409678222657,31.68931Q162.62864678222655,31.76789,162.51949678222655,31.841169999999998Q162.41033678222655,31.91446,162.29773678222656,31.98227Q162.18512678222658,32.0501,162.06934678222657,32.1123Q161.95356678222657,32.1744,161.83489678222656,32.2308Q161.71621678222655,32.2872,161.59492678222657,32.3377Q161.47363678222655,32.3882,161.35002678222656,32.4326Q161.22642678222655,32.4771,161.10079678222655,32.5154Q160.97516678222655,32.5537,160.84781678222657,32.5857Q160.72046678222657,32.6178,160.59170678222657,32.6435Q160.46294678222657,32.669200000000004,160.33308678222656,32.6886Q160.20322678222655,32.7079,160.07257678222658,32.7209Q159.94192678222657,32.7338,159.81080678222656,32.7403Q159.67968678222655,32.746700000000004,159.54840678222655,32.746700000000004Q159.41711678222657,32.746700000000004,159.28599678222656,32.7403Q159.15487678222655,32.7338,159.02422678222655,32.7209Q158.89357678222657,32.7079,158.76371678222657,32.6886Q158.63385678222656,32.669200000000004,158.50509678222656,32.6435Q158.37633678222656,32.6178,158.24898678222655,32.5857Q158.12163678222657,32.5537,157.99600678222657,32.5154Q157.87038678222657,32.4771,157.74677678222656,32.4326Q157.62316678222658,32.3882,157.50187678222656,32.3377Q157.38058678222657,32.2872,157.26191678222656,32.2308Q157.14323678222655,32.1744,157.02745678222655,32.1123Q156.91167678222655,32.0501,156.79906678222656,31.98227Q156.68646678222657,31.914450000000002,156.57730678222657,31.841169999999998Q156.46815678222657,31.767879999999998,156.36270678222655,31.68931Q156.25725678222656,31.61073,156.15577678222655,31.52705Q156.05429678222657,31.44336,155.95702678222656,31.354779999999998Q155.85974678222655,31.266199999999998,155.76691678222656,31.172919999999998Q155.67408678222657,31.07965,155.58592678222655,30.98191Q155.49775678222656,30.884169999999997,155.41447678222656,30.78221Q155.33119678222656,30.680239999999998,155.25298678222657,30.574289999999998Q155.17478378222657,30.468339999999998,155.10184778222657,30.35866Q155.02891178222657,30.24898,154.96141978222656,30.13584Q154.89392678222657,30.0227,154.83204078222656,29.90636Q154.77015578222657,29.79003,154.71402478222657,29.67079Q154.65789478222655,29.55154,154.60765578222657,29.42967Q154.55741678222657,29.30781,154.51318878222656,29.18361Q154.46896178222656,29.05941,154.43085278222657,28.93318Q154.39274278222655,28.80695,154.36084478222656,28.679000000000002Q154.32894578222655,28.55104,154.30333378222656,28.42167Q154.27772198222655,28.29229,154.25845888222656,28.16181Q154.23919588222657,28.03133,154.22632798222656,27.90006Q154.21346018222656,27.76878,154.20701847222657,27.63703Q154.20057678222656,27.50528,154.20057678222656,27.37337Q154.20057678222656,27.24147,154.20701847222657,27.10972Q154.21346018222656,26.97796,154.22632798222656,26.84669Q154.23919588222657,26.71542,154.25845888222656,26.58494Q154.27772198222655,26.45446,154.30333378222656,26.32508Q154.32894578222655,26.19571,154.36084478222656,26.06775Q154.39274278222655,25.939799999999998,154.43085278222657,25.81357Q154.46896178222656,25.68734,154.51318878222656,25.56314Q154.55741678222657,25.43894,154.60765578222657,25.31707Q154.65789478222655,25.1952,154.71402478222657,25.07596Q154.77015578222657,24.95672,154.83204078222656,24.84038Q154.89392678222657,24.72405,154.96141978222656,24.61091Q155.02891178222657,24.49777,155.10184778222657,24.38809Q155.17478378222657,24.27841,155.25298678222657,24.17246Q155.33119678222656,24.06651,155.41447678222656,23.96454Q155.49775678222656,23.86257,155.58592678222655,23.76484Q155.67408678222657,23.6671,155.76691678222656,23.57382Q155.85974678222655,23.48055,155.95702678222656,23.39197Q156.05429678222657,23.30338,156.15577678222655,23.2197Q156.25725678222656,23.13602,156.36270678222655,23.05744Q156.46815678222657,22.978861,156.57730678222657,22.905577Q156.68646678222657,22.832292,156.79906678222656,22.764477Q156.91167678222655,22.696663,157.02745678222655,22.634481Q157.14323678222655,22.5723,157.26191678222656,22.515901Q157.38058678222657,22.459503,157.50187678222656,22.409024Q157.62316678222658,22.358544,157.74677678222656,22.314106Q157.87037678222657,22.269667,157.99600678222657,22.231376Q158.12163678222657,22.193085,158.24898678222655,22.161033Q158.37633678222656,22.128982,158.50509678222656,22.103248Q158.63385678222656,22.0775137,158.76371678222657,22.0581587Q158.89357678222657,22.0388036,159.02422678222655,22.0258743Q159.15487678222655,22.0129449,159.28599678222656,22.00647246Q159.41711678222657,22,159.54840678222655,22Q159.67968678222655,22,159.81080678222656,22.00647246Q159.94192678222657,22.0129449,160.07257678222658,22.0258743Q160.20322678222655,22.0388036,160.33308678222656,22.0581587Q160.46294678222657,22.0775137,160.59170678222657,22.103248Q160.72046678222657,22.128982,160.84781678222657,22.161033Q160.97516678222655,22.193085,161.10079678222655,22.231376Q161.22642678222655,22.269667,161.35002678222656,22.314106Q161.47363678222655,22.358544,161.59492678222657,22.409024Q161.71621678222655,22.459503,161.83489678222656,22.515901Q161.95356678222657,22.5723,162.06934678222657,22.634481Q162.18512678222658,22.696663,162.29773678222656,22.764477Q162.41033678222655,22.832292,162.51949678222655,22.905577Q162.62864678222655,22.978861,162.73409678222657,23.05744Q162.83954678222656,23.13602,162.94102678222657,23.2197Q163.04250678222655,23.30338,163.13977678222656,23.39197Q163.23705678222657,23.48055,163.32988678222657,23.57382Q163.42271678222656,23.6671,163.51087678222657,23.76484Q163.59904678222657,23.86257,163.68232678222657,23.96454Q163.76560678222657,24.06651,163.84381678222655,24.17246Q163.92201678222656,24.27841,163.99495678222655,24.38809Q164.06789678222657,24.49777,164.13538678222656,24.61091Q164.20287678222655,24.72405,164.26477678222656,24.84038Q164.32667678222657,24.95672,164.38277678222656,25.07596Q164.43887678222657,25.1952,164.48917678222656,25.31707Q164.53937678222655,25.43894,164.58357678222657,25.56314Q164.62787678222656,25.68734,164.66597678222655,25.81357Q164.70407678222657,25.939799999999998,164.73597678222657,26.06775Q164.76787678222655,26.19571,164.79347678222655,26.32508Q164.81907678222657,26.45446,164.83837678222656,26.58494Q164.85757678222657,26.71542,164.87047678222658,26.84669Q164.88337678222655,26.97796,164.88977678222656,27.10972Q164.89627678222655,27.24147,164.89627678222655,27.37337Z" fill="#E7EBF6" fill-opacity="1"/></g><g><path d="M171.02667055664062,8.107860051269531Q171.02667055664062,8.288140051269531,171.0090805566406,8.46755005126953Q170.99149055664063,8.64696005126953,170.95649055664063,8.82377005126953Q170.92149055664063,9.00058005126953,170.86941055664062,9.173100051269532Q170.81732055664062,9.345610051269531,170.74866055664063,9.512160051269532Q170.68000055664064,9.678720051269531,170.59542055664062,9.837710051269532Q170.51084055664063,9.996700051269531,170.41116055664062,10.14659005126953Q170.31148055664062,10.296490051269531,170.1976605566406,10.435840051269532Q170.08384055664064,10.575200051269531,169.9569705566406,10.702680051269532Q169.83010055664062,10.83015005126953,169.69141055664062,10.944520051269532Q169.55271055664062,11.058880051269531,169.40353055664062,11.159040051269532Q169.25435055664062,11.25920005126953,169.0961205566406,11.344180051269532Q168.93788055664064,11.42916005126953,168.77212055664063,11.498150051269532Q168.60636055664062,11.567140051269531,168.43466055664064,11.61947005126953Q168.26297055664062,11.671800051269532,168.08700055664062,11.706970051269531Q167.91103055664064,11.74214005126953,167.73247055664064,11.759810051269532Q167.55391055664063,11.777480051269531,167.37449055664064,11.777480051269531Q167.19507055664062,11.777480051269531,167.01652055664061,11.759810051269532Q166.83796055664064,11.74214005126953,166.66199055664063,11.706970051269531Q166.48602055664063,11.671800051269532,166.31432055664064,11.61947005126953Q166.14263055664063,11.567140051269531,165.97687055664062,11.498150051269532Q165.8111005566406,11.42916005126953,165.65287055664064,11.344180051269532Q165.49464055664063,11.25920005126953,165.34545055664063,11.159040051269532Q165.19627055664063,11.058880051269531,165.05758055664063,10.944520051269532Q164.91889055664063,10.83015005126953,164.79202055664064,10.702670051269532Q164.66514855664062,10.575200051269531,164.55132555664062,10.435840051269532Q164.43750255664062,10.296490051269531,164.33782255664062,10.14659005126953Q164.23814255664064,9.996700051269531,164.15356455664062,9.837710051269532Q164.06898655664062,9.678720051269531,164.00032555664063,9.512160051269532Q163.9316645566406,9.345610051269531,163.87958155664063,9.173100051269532Q163.82749955664062,9.00058005126953,163.79249605664063,8.82377005126953Q163.75749295664062,8.64696005126953,163.73990675664064,8.46755005126953Q163.72232055664062,8.288140051269531,163.72232055664062,8.107860051269531Q163.72232055664062,7.927580051269532,163.73990675664064,7.748180051269531Q163.75749295664062,7.5687700512695315,163.79249605664063,7.391950051269531Q163.82749955664062,7.215140051269531,163.87958155664063,7.042630051269532Q163.9316645566406,6.870110051269531,164.00032555664063,6.703560051269531Q164.06898655664062,6.537000051269532,164.15356455664062,6.3780100512695315Q164.23814255664064,6.219020051269531,164.33782255664062,6.069130051269531Q164.43750255664062,5.9192300512695315,164.55132555664062,5.779880051269531Q164.66514855664062,5.640520051269531,164.79202055664064,5.5130500512695315Q164.91889055664063,5.3855720512695315,165.05758055664063,5.271206051269531Q165.19627055664063,5.1568390512695315,165.34545055664063,5.056683051269531Q165.49464055664063,4.956526051269531,165.65287055664064,4.871544051269531Q165.8111005566406,4.786562051269531,165.97687055664062,4.7175730512695315Q166.14263055664063,4.648584051269531,166.31432055664064,4.596253051269532Q166.48602055664063,4.543921051269531,166.66199055664063,4.508750751269531Q166.83796055664064,4.4735805512695315,167.01652055664061,4.455910251269532Q167.19507055664062,4.438240051269531,167.37449055664064,4.438240051269531Q167.55391055664063,4.438240051269531,167.73247055664064,4.455910251269532Q167.91102055664064,4.4735805512695315,168.08700055664062,4.508750751269531Q168.26297055664062,4.543921051269531,168.43466055664064,4.596253051269532Q168.60636055664062,4.648584051269531,168.77212055664063,4.7175730512695315Q168.93788055664064,4.786562051269531,169.0961205566406,4.871544051269531Q169.25435055664062,4.956526051269531,169.40353055664062,5.056683051269531Q169.55271055664062,5.1568390512695315,169.69141055664062,5.271206051269531Q169.83010055664062,5.3855720512695315,169.9569705566406,5.5130500512695315Q170.08384055664064,5.640520051269531,170.1976605566406,5.779880051269531Q170.31148055664062,5.9192300512695315,170.41116055664062,6.069130051269531Q170.51084055664063,6.219020051269531,170.59542055664062,6.3780100512695315Q170.68000055664064,6.537000051269532,170.74866055664063,6.703560051269531Q170.81732055664062,6.870110051269531,170.86941055664062,7.042630051269532Q170.92149055664063,7.215140051269531,170.95649055664063,7.391950051269531Q170.99149055664063,7.5687700512695315,171.0090805566406,7.748180051269531Q171.02667055664062,7.927580051269532,171.02667055664062,8.107860051269531Z" fill="#E7EBF6" fill-opacity="1"/></g><g><path d="M38.76580439147949,28.946065388793947Q38.76580439147949,29.126345388793943,38.74821439147949,29.305755388793944Q38.730624391479495,29.485165388793945,38.69562439147949,29.661975388793945Q38.660624391479494,29.838785388793944,38.60854439147949,30.011305388793946Q38.55645439147949,30.183815388793946,38.48779439147949,30.350365388793946Q38.41913439147949,30.516925388793943,38.33455439147949,30.675915388793946Q38.24997439147949,30.834905388793945,38.15029439147949,30.984795388793945Q38.05061439147949,31.134695388793943,37.936794391479495,31.274045388793944Q37.82297439147949,31.413405388793947,37.696104391479494,31.540885388793946Q37.56923439147949,31.668355388793945,37.43054439147949,31.782725388793946Q37.29184439147949,31.897085388793947,37.14266439147949,31.997245388793946Q36.99348439147949,32.097405388793945,36.835254391479495,32.182385388793946Q36.67701439147949,32.26736538879395,36.51125439147949,32.33635538879395Q36.34549439147949,32.40534538879395,36.17379439147949,32.457675388793945Q36.00210439147949,32.51000538879394,35.82613439147949,32.54517538879394Q35.65016439147949,32.580345388793944,35.471604391479495,32.59801538879395Q35.29304439147949,32.61568538879395,35.11362439147949,32.61568538879395Q34.93420439147949,32.61568538879395,34.755654391479496,32.59801538879395Q34.57709439147949,32.580345388793944,34.40112439147949,32.54517538879394Q34.22515439147949,32.51000538879394,34.05345439147949,32.457675388793945Q33.88176439147949,32.40534538879395,33.716004391479494,32.33635538879395Q33.55023439147949,32.26736538879395,33.39200439147949,32.182385388793946Q33.23377439147949,32.097405388793945,33.084584391479495,31.997245388793946Q32.935404391479494,31.897085388793947,32.79671439147949,31.782725388793946Q32.65802439147949,31.668355388793945,32.53115439147949,31.540875388793946Q32.40428239147949,31.413405388793947,32.290459391479494,31.274045388793944Q32.17663639147949,31.134695388793943,32.07695639147949,30.984795388793945Q31.977276391479492,30.834905388793945,31.89269839147949,30.675915388793946Q31.80812039147949,30.516925388793943,31.739459391479492,30.350365388793946Q31.670798391479494,30.183815388793946,31.61871539147949,30.011305388793946Q31.566633391479492,29.838785388793944,31.531629891479493,29.661975388793945Q31.496626791479493,29.485165388793945,31.479040591479492,29.305755388793944Q31.461454391479492,29.126345388793943,31.461454391479492,28.946065388793947Q31.461454391479492,28.765785388793944,31.479040591479492,28.586385388793946Q31.496626791479493,28.406975388793946,31.531629891479493,28.230155388793946Q31.566633391479492,28.053345388793947,31.61871539147949,27.880835388793944Q31.670798391479494,27.708315388793945,31.739459391479492,27.541765388793944Q31.80812039147949,27.375205388793944,31.89269839147949,27.216215388793945Q31.977276391479492,27.057225388793945,32.07695639147949,26.907335388793946Q32.17663639147949,26.757435388793944,32.290459391479494,26.618085388793943Q32.40428239147949,26.478725388793947,32.53115439147949,26.351255388793945Q32.65802439147949,26.223777388793945,32.79671439147949,26.109411388793944Q32.935404391479494,25.995044388793946,33.084584391479495,25.894888388793945Q33.23377439147949,25.794731388793945,33.39200439147949,25.709749388793945Q33.55023439147949,25.624767388793945,33.716004391479494,25.555778388793946Q33.88176439147949,25.486789388793945,34.05345439147949,25.434458388793946Q34.22515439147949,25.382126388793946,34.40112439147949,25.346956088793945Q34.57709439147949,25.311785888793946,34.755654391479496,25.294115588793947Q34.93420439147949,25.276445388793945,35.11362439147949,25.276445388793945Q35.29304439147949,25.276445388793945,35.471604391479495,25.294115588793947Q35.65015439147949,25.311785888793946,35.82613439147949,25.346956088793945Q36.00210439147949,25.382126388793946,36.17379439147949,25.434458388793946Q36.34549439147949,25.486789388793945,36.51125439147949,25.555778388793946Q36.67701439147949,25.624767388793945,36.835254391479495,25.709749388793945Q36.99348439147949,25.794731388793945,37.14266439147949,25.894888388793945Q37.29184439147949,25.995044388793946,37.43054439147949,26.109411388793944Q37.56923439147949,26.223777388793945,37.696104391479494,26.351255388793945Q37.82297439147949,26.478725388793947,37.936794391479495,26.618085388793943Q38.05061439147949,26.757435388793944,38.15029439147949,26.907335388793946Q38.24997439147949,27.057225388793945,38.33455439147949,27.216215388793945Q38.41913439147949,27.375205388793944,38.48779439147949,27.541765388793944Q38.55645439147949,27.708315388793945,38.60854439147949,27.880835388793944Q38.660624391479494,28.053345388793947,38.69562439147949,28.230155388793946Q38.730624391479495,28.406975388793946,38.74821439147949,28.586385388793946Q38.76580439147949,28.765785388793944,38.76580439147949,28.946065388793947Z" fill="#E7EBF6" fill-opacity="1"/></g><g><path d="M19.59187236328125,96.57194511962891Q19.59187236328125,96.7392451196289,19.583672363281252,96.90634511962891Q19.57557236328125,97.07343511962891,19.559272363281252,97.23993511962891Q19.542872363281248,97.4064251196289,19.518472363281248,97.57191511962891Q19.494072363281248,97.7374051196289,19.46157236328125,97.9014851196289Q19.42907236328125,98.0655751196289,19.38857236328125,98.22785511962891Q19.34817236328125,98.39014511962891,19.29987236328125,98.55023511962891Q19.251472363281252,98.71033511962891,19.19537236328125,98.8678551196289Q19.13927236328125,99.0253751196289,19.07557236328125,99.17993511962891Q19.01187236328125,99.33449511962891,18.94067236328125,99.48573511962891Q18.86947236328125,99.6369751196289,18.79097236328125,99.78453511962891Q18.71247236328125,99.9320351196289,18.62687236328125,100.07553511962891Q18.54127236328125,100.2190351196289,18.44877236328125,100.35813511962891Q18.35627236328125,100.49723511962891,18.25707236328125,100.63163511962891Q18.15797236328125,100.76603511962891,18.05227236328125,100.89533511962891Q17.94667236328125,101.02463511962891,17.83487236328125,101.1486351196289Q17.72307236328125,101.27253511962891,17.60527236328125,101.3908351196289Q17.487572363281252,101.50913511962891,17.36417236328125,101.6215351196289Q17.240872363281248,101.73393511962891,17.11207236328125,101.84003511962891Q16.983372363281248,101.9461351196289,16.84967236328125,102.0458351196289Q16.71597236328125,102.1454351196289,16.577472363281252,102.2384351196289Q16.439072363281248,102.3313351196289,16.29627236328125,102.4173351196289Q16.15337236328125,102.5033351196289,16.00658236328125,102.5822351196289Q15.85973236328125,102.66113511962891,15.70921236328125,102.73263511962891Q15.55870236328125,102.80413511962891,15.40487236328125,102.8682351196289Q15.25104236328125,102.9322351196289,15.09427236328125,102.9885351196289Q14.93750236328125,103.0449351196289,14.77817236328125,103.09353511962891Q14.61883236328125,103.1420351196289,14.45732236328125,103.1827351196289Q14.29580236328125,103.2233351196289,14.13250236328125,103.2560351196289Q13.96919236328125,103.2886351196289,13.80449236328125,103.3132351196289Q13.63979236328125,103.3377351196289,13.474092363281251,103.3541351196289Q13.30839236328125,103.37053511962891,13.14209236328125,103.37873511962891Q12.975782363281251,103.3869351196289,12.80928236328125,103.3869351196289Q12.64277236328125,103.3869351196289,12.47647236328125,103.37873511962891Q12.31017236328125,103.37053511962891,12.144472363281249,103.3541351196289Q11.97876236328125,103.3377351196289,11.81406236328125,103.3132351196289Q11.64936236328125,103.2886351196289,11.486062363281249,103.2560351196289Q11.32275236328125,103.2233351196289,11.16124236328125,103.1827351196289Q10.99972236328125,103.1420351196289,10.84039236328125,103.09353511962891Q10.68106236328125,103.0449351196289,10.524292363281251,102.9885351196289Q10.36752236328125,102.9322351196289,10.21369236328125,102.8682351196289Q10.059862363281251,102.80413511962891,9.909342363281251,102.73263511962891Q9.75882236328125,102.66113511962891,9.61198236328125,102.5822351196289Q9.46514236328125,102.5033351196289,9.32232236328125,102.4173351196289Q9.17951236328125,102.3313351196289,9.04106236328125,102.2384351196289Q8.90262236328125,102.1454351196289,8.76888236328125,102.0458351196289Q8.63515236328125,101.9461351196289,8.50644236328125,101.84003511962891Q8.37773236328125,101.73393511962891,8.254362363281249,101.6215351196289Q8.13099236328125,101.50913511962891,8.01325236328125,101.3908351196289Q7.8955123632812505,101.27253511962891,7.78370236328125,101.1486351196289Q7.6718823632812505,101.02463511962891,7.56625236328125,100.89533511962891Q7.46062236328125,100.76603511962891,7.36144236328125,100.63163511962891Q7.26225236328125,100.49723511962891,7.16975236328125,100.35813511962891Q7.0772423632812504,100.2190351196289,6.99164336328125,100.07553511962891Q6.90604336328125,99.9320351196289,6.82755436328125,99.78453511962891Q6.74906436328125,99.6369751196289,6.67787536328125,99.48573511962891Q6.60668536328125,99.33449511962891,6.5429673632812495,99.17993511962891Q6.47924936328125,99.0253751196289,6.42315636328125,98.8678551196289Q6.36706236328125,98.71033511962891,6.31872936328125,98.55023511962891Q6.27039536328125,98.39014511962891,6.22993836328125,98.22785511962891Q6.18948136328125,98.0655751196289,6.15699836328125,97.9014851196289Q6.12451496328125,97.7374051196289,6.10008386328125,97.57191511962891Q6.07565266328125,97.4064251196289,6.05933246328125,97.23993511962891Q6.04301226328125,97.07343511962891,6.03484231328125,96.90634511962891Q6.02667236328125,96.7392451196289,6.02667236328125,96.57194511962891Q6.02667236328125,96.40464511962891,6.03484231328125,96.2375451196289Q6.04301226328125,96.0704551196289,6.05933246328125,95.9039551196289Q6.07565266328125,95.73746511962891,6.10008386328125,95.5719751196289Q6.12451496328125,95.40648511962891,6.15699836328125,95.24240511962891Q6.18948136328125,95.07831511962891,6.22993836328125,94.9160351196289Q6.27039536328125,94.7537451196289,6.31872936328125,94.5936551196289Q6.36706236328125,94.4335551196289,6.42315636328125,94.2760351196289Q6.47924936328125,94.11851511962891,6.5429673632812495,93.9639551196289Q6.60668536328125,93.8093851196289,6.67787536328125,93.6581551196289Q6.74906436328125,93.5069151196289,6.82755436328125,93.35937511962891Q6.90604336328125,93.21182511962891,6.99164336328125,93.06832511962891Q7.0772423632812504,92.92483511962891,7.16975236328125,92.7857251196289Q7.26225236328125,92.64662511962891,7.36144236328125,92.5122451196289Q7.46062236328125,92.37787511962891,7.56625236328125,92.2485451196289Q7.6718823632812505,92.11922511962891,7.78370236328125,91.99526511962891Q7.8955123632812505,91.8713051196289,8.01325236328125,91.75300511962891Q8.13099236328125,91.6347051196289,8.254362363281249,91.52235511962891Q8.37773236328125,91.4100051196289,8.50644236328125,91.30387511962891Q8.63515236328125,91.1977351196289,8.76888236328125,91.0980751196289Q8.90262236328125,90.9984151196289,9.04106236328125,90.9054751196289Q9.17951236328125,90.8125251196289,9.32232236328125,90.72651611962891Q9.46514236328125,90.64050711962891,9.61198236328125,90.56164311962891Q9.75882236328125,90.4827781196289,9.909342363281251,90.4112491196289Q10.059862363281251,90.33971911962891,10.21369236328125,90.2756971196289Q10.36752236328125,90.21167411962891,10.524292363281251,90.1553131196289Q10.68106236328125,90.09895111962891,10.84039236328125,90.05038711962891Q10.99972236328125,90.00182311962891,11.16124236328125,89.96117211962891Q11.32275236328125,89.92052211962891,11.486062363281249,89.88788311962891Q11.64936236328125,89.85524521962891,11.81406236328125,89.83069731962891Q11.97876236328125,89.80614941962891,12.144472363281249,89.78975121962891Q12.31017236328125,89.77335311962891,12.47647236328125,89.76514409962891Q12.64277236328125,89.7569351196289,12.80928236328125,89.7569351196289Q12.975782363281251,89.7569351196289,13.14209236328125,89.76514409962891Q13.30839236328125,89.77335311962891,13.474092363281251,89.78975121962891Q13.63979236328125,89.80614941962891,13.80449236328125,89.83069731962891Q13.96919236328125,89.85524521962891,14.13250236328125,89.88788311962891Q14.29580236328125,89.92052211962891,14.45732236328125,89.96117211962891Q14.61883236328125,90.00182311962891,14.77817236328125,90.05038711962891Q14.93750236328125,90.09895111962891,15.09427236328125,90.1553131196289Q15.25104236328125,90.21167411962891,15.40487236328125,90.2756971196289Q15.55870236328125,90.33971911962891,15.70921236328125,90.4112491196289Q15.85973236328125,90.4827781196289,16.00658236328125,90.56164311962891Q16.15337236328125,90.64050711962891,16.29627236328125,90.72651611962891Q16.439072363281248,90.8125251196289,16.577472363281252,90.9054751196289Q16.71597236328125,90.9984151196289,16.84967236328125,91.0980751196289Q16.983372363281248,91.1977351196289,17.11207236328125,91.30387511962891Q17.240872363281248,91.4100051196289,17.36417236328125,91.52235511962891Q17.487572363281252,91.6347051196289,17.60527236328125,91.75300511962891Q17.72307236328125,91.8713051196289,17.83487236328125,91.99526511962891Q17.94667236328125,92.11922511962891,18.05227236328125,92.2485451196289Q18.15797236328125,92.37787511962891,18.25707236328125,92.5122451196289Q18.35627236328125,92.64662511962891,18.44877236328125,92.7857251196289Q18.54127236328125,92.92483511962891,18.62687236328125,93.06832511962891Q18.71247236328125,93.21182511962891,18.79097236328125,93.35937511962891Q18.86947236328125,93.5069151196289,18.94067236328125,93.6581551196289Q19.01187236328125,93.8093851196289,19.07557236328125,93.9639551196289Q19.13927236328125,94.11851511962891,19.19537236328125,94.2760351196289Q19.251472363281252,94.4335551196289,19.29987236328125,94.5936551196289Q19.34817236328125,94.7537451196289,19.38857236328125,94.9160351196289Q19.42907236328125,95.07831511962891,19.46157236328125,95.24240511962891Q19.494072363281248,95.40648511962891,19.518472363281248,95.5719751196289Q19.542872363281248,95.73746511962891,19.559272363281252,95.9039551196289Q19.57557236328125,96.0704551196289,19.583672363281252,96.2375451196289Q19.59187236328125,96.40464511962891,19.59187236328125,96.57194511962891Z" fill="#E7EBF6" fill-opacity="1"/></g><g filter="url(#master_svg0_35_86)"><path d="M116.89622098083495,41.0034L136.85302098083497,113.0852C137.50502098083496,115.5753,136.07002098083495,118.0655,133.59202098083495,118.7207L63.28752098083496,137.462C60.80932098083496,138.11700000000002,58.331020980834964,136.676,57.678820980834956,134.186L33.15710798083496,41.1345C32.50493398083496,38.644400000000005,33.93971698083496,36.1543,36.41798098083496,35.499L87.28752098083496,22L116.89622098083495,41.0034Z" fill="url(#master_svg1__054548)" fill-opacity="1"/></g><g><path d="M115.8527380493164,86.61154431064453L77.89623804931641,96.70303341064454L73.7223380493164,97.75143341064452L61.070147049316404,101.15893341064454C60.54840704931641,101.29003341064453,60.157103049316405,101.94533341064454,60.417972749316405,102.60063341064453C60.54840704931641,103.25593341064453,61.200581049316405,103.64903341064453,61.72231804931641,103.51803341064453L74.37453804931641,100.11053341064454L78.5484380493164,99.06203341064453L116.50493804931641,88.97058341064454C117.0266380493164,88.83953341064453,117.4179380493164,88.18424341064453,117.15713804931642,87.52894941064453C117.0266380493164,86.87366041064453,116.37453804931641,86.48048641064453,115.8527380493164,86.61154431064453Z" fill="#D5DDEA" fill-opacity="1"/></g><g><path d="M113.37444608154297,77.69960606572266L99.28754608154297,81.36922736572265L94.46144608154296,82.67980736572265L58.852755081542966,92.24703736572266C58.33101508154297,92.37813736572265,57.93971108154297,93.03333736572266,58.20058078154297,93.68863736572266C58.33101508154297,94.34393736572265,58.98318908154297,94.73713736572266,59.50492608154297,94.60603736572266L95.24404608154296,85.03884736572266L100.07014608154296,83.72826736572266L114.15714608154298,80.05864736572266C114.67884608154297,79.92758736572266,115.07014608154296,79.27229736572265,114.80924608154297,78.61701136572266C114.54844608154298,78.09277936572266,113.89624608154297,77.56854836572266,113.37444608154297,77.69960606572266Z" fill="#D5DDEA" fill-opacity="1"/></g><g><path d="M111.28748604125977,68.65661132714844L107.63538604125976,69.57401632714844L103.98318604125976,70.49142032714843L56.37449504125976,83.20401032714844C55.85275504125977,83.33511032714844,55.461451041259764,83.99041032714844,55.722320741259765,84.64571032714844C55.85275504125977,85.30101032714843,56.504929041259764,85.69411032714844,57.026666041259766,85.56311032714844L104.63538604125976,72.85046032714844L108.67888604125977,71.80200032714843L111.93968604125976,70.88460032714843C112.46148604125977,70.75354032714844,112.85278604125978,70.09825032714843,112.59188604125976,69.44295832714843C112.46148604125977,68.91872732714843,111.93968604125976,68.52555332714844,111.28748604125977,68.65661132714844Z" fill="#D5DDEA" fill-opacity="1"/></g><g><path d="M89.24406289794922,115.05111166992188L86.63537289794922,115.70640166992187C86.11363089794922,115.83746166992188,85.46145689794922,115.44429166992188,85.33102209794922,114.78900166992187C85.20058729794921,114.13371166992188,85.46145689794922,113.47841966992188,85.98319589794922,113.34736166992188L88.59189289794922,112.69207256992188C89.11363289794922,112.56101466992187,89.76580289794921,112.95418866992188,89.89624289794922,113.60947766992187C90.02667289794923,114.39582166992187,89.76580289794921,114.92006166992188,89.24406289794922,115.05111166992188Z" fill="#CED7E2" fill-opacity="1"/></g><g><path d="M81.28755498657226,117.14803549804688L66.28754498657227,121.07977549804687C65.76580298657227,121.21083549804688,65.11362898657227,120.81765549804688,64.98319418657226,120.16237549804687C64.85275938657226,119.50708549804688,65.11362898657227,118.85179549804687,65.63536798657226,118.72073549804688L80.63535498657227,114.78899639804688C81.15715498657227,114.65793849804687,81.80925498657227,115.05111249804688,81.93975498657227,115.70640149804687C82.20055498657226,116.36169549804687,81.93975498657227,117.01698549804688,81.28755498657226,117.14803549804688Z" fill="#D5DDEA" fill-opacity="1"/></g><g><path d="M109.4614978881836,59.6136189746582L97.5918978881836,62.7590102746582L94.72229788818359,63.5453602746582L54.15710688818359,74.2921502746582C53.6353668881836,74.4231502746582,53.24406288818359,75.07845027465821,53.50493258818359,75.7337502746582C53.6353668881836,76.3890502746582,54.28754088818359,76.7822502746582,54.809277888183594,76.6511502746582L95.2440978881836,66.0354602746582L98.11359788818359,65.24911027465821L109.8527978881836,62.1037202746582C110.50489788818359,61.9726602746582,110.76579788818358,61.3173702746582,110.6353978881836,60.5310242746582C110.6353978881836,60.0067922746582,109.9831978881836,59.4825612746582,109.4614978881836,59.6136189746582Z" fill="#D5DDEA" fill-opacity="1"/></g><g><path d="M81.41795287475585,39.82387744995117L47.765802874755856,48.73581744995117C46.98319287475586,48.997917449951174,46.20058187475586,48.473717449951174,45.93971277475586,47.68731744995117C45.67884287475586,46.90101744995117,46.20058187475586,46.114657449951174,46.98319287475586,45.85253744995117L80.63535287475585,36.940601549951175C81.41795287475585,36.678485449951175,82.20055287475586,37.20271744995117,82.46145287475585,37.98906744995117C82.72235287475586,38.775407449951174,82.20055287475586,39.56175744995117,81.41795287475585,39.82387744995117Z" fill="#D5DDEA" fill-opacity="1"/></g><g><path d="M62.8962448425293,53.45390140625L49.983194842529294,56.861401406249996C49.200584842529295,57.12352140625,48.4179738425293,56.59929140625,48.1571047425293,55.81294140625C47.896234842529296,55.02659140625,48.4179738425293,54.24025140625,49.200584842529295,53.97813140625L61.9831448425293,50.57062550625C62.7658448425293,50.30850940625,63.54844484252929,50.83274140625,63.809244842529296,51.61909140625C64.0701448425293,52.40543140625,63.54844484252929,53.19178140625,62.8962448425293,53.45390140625Z" fill="#D5DDEA" fill-opacity="1"/></g><g><path d="M87.28754425048828,22L92.50493425048828,41.9208C93.28754425048828,44.673,96.28754425048828,46.3768,99.02664425048829,45.5904L116.89624425048828,41.0034" fill="#D5DDEA" fill-opacity="1"/></g><g filter="url(#master_svg2_35_59)"><path d="M169.59184010009767,61.31732592163086L157.59184010009767,135.23422592163087C157.20054010009767,137.72422592163088,154.72234010009765,139.42822592163085,152.24404010009766,138.90322592163085L80.76580010009765,126.32222592163086C78.28754010009766,125.92922592163086,76.59188810009766,123.43922592163086,76.98319220009766,120.94872592163085L93.54844010009765,26.19385592163086C93.93974010009765,23.703755921630858,96.41794010009765,21.99999892163086,98.89624010009766,22.52423012163086L150.80924010009767,31.69828592163086L169.59184010009767,61.31732592163086Z" fill="url(#master_svg3__054548)" fill-opacity="1"/></g><g><path d="M149.6353242919922,102.33848974853515L111.02662429199219,95.52347974853515L106.85272429199219,94.73712974853515L93.93971429199219,92.50914694853516C93.41797829199218,92.37808874853516,92.76580449199218,92.90232074853516,92.76580449199218,93.55760974853516C92.63536929199219,94.21289974853515,93.0266742919922,94.86818974853516,93.54841329199219,94.99924974853516L106.46142429199219,97.22722974853515L110.63532429199219,98.01357974853515L149.2440242919922,104.82862974853515C149.7658242919922,104.95962974853515,150.4180242919922,104.43542974853516,150.4180242919922,103.78012974853516C150.54842429199218,103.12482974853515,150.28752429199218,102.46954974853516,149.6353242919922,102.33848974853515Z" fill="#CED7E2" fill-opacity="1"/></g><g><path d="M151.20057248535156,93.29549811035156L136.85277248535158,90.80539811035156L132.02667248535155,89.88798811035156L95.63536248535156,83.46615531035157C95.11362648535156,83.33509711035157,94.46145268535156,83.85932911035157,94.46145268535156,84.51461811035156C94.33101748535157,85.16990811035156,94.72232248535157,85.82519811035156,95.24406148535157,85.95625811035157L131.63537248535155,92.37809811035156L136.46147248535158,93.29549811035156L150.80927248535156,95.78563811035156C151.33097248535157,95.91663811035156,151.98317248535156,95.39243811035156,151.98317248535156,94.73713811035157C152.11367248535157,94.08183811035155,151.72227248535157,93.42655811035156,151.20057248535156,93.29549811035156Z" fill="#CED7E2" fill-opacity="1"/></g><g><path d="M153.0266242919922,84.12144873291015L149.2440242919922,83.46615873291016L145.4614242919922,82.81086873291015L96.93971429199219,74.29210593291016C96.41797829199218,74.16104773291016,95.76580449199218,74.68527973291016,95.76580449199218,75.34056873291016C95.63536929199219,75.99585873291015,96.0266742919922,76.65114873291016,96.54841329199219,76.78220873291016L145.0701242919922,85.30098873291016L149.2440242919922,86.08728873291015L152.50492429199218,86.61158873291015C153.0266242919922,86.74258873291015,153.67882429199219,86.21838873291016,153.67882429199219,85.56308873291016C153.93972429199218,84.90778873291015,153.67882429199219,84.25250873291016,153.0266242919922,84.12144873291015Z" fill="#D5DDEA" fill-opacity="1"/></g><g><path d="M113.63536051757812,117.01696961425782L111.02666951757813,116.62379961425782C110.50493051757813,116.49273961425781,110.11362551757813,115.8374496142578,110.24406071757812,115.18215961425781C110.37449551757813,114.52687061425782,110.89623451757812,114.00263861425782,111.41797051757813,114.13369681425782L114.02667051757813,114.52687061425782C114.54841051757812,114.65792861425781,114.93971051757812,115.31321961425782,114.80928051757813,115.96850961425781C114.67884051757812,116.75485961425781,114.15710051757813,117.01696961425782,113.63536051757812,117.01696961425782Z" fill="#CED7E2" fill-opacity="1"/></g><g><path d="M105.6788845336914,115.5753405444336L90.41797353369141,112.9541905444336C89.89623453369141,112.8231305444336,89.50492953369141,112.16784054443359,89.6353647336914,111.5125505444336C89.7657995336914,110.8572615444336,90.2875385336914,110.3330295444336,90.80927453369141,110.4640877444336L106.0701845336914,113.08525054443359C106.5918845336914,113.2163005444336,106.9831845336914,113.87159054443359,106.8527845336914,114.5268805444336C106.72228453369141,115.3132305444336,106.2005845336914,115.70640054443359,105.6788845336914,115.5753405444336Z" fill="#E3EAF2" fill-opacity="1"/></g><g><path d="M155.11367248535157,75.2095132800293L142.98317248535156,73.1125832800293L139.98317248535156,72.5883532800293L98.63536248535156,65.2491104800293C98.11362648535156,65.1180522800293,97.46145268535156,65.6422842800293,97.46145268535156,66.2975732800293C97.33101748535157,66.95286328002929,97.72232248535157,67.6081532800293,98.24406148535157,67.7392132800293L139.59187248535156,75.0784532800293L142.59187248535156,75.6026932800293L154.59187248535156,77.69959328002929C155.24407248535155,77.8306932800293,155.76577248535156,77.3063932800293,155.89627248535157,76.6511932800293C156.02667248535155,75.99589328002929,155.63537248535155,75.3405932800293,155.11367248535157,75.2095132800293Z" fill="#D5DDEA" fill-opacity="1"/></g><g><path d="M138.02663475341797,45.459365194091795L103.72232475341796,39.4306951940918C102.93971475341797,39.299645194091795,102.41797575341796,38.513295194091796,102.54841005341797,37.7269451940918C102.67884475341796,36.940599194091796,103.46145375341797,36.416368194091795,104.24406475341797,36.547425894091795L138.54843475341798,42.576085194091796C139.33103475341795,42.707145194091794,139.85273475341796,43.4934951940918,139.72233475341795,44.2798451940918C139.59183475341797,44.9351351940918,138.80923475341797,45.59042519409179,138.02663475341797,45.459365194091795Z" fill="#D5DDEA" fill-opacity="1"/></g><g><path d="M115.4614508178711,49.915336472167965L102.28754081787109,47.55628647216797C101.5049308178711,47.42523647216797,100.98319081787109,46.63888647216797,101.11362611787109,45.85253647216797C101.24406081787109,45.06619047216797,102.0266698178711,44.54195947216797,102.8092808178711,44.67301717216797L115.8527508178711,47.032056472167966C116.6353508178711,47.16311647216797,117.1571508178711,47.94946647216797,117.02665081787109,48.73581647216797C116.89625081787109,49.52215647216797,116.11365081787109,50.04639647216797,115.4614508178711,49.915336472167965Z" fill="#D5DDEA" fill-opacity="1"/></g><g><path d="M150.678834296875,31.69828224182129L147.157094396875,52.01228224182129C146.635355296875,54.89558224182129,148.722314296875,57.64778224182129,151.591874296875,58.17198224182129L169.591904296875,61.31738224182129" fill="#D5DDEA" fill-opacity="1"/></g><g><path d="M149.50491654052735,99.06203586425781Q149.50491654052735,99.77953586425781,149.46991654052735,100.49613586425781Q149.43481654052735,101.2126358642578,149.36481654052733,101.9266358642578Q149.29491654052734,102.6407358642578,149.19011654052736,103.35033586425781Q149.08531654052734,104.06003586425781,148.94601654052735,104.76373586425781Q148.80671654052736,105.46743586425782,148.63321654052734,106.16333586425782Q148.45971654052735,106.85933586425782,148.25241654052735,107.54583586425781Q148.04521654052735,108.23243586425781,147.80461654052735,108.90793586425781Q147.56401654052735,109.58343586425781,147.29081654052735,110.24633586425782Q147.01751654052734,110.90913586425782,146.71221654052735,111.55773586425781Q146.40701654052734,112.20633586425781,146.07041654052733,112.83903586425781Q145.73381654052736,113.47173586425781,145.36671654052734,114.08713586425782Q144.99961654052734,114.70253586425781,144.60291654052736,115.2991358642578Q144.20621654052735,115.89563586425781,143.78081654052735,116.47193586425782Q143.35551654052733,117.04813586425782,142.90251654052736,117.60273586425781Q142.44951654052733,118.15733586425782,141.97001654052735,118.68893586425781Q141.49041654052735,119.22053586425781,140.98551654052733,119.72793586425782Q140.48061654052734,120.23523586425782,139.95161654052734,120.71703586425781Q139.42251654052734,121.1988358642578,138.87051654052735,121.65403586425782Q138.31861654052733,122.10913586425781,137.74501654052733,122.53653586425781Q137.17151654052734,122.96393586425782,136.57781654052735,123.36253586425781Q135.98411654052734,123.76113586425781,135.37161654052733,124.12993586425782Q134.75921654052735,124.49883586425781,134.12951654052733,124.83703586425781Q133.49971654052734,125.17523586425781,132.85421654052735,125.48193586425782Q132.20871654052735,125.7887358642578,131.54901654052736,126.06323586425782Q130.88941654052735,126.33783586425781,130.21711654052734,126.57953586425782Q129.54471654052736,126.82123586425782,128.86151654052736,127.02953586425781Q128.17821654052733,127.23773586425781,127.48551654052734,127.4121358642578Q126.79291654052734,127.58643586425782,126.09251654052734,127.72643586425781Q125.39221654052734,127.86633586425782,124.68591654052734,127.97163586425782Q123.97961654052735,128.07693586425782,123.26901654052735,128.14723586425782Q122.55841654052735,128.2175358642578,121.84521654052735,128.25273586425783Q121.13201654052735,128.2879358642578,120.41801654052735,128.2879358642578Q119.70391654052735,128.2879358642578,118.99071654052734,128.25273586425783Q118.27751654052734,128.2175358642578,117.56691654052734,128.14723586425782Q116.85631654052735,128.07693586425782,116.15001654052735,127.97163586425782Q115.44371654052735,127.86633586425782,114.74341654052735,127.72643586425781Q114.04301654052735,127.58643586425782,113.35041654052735,127.4121358642578Q112.65781654052734,127.23773586425781,111.97451654052735,127.02953586425781Q111.29121654052734,126.82123586425782,110.61891654052735,126.57953586425782Q109.94651654052734,126.33783586425781,109.28691654052734,126.06323586425782Q108.62721654052734,125.7887358642578,107.98171654052734,125.48193586425782Q107.33621654052735,125.17523586425781,106.70651654052735,124.83703586425781Q106.07671654052734,124.49883586425781,105.46431654052735,124.12993586425782Q104.85181654052734,123.76113586425781,104.25811654052734,123.36253586425781Q103.66441654052734,122.96393586425782,103.09091654052735,122.53653586425781Q102.51731654052735,122.10913586425781,101.96541654052734,121.65403586425782Q101.41341654052735,121.1988358642578,100.88436654052734,120.71703586425781Q100.35529654052735,120.23523586425782,99.85038654052734,119.72793586425782Q99.34547654052734,119.22053586425781,98.86595654052735,118.68893586425781Q98.38643654052734,118.15733586425782,97.93344654052734,117.60273586425781Q97.48046654052735,117.04813586425782,97.05510654052735,116.47193586425782Q96.62975654052734,115.89563586425781,96.23304654052734,115.2991358642578Q95.83634654052734,114.70253586425781,95.46925654052734,114.08713586425782Q95.10216654052735,113.47173586425781,94.76556654052735,112.83903586425781Q94.42896654052734,112.20633586425781,94.12367654052734,111.55773586425781Q93.81838654052734,110.90913586425782,93.54512654052735,110.24633586425782Q93.27187654052734,109.58343586425781,93.03131654052734,108.90793586425781Q92.79076654052734,108.23243586425781,92.58348654052735,107.54583586425781Q92.37621654052734,106.85933586425782,92.20271554052735,106.16333586425782Q92.02921754052734,105.46743586425782,91.88991454052734,104.76373586425781Q91.75061054052735,104.06003586425781,91.64583854052735,103.35033586425781Q91.54106654052734,102.6407358642578,91.47107854052734,101.9266358642578Q91.40108954052734,101.2126358642578,91.36605304052735,100.49613586425781Q91.33101654052734,99.77953586425781,91.33101654052734,99.06203586425781Q91.33101654052734,98.34463586425781,91.36605304052735,97.62803586425781Q91.40108954052734,96.91143586425781,91.47107854052734,96.19743586425781Q91.54106654052734,95.48343586425781,91.64583854052735,94.77373586425782Q91.75061054052735,94.06403586425782,91.88991454052734,93.36033586425782Q92.02921754052734,92.65663586425781,92.20271554052735,91.96073586425781Q92.37621654052734,91.26473586425782,92.58348654052735,90.5782358642578Q92.79076654052734,89.89163586425781,93.03131654052734,89.21613586425781Q93.27187654052734,88.54063586425781,93.54512654052735,87.87773586425782Q93.81838654052734,87.21493586425781,94.12367654052734,86.56633586425781Q94.42896654052734,85.91783586425781,94.76556654052735,85.28503586425781Q95.10216654052735,84.65233586425781,95.46925654052734,84.03693586425781Q95.83634654052734,83.4215358642578,96.23304654052734,82.82503586425781Q96.62975654052734,82.22843586425782,97.05510654052735,81.65223586425782Q97.48046654052735,81.07593586425781,97.93344654052734,80.52133586425781Q98.38643654052734,79.96673586425781,98.86595654052735,79.43512586425781Q99.34547654052734,78.90352586425782,99.85038654052734,78.39620586425781Q100.35529654052735,77.88888586425782,100.88436654052734,77.40707586425782Q101.41341654052735,76.92526586425781,101.96541654052734,76.4701158642578Q102.51731654052735,76.01496586425782,103.09091654052735,75.58757586425781Q103.66441654052734,75.16018586425781,104.25811654052734,74.76158586425781Q104.85181654052734,74.36299586425781,105.46431654052735,73.99414586425782Q106.07671654052734,73.62529586425781,106.70651654052735,73.28709586425781Q107.33621654052735,72.94888586425782,107.98171654052734,72.64213586425781Q108.62721654052734,72.33538586425782,109.28691654052734,72.06082586425781Q109.94651654052734,71.78626586425781,110.61891654052735,71.5445658642578Q111.29121654052734,71.30285586425781,111.97451654052735,71.09459586425781Q112.65781654052734,70.88632586425781,113.35041654052735,70.71199986425782Q114.04301654052735,70.53767186425782,114.74341654052735,70.3977038642578Q115.44371654052735,70.25773486425781,116.15001654052735,70.15246186425782Q116.85631654052735,70.04718986425782,117.56691654052734,69.97686686425781Q118.27751654052734,69.90654366425781,118.99071654052734,69.87133976425781Q119.70391654052735,69.83613586425781,120.41801654052735,69.83613586425781Q121.13201654052735,69.83613586425781,121.84521654052735,69.87133976425781Q122.55841654052735,69.90654366425781,123.26901654052735,69.97686686425781Q123.97961654052735,70.04718986425782,124.68591654052734,70.15246186425782Q125.39221654052734,70.25773486425781,126.09251654052734,70.3977038642578Q126.79291654052734,70.53767186425782,127.48551654052734,70.71199986425782Q128.17821654052733,70.88632586425781,128.86151654052736,71.09459586425781Q129.54471654052736,71.30285586425781,130.21711654052734,71.5445658642578Q130.88941654052735,71.78626586425781,131.54901654052736,72.06082586425781Q132.20871654052735,72.33538586425782,132.85421654052735,72.64213586425781Q133.49971654052734,72.94888586425782,134.12941654052736,73.28709586425781Q134.75921654052735,73.62529586425781,135.37161654052733,73.99414586425782Q135.98411654052734,74.36299586425781,136.57781654052735,74.76158586425781Q137.17151654052734,75.16018586425781,137.74501654052733,75.58757586425781Q138.31861654052733,76.01496586425782,138.87051654052735,76.4701158642578Q139.42251654052734,76.92526586425781,139.95161654052734,77.40707586425782Q140.48061654052734,77.88888586425782,140.98551654052733,78.39620586425781Q141.49041654052735,78.90352586425782,141.97001654052735,79.43512586425781Q142.44951654052733,79.96673586425781,142.90251654052736,80.52133586425781Q143.35551654052733,81.07593586425781,143.78081654052735,81.65223586425782Q144.20621654052735,82.22843586425782,144.60291654052736,82.82503586425781Q144.99961654052734,83.4215358642578,145.36671654052734,84.03693586425781Q145.73381654052736,84.65233586425781,146.07041654052733,85.28503586425781Q146.40701654052734,85.91783586425781,146.71221654052735,86.56633586425781Q147.01751654052734,87.21493586425781,147.29081654052735,87.87773586425782Q147.56401654052735,88.54063586425781,147.80461654052735,89.21613586425781Q148.04521654052735,89.89163586425781,148.25241654052735,90.5782358642578Q148.45971654052735,91.26473586425782,148.63321654052734,91.96073586425781Q148.80671654052736,92.65663586425781,148.94601654052735,93.36033586425782Q149.08531654052734,94.06403586425782,149.19011654052736,94.77373586425782Q149.29491654052734,95.48343586425781,149.36481654052733,96.19743586425781Q149.43481654052735,96.91143586425781,149.46991654052735,97.62803586425781Q149.50491654052735,98.34463586425781,149.50491654052735,99.06203586425781Z" fill="#FFFFFF" fill-opacity="1"/></g><g><path d="M117.548410234375,102.07639041748047C117.548410234375,102.73169041748046,117.548410234375,103.25589041748047,117.678850234375,103.78009041748047L121.983240234375,103.78009041748047L121.983240234375,103.51799041748046C121.983240234375,101.94529041748046,122.765840234375,100.63479041748047,124.200540234375,99.58629041748047L125.896240234375,98.40679041748047C128.244040234375,96.70299041748046,129.939740234375,94.47499041748047,129.939740234375,91.19858041748047C129.939740234375,87.13579041748046,126.548440234375,83.07299041748047,120.287540234375,83.07299041748047C114.157110234375,83.07299041748047,110.896240234375,87.26684041748047,110.896240234375,91.72281041748047C110.896240234375,92.37810041748047,111.026675234375,93.03339041748046,111.157110234375,93.55759041748047L116.374500234375,93.68869041748047C116.244070234375,93.29549041748047,116.244070234375,92.90233041748047,116.244070234375,92.37810041748047C116.244070234375,90.15012041748047,117.548410234375,87.79107041748047,120.417980234375,87.79107041748047C123.15714023437499,87.79107041748047,124.461440234375,89.62589041748046,124.461440234375,91.46070041748047C124.461440234375,92.77128041748047,123.939740234375,93.81969041748047,122.765840234375,94.73719041748046L120.809280234375,96.17879041748047C118.461460234375,97.88249041748047,117.548410234375,99.84839041748047,117.548410234375,102.07639041748047ZM123.15714023437499,109.67779041748047C123.15714023437499,107.84289041748048,121.722340234375,106.40129041748047,119.896250234375,106.40129041748047C118.070160234375,106.40129041748047,116.765810234375,107.97399041748046,116.635380234375,109.67779041748047C116.635380234375,111.51259041748047,118.070160234375,112.95419041748048,119.896250234375,112.95419041748048C121.722340234375,112.95419041748048,123.15714023437499,111.51259041748047,123.15714023437499,109.67779041748047Z" fill-rule="evenodd" fill="#989FB0" fill-opacity="1"/></g><g><path d="M160.79533621826172,142.96380126953125C161.69923621826172,143.98480126953126,162.8275362182617,144.43820126953125,163.95713621826172,144.43820126953125C165.76363621826172,144.43820126953125,167.57013621826172,143.07780126953125,168.47273621826173,141.26270126953125C168.81193621826174,140.24180126953127,169.26323621826174,138.31260126953126,167.34453621826174,136.38470126953126L148.37663621826172,117.32630126953126L148.82793621826173,116.64480126953126C156.1662362182617,105.86790126953125,156.95663621826174,92.48160126953125,150.97233621826172,81.02460126953125C144.87583621826172,69.45345126953126,133.58533621826172,62.64630126953125,120.71533621826171,62.64630126953125C101.85973621826172,62.64630126953125,86.50493621826172,78.07440126953125,86.50493621826172,97.02020126953124C86.50493621826172,106.54940126953124,90.23145621826171,115.28440126953126,97.00493621826172,121.75080126953125C103.44063621826172,127.87640126953124,112.13403621826171,131.39270126953124,120.82753621826171,131.39270126953124C128.05363621826172,131.39270126953124,135.1662362182617,129.01010126953125,141.26273621826172,124.47290126953125L141.94103621826173,124.01940126953124L160.79533621826172,142.96380126953125ZM95.87670621826172,97.02020126953124C95.87670621826172,83.29320126953125,106.94013621826171,72.06281126953125,120.71543621826171,72.06281126953125C130.31143621826172,72.06281126953125,138.89273621826172,77.50830126953124,143.1827362182617,86.24330126953126C147.36063621826173,94.97830126953124,146.3445362182617,105.07370126953126,140.36013621826172,112.56100126953126C135.5054362182617,118.68670126953126,128.6184362182617,122.09020126953125,121.05323621826172,122.09020126953125C108.63453621826172,122.09020126953125,95.87670621826172,112.67500126953125,95.87670621826172,97.02020126953124Z" fill-rule="evenodd" fill="#989FB0" fill-opacity="1"/></g></g></svg>