<svg xmlns="http://www.w3.org/2000/svg" fill="none" width="64" height="64"><defs><clipPath id="prefix__a"><rect width="64" height="64" rx="5"/></clipPath></defs><g clip-path="url(#prefix__a)"><rect width="64" height="64" rx="5" fill="#030712"/><path d="M18.8 14h26.4a4.8 4.8 0 014.8 4.8v9.6h-7.2v-6.2a1 1 0 00-1-1H22.2a1 1 0 00-1 1v6.2H14v-9.6a4.8 4.8 0 014.8-4.8zm2.4 21.6v-7.2h7.2v7.2h-7.2zm0 6.2v-6.2H14v9.6a4.8 4.8 0 004.8 4.8h26.4a4.8 4.8 0 004.8-4.8v-9.6h-7.2v-7.2h-7.2v7.2h7.2v6.2a1 1 0 01-1 1H22.2a1 1 0 01-1-1" fill-rule="evenodd" fill="#FFF"/></g></svg>