<svg xmlns="http://www.w3.org/2000/svg" fill="none" width="128" height="128"><defs><linearGradient x1=".5" y1="-.023" x2=".5" y2="1.011" id="prefix__c"><stop offset="0%" stop-color="#FDFEFF"/><stop offset="99.64%" stop-color="#ECF0F5"/></linearGradient><clipPath id="prefix__a"><rect width="128" height="128" rx="0"/></clipPath><filter id="prefix__b" filterUnits="objectBoundingBox" color-interpolation-filters="sRGB" x="-.231" y="-.301" width="1.462" height="1.834"><feFlood flood-opacity="0" result="BackgroundImageFix"/><feColorMatrix in="SourceAlpha" values="0 0 0 0 0 0 0 0 0 0 0 0 0 0 0 0 0 0 127 0"/><feOffset dy="5"/><feGaussianBlur stdDeviation="4.5"/><feColorMatrix values="0 0 0 0 0.3960784375667572 0 0 0 0 0.47843137383461 0 0 0 0 0.5764706134796143 0 0 0 0.27000001072883606 0"/><feBlend in2="BackgroundImageFix" result="effect1_dropShadow"/><feBlend in="SourceGraphic" in2="effect1_dropShadow" result="shape"/></filter></defs><g clip-path="url(#prefix__a)"><path d="M118.926 66.92q0 1.238-.061 2.474-.062 1.236-.184 2.468-.123 1.231-.307 2.456-.183 1.224-.428 2.437-.245 1.214-.55 2.415-.303 1.2-.666 2.384-.364 1.185-.786 2.35-.422 1.165-.9 2.309-.48 1.143-1.015 2.262-.535 1.118-1.125 2.21-.59 1.091-1.235 2.153-.643 1.061-1.338 2.09-.696 1.03-1.442 2.024-.746.993-1.54 1.95-.794.956-1.636 1.874-.84.916-1.726 1.792-.885.875-1.813 1.706-.928.83-1.895 1.616-.969.785-1.974 1.523-1.005.736-2.047 1.424-1.04.688-2.115 1.324-1.074.636-2.178 1.22-1.104.583-2.236 1.112-1.132.53-2.288 1.003-1.157.474-2.336.89-1.179.417-2.377.777-1.198.359-2.413.66-1.214.3-2.442.542-1.228.24-2.467.422-1.238.182-2.485.303-1.246.122-2.496.182-1.25.061-2.503.061-1.252 0-2.502-.06-1.25-.06-2.497-.183-1.246-.12-2.484-.303-1.239-.182-2.467-.422-1.228-.242-2.443-.542-1.214-.301-2.412-.66-1.198-.36-2.377-.777-1.18-.416-2.336-.89-1.157-.473-2.289-1.003-1.131-.529-2.236-1.112-1.104-.584-2.178-1.22-1.074-.636-2.115-1.324-1.04-.688-2.046-1.424-1.006-.738-1.974-1.523-.968-.785-1.896-1.616-.927-.83-1.813-1.706-.885-.875-1.726-1.792-.84-.918-1.635-1.874-.794-.957-1.54-1.95-.746-.995-1.442-2.024-.695-1.029-1.339-2.09-.644-1.062-1.234-2.153-.59-1.092-1.125-2.21-.536-1.119-1.015-2.262-.479-1.144-.9-2.309-.423-1.165-.786-2.35-.363-1.184-.668-2.384-.304-1.2-.548-2.415-.244-1.213-.428-2.437-.184-1.225-.307-2.456-.122-1.232-.184-2.468-.061-1.236-.061-2.474 0-1.237.061-2.473.062-1.236.184-2.468.123-1.232.307-2.456t.428-2.438q.244-1.214.548-2.414.305-1.2.668-2.385.363-1.184.785-2.35.422-1.164.901-2.308.48-1.143 1.015-2.262.535-1.119 1.125-2.21.59-1.092 1.234-2.153.644-1.062 1.34-2.09.695-1.03 1.44-2.024.747-.994 1.541-1.95.794-.957 1.635-1.874.841-.917 1.726-1.792.886-.875 1.813-1.706.928-.831 1.896-1.616.968-.785 1.974-1.523 1.005-.737 2.046-1.424 1.041-.688 2.115-1.324 1.074-.636 2.178-1.22 1.105-.583 2.236-1.112 1.132-.53 2.29-1.003 1.156-.474 2.335-.89 1.179-.417 2.377-.777 1.198-.359 2.412-.66 1.215-.3 2.443-.542 1.228-.241 2.467-.423 1.238-.181 2.484-.303 1.246-.121 2.497-.182 1.25-.06 2.502-.06 1.252 0 2.503.06 1.25.06 2.496.182 1.247.122 2.485.303 1.239.182 2.467.423 1.228.242 2.442.542 1.215.301 2.413.66 1.198.36 2.377.776 1.179.417 2.336.891 1.156.474 2.288 1.003 1.132.529 2.236 1.112 1.104.584 2.178 1.22 1.074.636 2.115 1.324 1.042.687 2.047 1.424 1.005.738 1.974 1.523.967.785 1.895 1.616.928.831 1.813 1.706.885.875 1.726 1.792.842.917 1.635 1.874.795.956 1.541 1.95.746.994 1.442 2.023.695 1.03 1.338 2.091.644 1.061 1.235 2.153.59 1.091 1.125 2.21t1.015 2.262q.478 1.144.9 2.309.422 1.165.786 2.35.363 1.184.667 2.384.304 1.2.549 2.414.245 1.214.428 2.438.184 1.224.307 2.456.122 1.232.184 2.468.06 1.236.06 2.473z" fill="#EAEEF9" style="mix-blend-mode:passthrough"/><path d="M106.99 60.341v30.846c0 6.408-5.237 11.62-11.763 11.62H40.79c-6.44 0-11.677-5.126-11.763-11.535V60.342v-.172c0-.17 0-.342.086-.512.085-.257.171-.428.257-.684l14.597-27.77c.515-1.11 1.632-1.709 2.834-1.709h42.33c1.203 0 2.233.598 2.834 1.71l14.598 27.769c.085.17.171.427.257.684.172.17.172.427.172.683z" fill="#D5DDEA" style="mix-blend-mode:passthrough"/><g filter="url(#prefix__b)"><path d="M106.99 60.341v34.007c0 4.7-3.777 8.46-8.586 8.46H37.612c-4.722 0-8.586-3.76-8.586-8.46V60.17c0-.17 0-.342.086-.512h19.577c2.92 0 5.323 2.307 5.323 5.297 0 1.453.601 2.82 1.546 3.76 1.03 1.025 2.232 1.538 3.778 1.538h17.43c2.92 0 5.324-2.307 5.324-5.298 0-1.452.601-2.82 1.545-3.76 1.03-1.025 2.233-1.537 3.693-1.537h19.491c.172.17.172.427.172.683z" fill="url(#prefix__c)" style="mix-blend-mode:passthrough"/></g><path d="M117.622 42.825a3.514 3.514 0 003.52-3.504 3.514 3.514 0 00-3.52-3.503 3.514 3.514 0 00-3.52 3.503 3.514 3.514 0 003.52 3.504zM114.102 31.46a2.397 2.397 0 002.404-2.392 2.397 2.397 0 00-2.404-2.392 2.396 2.396 0 00-2.404 2.392 2.396 2.396 0 002.404 2.392zM16.732 39.321a2.397 2.397 0 002.404-2.392 2.397 2.397 0 00-2.404-2.392 2.396 2.396 0 00-2.405 2.392 2.396 2.396 0 002.405 2.392zM15.787 87.513q0 .109-.005.218-.006.109-.016.217-.011.109-.027.217t-.038.215q-.021.107-.048.212-.026.106-.058.21-.032.105-.069.208-.037.102-.079.203-.042.1-.089.2-.046.098-.098.194-.052.096-.108.19-.057.094-.117.184-.061.091-.127.179-.065.087-.134.172-.07.084-.144.165-.073.08-.15.158-.078.077-.16.15-.08.073-.165.142-.085.07-.173.135-.088.065-.18.125-.09.06-.184.117-.094.056-.191.107-.097.052-.196.098-.099.047-.2.089-.101.042-.205.078-.103.037-.208.069-.105.031-.211.058-.106.026-.214.048-.107.02-.216.037-.108.016-.217.027-.11.01-.219.016-.11.005-.219.005-.11 0-.219-.005-.11-.006-.219-.016-.109-.011-.217-.027t-.216-.037q-.107-.022-.214-.048-.106-.027-.211-.058-.105-.032-.208-.069-.103-.036-.205-.078-.1-.042-.2-.089-.099-.046-.196-.098-.096-.051-.19-.107t-.185-.117q-.092-.06-.18-.125t-.172-.135q-.085-.069-.166-.142-.082-.073-.16-.15-.077-.078-.15-.158-.074-.081-.143-.165-.07-.085-.135-.172-.065-.088-.126-.179-.061-.09-.118-.184-.056-.094-.108-.19-.051-.096-.098-.194-.047-.1-.089-.2-.042-.1-.079-.203-.037-.103-.069-.207-.031-.105-.058-.21-.027-.106-.048-.213t-.038-.215q-.016-.108-.026-.217-.011-.108-.016-.217-.006-.11-.006-.218 0-.11.006-.218.005-.11.016-.218.01-.108.026-.216.017-.108.038-.215.021-.107.048-.213t.058-.21q.032-.104.07-.207.036-.103.078-.204.042-.1.089-.199.047-.098.098-.195.052-.096.108-.19.057-.093.118-.184.06-.09.126-.178.065-.088.135-.172.07-.084.143-.165.073-.08.15-.158.078-.077.16-.15.08-.074.166-.143.084-.069.172-.134.088-.065.18-.126.09-.06.185-.116.094-.056.19-.108.097-.051.196-.098.1-.046.2-.088.102-.042.205-.079.103-.036.208-.068.105-.032.211-.058.107-.027.214-.048.108-.021.216-.037.108-.016.217-.027.11-.01.219-.016.11-.005.22-.005.109 0 .218.005.11.005.219.016.109.01.217.027.109.016.216.037.108.021.214.048.106.026.211.058t.208.068q.104.037.205.079.101.042.2.088.1.047.196.098.097.052.19.108.095.056.186.116.09.061.179.126.088.065.173.134.084.07.166.143.08.073.158.15t.151.158q.074.08.144.165.07.084.134.172.066.088.127.178.06.091.117.185.056.093.108.19.052.096.098.194.047.099.09.2.041.1.078.203.037.103.069.207.032.104.058.21.027.106.048.213.022.107.038.215t.027.216q.01.109.016.218.005.109.005.218z" fill="#EAEEF9" style="mix-blend-mode:passthrough"/><path d="M90.403 20.79l-.153-1.644-1.517.14.153 1.645 1.517-.141zm.553 6.138l-.267-3.084-1.518.132.267 3.083 1.518-.131zm.231 6.282q.034-1.42-.03-3.02l-1.522.06q.061 1.552.029 2.924l1.523.036zm-.617 6.274q.275-1.671.425-3.168l-1.517-.151q-.145 1.448-.412 3.072l1.504.247zm-15.922-.39q-1.725-.516-3.466-.172l.296 1.495q1.37-.271 2.733.137l.437-1.46zm-6.59 1.51q-1.183 1.258-1.665 3.038l1.47.398q.383-1.412 1.305-2.393l-1.11-1.044zm11.493 3.075q-.696-1.63-1.94-2.802l-1.045 1.11q1.012.952 1.584 2.29l1.401-.598zm9.826 1.692q.348-1.513.615-2.804L88.5 42.26q-.26 1.259-.6 2.734l-.093.277 1.445.485.117-.348.008-.036zm-23.059 2.087q.262 1.449.909 2.794l1.373-.66q-.561-1.168-.785-2.424l-.004-.022-.006-.022q-.037-.156-.066-.316l-1.5.272q.035.19.08.378zm14.002.7q.028-.603-.01-1.198l-1.52.095q.032.512.008 1.032-.042.914-.235 1.867l1.494.301q.216-1.068.263-2.098zm6.315 3.51q.837-1.189 1.547-2.927l-1.41-.576q-.645 1.578-1.383 2.625l1.246.878zm-17.531 1.347q1.156 1.255 2.608 2.095l.763-1.319q-1.251-.724-2.25-1.809l-1.121 1.033zm8.985 2.438q.565-1.015.998-2.059l-1.407-.584q-.46 1.11-1.085 2.188-.736-.035-1.44-.183l-.312 1.492q1.609.336 3.343.172l-.097-1.026zm3.34.265q1.619-.621 2.918-1.634l-.936-1.202q-1.12.873-2.528 1.413l.546 1.423zm-7.305 5.798q1.157-1.472 1.867-2.529l-1.264-.85q-.68 1.01-1.802 2.438l1.199.941zm-3.73 4.88q.908-1.258 1.835-2.464l-1.208-.929q-.94 1.225-1.863 2.502l1.236.892zm-2.699 3.891l.934-1.378-1.262-.855-.933 1.378 1.261.855z" fill-rule="evenodd" fill="#ABB5CC" style="mix-blend-mode:passthrough"/><path d="M96.063 14.679c-.448 1.632-2.24 2.222-4.032 1.188-1.942-.889-3.286-1.632-2.988-3.11.449-1.479 2.24-1.624 4.331-1.77 2.54-.298 2.988 2.068 2.689 3.692zM81.576 16.157c.747 1.333 2.838 2.222 4.331.889 1.643-1.478 2.987-2.512 2.24-3.99-.746-1.333-1.94-.89-4.48-.59-2.09.444-2.987 2.213-2.09 3.691z" fill="#DAE2EB" style="mix-blend-mode:passthrough"/><path d="M88.148 10.689c1.045-.146 2.09.444 2.39 1.333.149.29.298.734.298 1.033.298 2.068-.448 3.846-1.643 3.99-1.344.3-2.688-1.178-2.837-3.1V12.61c.15-1.034.746-1.777 1.792-1.922q.15 0 0 0zM58.211 82.523c1.088 0 1.97-.88 1.97-1.965a1.966 1.966 0 00-1.97-1.957c-1.088 0-1.97.88-1.97 1.957 0 1.085.882 1.965 1.97 1.965zM77.804 82.523c1.088 0 1.97-.88 1.97-1.965a1.966 1.966 0 00-1.97-1.957c-1.087 0-1.97.88-1.97 1.957 0 1.085.883 1.965 1.97 1.965zM71.202 95.4h-6.176a1.769 1.769 0 01-1.757-1.752c0-.957.799-1.752 1.757-1.752h6.123c.958 0 1.757.795 1.757 1.752.053.957-.745 1.751-1.704 1.751z" fill="#989FB0" style="mix-blend-mode:passthrough"/></g></svg>