<svg xmlns="http://www.w3.org/2000/svg" fill="none" width="128" height="128"><defs><linearGradient x1=".5" y1="-.023" x2=".5" y2="1.011" id="prefix__c"><stop offset="0%" stop-color="#FDFEFF"/><stop offset="99.64%" stop-color="#ECF0F5"/></linearGradient><clipPath id="prefix__a"><rect width="128" height="128" rx="0"/></clipPath><filter id="prefix__b" filterUnits="objectBoundingBox" color-interpolation-filters="sRGB" x="-.614" y="-.361" width="2.228" height="1.962"><feFlood flood-opacity="0" result="BackgroundImageFix"/><feColorMatrix in="SourceAlpha" values="0 0 0 0 0 0 0 0 0 0 0 0 0 0 0 0 0 0 127 0"/><feOffset dy="11"/><feGaussianBlur stdDeviation="11"/><feColorMatrix values="0 0 0 0 0.3960784375667572 0 0 0 0 0.47843137383461 0 0 0 0 0.5764706134796143 0 0 0 0.27000001072883606 0"/><feBlend in2="BackgroundImageFix" result="effect1_dropShadow"/><feBlend in="SourceGraphic" in2="effect1_dropShadow" result="shape"/></filter></defs><g clip-path="url(#prefix__a)"><path d="M71.134 117.333c28.332 0 51.301-22.907 51.301-51.263 0-28.358-23.07-51.265-51.301-51.265-28.332 0-51.302 22.907-51.302 51.265 0 28.356 22.97 51.263 51.302 51.263zM123.244 28.326q0 .102-.005.203-.005.102-.015.203-.01.101-.025.201-.015.1-.034.2-.02.1-.045.199-.025.098-.054.195-.03.098-.064.193-.035.096-.074.19-.039.094-.082.185-.044.092-.092.182t-.1.176q-.052.088-.109.172-.057.084-.117.166-.06.082-.125.16-.065.079-.133.154-.069.075-.14.147-.073.072-.148.14-.076.068-.155.133-.078.064-.16.125-.082.06-.167.117-.084.056-.172.108-.087.052-.177.1-.09.048-.182.092-.092.043-.186.082-.094.039-.19.073-.096.034-.193.064-.098.03-.196.054-.1.024-.199.044-.1.02-.2.035-.101.015-.203.025-.101.01-.203.015-.102.005-.203.005-.102 0-.204-.005t-.203-.015q-.101-.01-.202-.025-.1-.015-.2-.035-.1-.02-.2-.044-.098-.025-.196-.054-.097-.03-.193-.064t-.19-.073q-.094-.04-.186-.082-.092-.044-.182-.092t-.177-.1q-.088-.052-.172-.108-.085-.057-.167-.117-.082-.06-.16-.125-.079-.065-.154-.133-.076-.068-.148-.14-.072-.072-.14-.147-.069-.075-.133-.154-.065-.078-.126-.16-.06-.082-.117-.166-.056-.084-.109-.172-.052-.087-.1-.176-.048-.09-.092-.182-.043-.091-.082-.185-.04-.094-.073-.19-.035-.095-.064-.193-.03-.097-.055-.195-.024-.099-.044-.198-.02-.1-.035-.2-.015-.101-.025-.202-.01-.101-.015-.203-.005-.101-.005-.203 0-.101.005-.203.005-.101.015-.202.01-.101.025-.202.015-.1.035-.2.02-.1.044-.198.025-.098.055-.196.03-.097.064-.192.034-.096.073-.19.039-.094.082-.186.044-.091.092-.181t.1-.177q.053-.087.11-.171.056-.085.116-.166.061-.082.126-.16.064-.079.133-.154.068-.075.14-.147.072-.072.148-.14.075-.068.154-.133.078-.064.16-.125.082-.06.167-.117.084-.056.172-.108.087-.053.177-.1.09-.048.182-.092.092-.043.186-.082.094-.039.19-.073.096-.034.193-.064.098-.03.197-.054.098-.025.198-.045.1-.02.2-.034.102-.015.203-.025.101-.01.203-.015.102-.005.204-.005.101 0 .203.005.102.005.203.015.102.01.202.025.101.015.201.034.1.02.199.045.098.025.196.054.097.03.193.064t.19.073q.094.039.186.082.092.044.182.091.09.048.177.1.088.053.172.11.085.056.167.116.082.06.16.125.08.065.155.133t.147.14q.072.072.14.147.069.075.134.154.064.078.125.16.06.081.117.166.057.084.109.171.052.087.1.177.048.09.092.181.043.092.082.186.04.094.074.19.034.095.064.192.03.098.054.196.025.099.045.198.02.1.034.2.015.1.025.202.01.1.015.202.005.102.005.203zM128 13.492q0 .139-.014.277-.013.138-.04.274-.028.137-.068.27-.04.132-.094.26-.053.129-.119.251-.065.123-.142.238-.078.115-.166.223-.088.107-.187.205-.098.098-.206.186-.107.088-.223.166-.116.077-.239.142-.122.066-.251.119-.129.053-.262.093t-.27.067q-.136.028-.275.041-.138.014-.277.014-.14 0-.278-.014-.138-.013-.275-.04-.136-.028-.27-.068-.133-.04-.261-.093-.129-.053-.252-.119-.123-.065-.238-.142-.116-.078-.224-.166-.107-.088-.206-.186-.098-.098-.186-.205-.089-.108-.166-.223-.077-.115-.143-.238-.065-.122-.119-.25-.053-.129-.093-.262-.04-.132-.068-.269-.027-.136-.04-.274-.014-.138-.014-.277t.013-.277q.014-.138.041-.274.027-.136.068-.269.04-.133.093-.261.054-.128.12-.25.065-.123.142-.239.077-.115.166-.222.088-.108.186-.206.099-.098.206-.186.108-.088.224-.165.115-.077.238-.143.123-.065.252-.118.128-.053.261-.094.134-.04.27-.067.137-.027.275-.04.139-.014.278-.014t.277.013q.139.014.276.041.136.027.27.067.132.04.261.094.129.053.251.118.123.066.239.143.116.077.223.165.108.088.206.186.099.098.187.206.088.107.166.222.077.116.142.238.066.123.12.25.053.13.093.262.04.133.068.269.027.136.04.274.014.138.014.277zM25.398 29.537q0 .14-.014.277-.014.138-.04.275-.028.136-.068.269-.04.132-.094.26-.053.129-.119.251-.066.123-.143.238-.077.116-.165.223-.089.107-.187.205-.099.098-.206.187-.108.088-.224.165-.115.077-.238.142-.123.066-.251.119-.129.053-.262.093t-.27.068q-.136.027-.275.04-.138.014-.278.014-.139 0-.277-.014-.139-.013-.275-.04-.137-.027-.27-.068-.133-.04-.262-.093-.128-.053-.251-.119-.123-.065-.239-.142-.115-.077-.223-.165-.108-.089-.206-.187-.098-.098-.187-.205-.088-.107-.165-.223-.078-.115-.143-.238-.066-.122-.12-.25-.052-.129-.093-.261-.04-.133-.067-.27-.027-.136-.041-.274-.014-.138-.014-.277 0-.138.014-.277.014-.138.04-.274.028-.136.068-.269.04-.133.094-.261.053-.128.119-.25.065-.123.143-.238.077-.116.165-.223.089-.107.187-.206.098-.098.206-.186.108-.088.223-.165.116-.077.239-.143.123-.065.251-.118.129-.053.262-.094.133-.04.27-.067.136-.027.275-.04.138-.014.277-.014.14 0 .278.013.139.014.275.041.137.027.27.067.133.04.262.094.128.053.251.118.123.066.238.143.116.077.224.165.107.088.206.186.098.099.187.206.088.107.165.223.077.115.143.237.066.123.119.251.053.128.094.261.04.133.067.27.027.135.041.273.014.139.014.277zM10.523 81.61q0 .13-.006.258t-.019.257q-.013.128-.032.255-.019.128-.044.254-.025.126-.056.251-.032.125-.07.249-.037.123-.08.244-.044.121-.093.24-.05.12-.105.236-.055.116-.116.23-.06.113-.127.224-.067.11-.138.218-.072.107-.15.21-.076.104-.158.203-.082.1-.169.195-.086.096-.178.187-.091.09-.187.177-.095.087-.195.169-.1.081-.204.158-.104.077-.211.148-.108.072-.218.138-.111.066-.225.127-.114.06-.23.116-.117.055-.237.104-.12.05-.24.093-.122.043-.246.08-.124.038-.249.07-.125.03-.252.056-.127.025-.254.044-.128.019-.257.031-.128.013-.257.02-.13.006-.258.006-.13 0-.259-.007-.129-.006-.257-.019-.129-.012-.256-.031-.128-.019-.255-.044-.127-.025-.252-.056-.125-.032-.249-.07-.123-.037-.245-.08-.122-.043-.24-.093-.12-.049-.237-.104-.117-.055-.23-.116-.115-.06-.225-.127-.111-.066-.219-.138-.107-.071-.21-.148-.104-.077-.204-.158-.1-.082-.196-.169-.096-.086-.187-.177t-.178-.187q-.087-.095-.169-.195-.082-.1-.159-.203-.076-.103-.148-.21-.072-.108-.138-.218-.067-.11-.128-.224-.06-.114-.116-.23-.055-.117-.104-.236-.05-.119-.093-.24-.044-.121-.081-.244-.038-.124-.07-.249-.03-.125-.056-.251-.025-.126-.044-.254-.019-.127-.032-.255-.012-.129-.019-.257Q0 81.739 0 81.61t.006-.257q.007-.129.02-.257.012-.128.03-.256.02-.127.045-.253.025-.127.057-.252.031-.125.069-.248.037-.123.08-.245.044-.12.094-.24.049-.119.104-.235.055-.117.116-.23.061-.114.128-.224.066-.111.138-.218.072-.107.148-.21.077-.104.16-.204.081-.1.168-.195.087-.095.178-.186t.187-.178q.096-.086.196-.168.1-.082.203-.159.104-.076.211-.148.108-.071.219-.138.11-.066.224-.127.114-.06.231-.115.117-.055.236-.105.12-.049.241-.092.122-.044.245-.081.124-.038.25-.069.124-.031.251-.056t.255-.044q.127-.02.256-.032.128-.013.257-.019.13-.006.259-.006t.258.006q.129.006.257.02.129.012.257.03.127.02.254.045.127.025.252.056t.249.069q.124.037.245.08.122.044.241.093.12.05.236.105.117.055.231.115.114.061.225.127.11.067.218.138.107.072.211.148.104.077.204.159.1.082.195.168.096.087.187.178.092.09.178.186.087.096.169.195.082.1.159.203.077.104.149.21.071.108.138.219.066.11.127.224.06.113.116.23.055.116.105.235.05.12.093.24.043.122.08.245.038.123.07.248.031.125.056.252.025.126.044.253.02.128.032.256.013.128.019.257.006.128.006.257z" fill="#EAEEF9" style="mix-blend-mode:passthrough"/><g filter="url(#prefix__b)"><path d="M106.043 40.436l.81 64.99c0 2.22-1.822 3.935-4.048 3.935H39.26c-2.226 0-4.047-1.816-4.047-3.935V21.868c0-2.22 1.821-3.936 4.047-3.936H85.3l20.743 22.504z" fill="url(#prefix__c)" style="mix-blend-mode:passthrough"/></g><path d="M66.175 96.344H53.73c-.506 0-.911-.505-.911-1.11 0-.606.405-1.11.91-1.11h12.446c.506 0 .911.504.911 1.11 0 .706-.405 1.11-.91 1.11z" fill="#D5DDEA" style="mix-blend-mode:passthrough"/><path d="M59.093 96.344h-13.56c-.505 0-.91-.505-.91-1.11 0-.606.405-1.11.91-1.11h13.56c.505 0 .91.504.91 1.11 0 .706-.405 1.11-.91 1.11zM76.395 31.557H45.938a1.338 1.338 0 01-1.315-1.312c0-.707.607-1.312 1.315-1.312h30.457c.709 0 1.316.605 1.316 1.312 0 .706-.607 1.312-1.316 1.312zM57.676 38.822H45.938a1.338 1.338 0 01-1.315-1.312c0-.706.607-1.311 1.315-1.311h11.637c.708 0 1.315.605 1.315 1.311 0 .707-.607 1.312-1.214 1.312zM85.3 17.932v17.963c0 2.523 2.226 4.54 4.755 4.54h15.988M96.999 78.876H46.319c-.472 0-.943.474-.943 1.14 0 .565.377 1.13.943 1.13h50.68c.471 0 .944-.474.944-1.13-.095-.666-.473-1.14-.944-1.14zM96.905 70.671H46.319c-.472 0-.943.475-.943 1.13 0 .566.377 1.13.943 1.13h50.586c.471 0 .943-.463.943-1.13-.094-.655-.472-1.13-.943-1.13zM97.187 62.376H46.319c-.472 0-.943.465-.943 1.13 0 .566.377 1.13.943 1.13h50.774c.472 0 .944-.474.944-1.13.094-.565-.378-1.13-.85-1.13z" fill="#D5DDEA" style="mix-blend-mode:passthrough"/><path d="M60.192 97.181H46.32c-.472 0-.943-.474-.943-1.14 0-.565.377-1.13.943-1.13h13.873c.472 0 .944.474.944 1.13 0 .757-.472 1.14-.944 1.14z" fill="#E3EAF2" style="mix-blend-mode:passthrough"/><path d="M97.565 54.167H46.32c-.472 0-.943.47-.943 1.135 0 .565.377 1.13.943 1.13H97.47c.66 0 1.038-.474 1.038-1.13 0-.565-.377-1.135-.943-1.135z" fill="#D5DDEA" style="mix-blend-mode:passthrough"/><path d="M24.802 102.176h22.273c2.358 0 4.34-1.978 4.246-4.339v-30.94c0-8.487-6.983-15.466-15.478-15.466-8.493 0-15.477 6.889-15.477 15.466v30.85a4.427 4.427 0 004.436 4.43zm17.837-8.77H29.238V66.898c0-3.673 3.02-6.69 6.7-6.69s6.7 3.017 6.7 6.69v26.51z" fill-rule="evenodd" fill="#989FB0" style="mix-blend-mode:passthrough"/><path d="M56.229 110.572H15.931c-2.737 0-5.003-2.26-5.003-5.005V78.876c0-2.735 2.266-4.996 5.003-4.996h40.298c2.736 0 5.002 2.26 5.002 4.996v26.69c0 2.746-2.266 5.006-5.002 5.006z" fill="#C2C8D6" style="mix-blend-mode:passthrough"/><path d="M41.129 88.12a5.126 5.126 0 01-2.737 4.53v5.47a2.338 2.338 0 01-2.36 2.36 2.338 2.338 0 01-2.36-2.36v-5.47a5.125 5.125 0 01-2.735-4.53 5.07 5.07 0 015.095-5.087 5.07 5.07 0 015.097 5.086z" fill="#989FB0" style="mix-blend-mode:passthrough"/></g></svg>