<svg xmlns="http://www.w3.org/2000/svg" fill="none" width="64" height="64"><defs><linearGradient x1="0" y1=".5" x2="1" y2=".5" id="prefix__b"><stop offset="0%" stop-color="#B0BACC"/><stop offset="100%" stop-color="#969EAE"/></linearGradient><linearGradient x1="0" y1=".5" x2="1" y2=".5" id="prefix__c"><stop offset="0%" stop-color="#B0BACC"/><stop offset="100%" stop-color="#969EAE"/></linearGradient><clipPath id="prefix__a"><rect width="64" height="64" rx="0"/></clipPath></defs><g clip-path="url(#prefix__a)"><path d="M51.291 53.865L39.878 42.372l2.617-2.641 11.403 11.504-2.607 2.63z" fill="#858B9B"/><path d="M55.258 57.907l-8.75-8.823a1.9 1.9 0 010-2.67 1.866 1.866 0 012.652 0l8.75 8.817c.732.738.732 1.938 0 2.676a1.865 1.865 0 01-2.652 0z" fill="#858B9B"/><path d="M54.636 58.472l-11.26-11.349a.69.69 0 010-.963l2.878-2.9a.674.674 0 01.957 0l11.26 11.348a.689.689 0 010 .963l-2.878 2.901a.685.685 0 01-.957 0z" fill="url(#prefix__b)"/><path d="M26.954 48.923q.531 0 1.061-.027.53-.026 1.059-.078.528-.053 1.053-.131.525-.079 1.046-.183.52-.104 1.035-.234.515-.13 1.023-.286.508-.155 1.007-.335.5-.18.99-.385.49-.205.97-.434t.949-.48q.468-.253.923-.528t.897-.572q.44-.298.867-.616.426-.32.837-.658.41-.34.803-.7.394-.359.769-.737t.732-.775q.356-.396.693-.81.337-.413.653-.843t.61-.875q.296-.444.569-.903.272-.46.523-.931.25-.472.477-.956.227-.483.43-.978.203-.494.382-.998.179-.503.333-1.015.154-.512.283-1.031.129-.52.232-1.044.104-.525.182-1.054.077-.53.13-1.062.052-.532.078-1.067.026-.534.026-1.069 0-.535-.026-1.07-.026-.534-.078-1.066-.053-.533-.13-1.062-.078-.53-.182-1.054-.103-.525-.232-1.044-.13-.519-.283-1.03-.154-.513-.333-1.016-.18-.504-.382-.998-.203-.495-.43-.978-.227-.484-.477-.956-.25-.472-.523-.93-.273-.46-.568-.904-.295-.445-.611-.875t-.653-.843q-.337-.414-.693-.81-.357-.397-.732-.775t-.769-.738q-.393-.36-.803-.699-.41-.339-.837-.658-.426-.318-.867-.616-.442-.297-.897-.572-.455-.275-.923-.527t-.948-.481q-.48-.229-.97-.434-.49-.204-.99-.385-.5-.18-1.008-.335-.508-.156-1.023-.286-.515-.13-1.035-.234-.521-.104-1.046-.183-.525-.078-1.053-.13-.528-.053-1.059-.08-.53-.026-1.06-.026-.531 0-1.061.027-.53.026-1.059.078-.528.053-1.053.131-.525.079-1.046.183-.52.104-1.035.234-.515.13-1.023.286-.508.155-1.007.335-.5.18-.99.385-.491.205-.97.434-.48.229-.949.48-.468.253-.923.528t-.897.572q-.44.298-.867.616-.427.32-.837.658-.41.34-.803.7-.394.359-.769.737t-.732.775q-.356.396-.693.81-.337.413-.653.843t-.61.875q-.296.444-.569.903-.272.46-.523.931-.25.472-.477.956-.227.483-.43.978-.203.494-.382.998-.179.503-.333 1.015-.154.512-.283 1.031-.129.52-.232 1.044-.104.525-.182 1.054-.078.53-.13 1.062-.052.532-.078 1.067-.026.534-.026 1.069 0 .535.026 1.07.026.534.078 1.066.052.533.13 1.062.078.53.182 1.054.103.525.232 1.044.13.519.283 1.03.154.513.333 1.016.179.504.382.998.203.495.43.978.227.484.477.956.25.472.523.93.273.46.568.904.295.445.611.875t.653.843q.337.414.693.81.357.397.732.775t.769.738q.393.359.803.699.41.339.837.658.426.318.867.616.442.297.897.572.455.275.923.527t.948.481q.48.229.97.434.49.204.99.385.5.18 1.008.335.508.156 1.023.286.515.13 1.035.234.52.104 1.046.183.525.078 1.053.13.528.053 1.059.08.53.026 1.06.026zm.005-4.037q.426 0 .851-.021.426-.022.85-.064.424-.043.846-.107.421-.064.84-.15.417-.084.83-.19.414-.106.822-.233.407-.126.809-.273.4-.147.794-.314t.78-.353q.385-.187.76-.392.376-.206.742-.43.365-.224.72-.466.354-.242.696-.502.342-.26.672-.536.33-.277.645-.57.316-.293.617-.601t.587-.631q.287-.323.557-.66.27-.337.524-.688.254-.35.49-.712.237-.363.456-.737.22-.374.42-.758.201-.385.383-.78.183-.393.346-.796.163-.403.306-.813.144-.411.268-.828.123-.417.227-.84.103-.423.186-.85.084-.429.146-.86.063-.431.104-.865.042-.434.063-.87.021-.435.021-.87 0-.437-.021-.872-.02-.436-.063-.87-.041-.434-.104-.865-.062-.431-.146-.859-.083-.427-.186-.85-.104-.423-.227-.84-.124-.418-.268-.828-.143-.41-.306-.814-.163-.403-.346-.797-.182-.394-.383-.778-.2-.385-.42-.759-.219-.374-.455-.736-.237-.363-.491-.713t-.524-.687q-.27-.337-.557-.66-.286-.323-.587-.632-.301-.308-.617-.6-.316-.294-.645-.57-.33-.277-.672-.537t-.697-.502q-.354-.242-.72-.466-.365-.224-.74-.43-.376-.205-.762-.392-.385-.186-.779-.353-.393-.167-.794-.314-.402-.147-.81-.273-.407-.127-.82-.233-.414-.106-.832-.19-.418-.086-.84-.15-.42-.064-.845-.106-.424-.043-.85-.064-.425-.022-.851-.022t-.852.022q-.426.02-.85.064-.424.042-.845.106-.422.064-.84.15-.418.084-.831.19t-.821.233q-.408.126-.81.273-.4.147-.794.314t-.779.353q-.385.187-.76.392-.377.206-.742.43-.366.224-.72.466-.354.243-.697.502-.342.26-.671.537-.33.276-.645.57-.316.292-.617.6-.302.309-.588.632t-.556.66q-.27.337-.525.687-.253.35-.49.713-.237.362-.456.736-.219.374-.42.759-.2.384-.383.778-.182.394-.345.797-.163.403-.307.814-.143.41-.267.827-.124.418-.227.84-.104.424-.187.851-.083.428-.146.859-.062.431-.104.865-.042.434-.063.87-.02.435-.02.871t.02.872q.021.435.063.869.042.434.104.865.063.431.146.86.083.427.187.85.103.423.227.84.124.417.267.828.144.41.307.813.163.403.345.797.182.394.383.779.201.384.42.758.22.374.456.737.237.362.49.712.254.35.525.688.27.337.556.66.286.323.588.631.301.308.617.601.315.293.645.57.33.276.671.536.343.26.697.502.354.242.72.466.365.224.741.43.376.205.761.392.385.186.779.353.394.167.795.314t.809.273q.408.127.821.233.413.106.831.19.418.086.84.15.421.064.845.107.424.042.85.064.426.021.852.021z" fill-rule="evenodd" fill="url(#prefix__c)"/></g></svg>